<svg version="1.2" xmlns="http://www.w3.org/2000/svg" width="1650" height="1650">
    <style>
        .color {
            fill: #403d52;
            stroke: #403d52;
            stroke-width: 50px;
        }
    </style>
    <path id="right-ear" class="color"
        d="M1300 540q-1.7 0-3.5-.4c-9.4-1.9-15.5-11.1-13.5-20.5 30.9-151 42.7-343-25.8-387.1-2.6-1.6-29.2-13.9-153.4 74.1-73.8 52.3-108.2 81.8-96.2 74.8-7.3 6.3-18.3 5.6-24.6-1.7-6.3-7.2-5.5-18.2 1.7-24.5 21.2-18.4 96.1-82.8 97.9-79.8 130.3-92.3 171.2-88.6 192.3-75 104.6 67.4 57.9 341 41 423.3-1.7 8.2-8.9 13.9-17 13.9z" />
    <path id="class" class="color"
        d="M700 1400c-188.3 0-274.6-41.7-311.5-70.1-6.2-3.9-14.9-11.4-26.7-21.5-25.7-22.2-73.4-63.4-98.4-63.4h-.2c-22.7.2-53.8.4-65.2-21.4-8.6-16.5-2.6-35.9 5-60.4l.1-.1c-16.3 7-32.7 10.6-45.2 5.6-9.3-3.7-15.7-11.4-18.1-21.6-2.6-11.2.9-26.2 6.2-49.1 4.6-19.7 10.3-44.3 11.7-67.8 8.2-132.9 12.1-164.9 12.6-168.3 1-10.7 11.3-107.3 36.1-181.4-22.1-47.9-150.5-338.2-54.9-432.1 48.3-47.6 197 18.8 317.1 85.5 67.5-47.2 157-84.1 236.6-96.9 17.4-2.9 34.7-5 51.5-6.3 1-.1 1.8-.2 2.4-.2 66.4-5.3 127.6 7.2 179.7 19.4 218.9 51.5 352.1 229.9 357.7 237.5 35.9 49.1 60.6 88.6 80.2 127.8 10.7 21.4 19.8 42.5 27.6 64.5q.1.3.3.8c2.6 7.2 25.5 71.5 63.3 196.8 6.9 22.6 18.1 45.2 27 63.4 10.4 21 17.3 34.8 17.3 46.3.1 10.5-4.4 19.4-12.5 25.2-11.1 7.7-27.9 8-45.3 4.9l.1.1c13 22.1 23.3 39.6 18.7 57.6-3.5 13.8-17.1 30.1-61.9 30.1h-1.8c-23.9 0-39.4 30.4-39.6 30.7-4 8-17.5 26.2-17.6 26.3-53.4 67.2-123.3 116.6-233.7 165.4-8.4 4.1-110 52.6-295.7 67.5-45.1 3.6-86 5.2-122.9 5.2zm-290.5-97.7c32.4 24.9 136.7 79.7 410.7 57.8 182.3-14.6 282.2-63.6 283.2-64.1l.8-.3c105-46.4 171-92.7 220.6-155 4.9-6.7 12.5-17.6 14-20.6 1-2 25.4-50.5 71.2-49.9 18.3.1 27-3.1 29.6-4.9-.4-5.5-9.1-20.4-15.1-30.4l-1.4-2.5c-10.2-17.3-14.8-28.7-16.7-34-2.5-6.9-.7-14.7 4.4-19.8 5.1-5 12.7-6.7 19.4-4.3 22.3 8.1 39.1 10.5 46.5 9.9-2.1-6.2-8-18.2-12.9-28.1-9.6-19.3-21.5-43.4-29.1-68.7-37.2-123-59.7-186.5-62.7-194.8l-.3-1c-7.4-20.7-15.9-40.6-26.1-60.8-18.7-37.5-42.5-75.4-77.1-122.9-1.3-1.6-131.6-175.7-337.6-224.2-51.9-12.1-107.8-23.5-169.5-18.5l-1.3.1c-16.1 1.2-32.6 3.2-49.3 6-78.1 12.6-166.5 49.9-230.7 97.2l-9 6.7-9.8-5.6c-143.7-80.8-261-120.4-285.4-96.5-66.5 65.3 16.7 301.1 64.9 398.7l3.2 6.6-2.4 6.9c-26.2 73.6-36.7 179.2-36.8 180.3l-.1.9c-.1 1.1-4 29.9-12.3 165.8-1.6 26.4-7.7 52.6-12.5 73.6-2.5 10.7-5.5 23.6-6.1 30.3 7.4-1.1 23.1-7.3 43-20.3 5.9-4 13.7-4.1 19.8-.3 6.2 3.8 9.7 10.9 8.9 18.2-.6 5.6-2.5 17.8-8.5 37l-.8 2.7c-3.5 11.3-8.7 28.3-7.5 33.4 3.7 2.4 15.2 3.4 34.3 3.3h.4c35 0 77.3 34 121.1 71.9 8.2 7 16.5 14.2 20.9 17.4l1.4.3zm-198.6-172.2z" />
</svg>