<svg version="1.2" xmlns="http://www.w3.org/2000/svg" viewBox="0 0 4000 4000" width="4000" height="4000">
	<title>logo</title>
	<style>
		.s0 {
			fill: #cdd6f4
		}

		.s1 {
			fill: #11111b
		}

		.s2 {
			fill: #11111b
		}

		.s3 {
			fill: none;
			stroke: #11111b;
			stroke-linecap: round;
			stroke-miterlimit: 10;
			stroke-width: 34.8
		}

		.s4 {
			fill: #fab387
		}

		.s5 {
			fill: #45475a
		}

		.s6 {
			fill: #1e1e2e
		}

		.s7 {
			fill: #6c7086
		}

		.s8 {
			fill: #181825
		}

		.s9 {
			fill: #585b70
		}

		.s10 {
			fill: #585b70
		}

		.s11 {
			fill: #eba7a4
		}

		.s12 {
			fill: #f38ba8
		}

		.s13 {
			fill: #fab387;
			stroke: #11111b;
			stroke-linecap: round;
			stroke-miterlimit: 10;
			stroke-width: 34.8
		}

		.s14 {
			fill: #a6e3a1
		}

		.s15 {
			fill: #313244
		}
	</style>
	<g id="_Artboards_">
	</g>
	<g id="Layer 1">
		<g id="&lt;Group&gt;">
			<g id="&lt;Group&gt;">
				<g id="&lt;Group&gt;">
					<g id="&lt;Group&gt;">
						<path id="&lt;Path&gt;" class="s0"
							d="m2600.3 2224.2c25.3 43.9 118.3 172.5 275.8 213.3 116.4 30.1 337.6-53.5 337.6-160.3 0.1-102.2-149-92.2-230.2-120.8-231.6-81.4-270.3-145.4-297.7-161.4-90-52-174.5 74.9-85.5 229.2z" />
						<path id="&lt;Compound Path&gt;" fill-rule="evenodd" class="s1"
							d="m2930 2446.2c-19.7 0-38.2-2-54.5-6.2-175.8-45.6-267.6-197.3-277.5-214.5-57.2-99.2-42.5-185-4.7-222.7 25.5-25.5 60.5-29.2 93.7-10 5.9 3.4 11.9 8.6 20.3 15.8 30.3 26.2 93.3 80.8 277 145.4 21.6 7.6 47.6 12.3 75.2 17.4 73.5 13.5 156.9 28.8 156.8 105.9 0 32.3-19.8 64.6-57.1 93.5-59.4 45.9-153.5 75.4-229.2 75.4zm-285.2-460.3c-17.6 0-34.2 6.9-47.9 20.5-36.4 36.4-50.3 119.7 5.6 216.5 9.8 17 100.6 167.1 274.3 212.1 77.5 20.1 205.4-11.2 279.2-68.3 36.1-27.9 55.1-58.8 55.2-89.5 0-72.7-77.6-86.9-152.6-100.7-27.8-5.1-54.1-10-76-17.7-184.6-64.9-248.2-119.9-278.7-146.3-8.1-7-14-12.1-19.4-15.2-13.2-7.7-26.7-11.4-39.7-11.4z" />
					</g>
					<g id="&lt;Group&gt;">
						<path id="&lt;Compound Path&gt;" fill-rule="evenodd" class="s2"
							d="m2930.9 2461.1c-21.2 0-41.3-2.2-59.1-6.8-181.6-47.1-276.4-203.7-286.6-221.4-61.1-105.9-44.1-199-2.4-240.6 30.6-30.5 72.3-35.1 111.7-12.3 7 4.1 13.8 10 22.5 17.4 29.6 25.7 91.2 78.9 272.3 142.6 20.4 7.2 45.9 11.9 72.9 16.9 75.3 13.8 169 31 168.9 120.4 0 37-21.8 73.4-62.9 105.2-62.5 48.4-158.3 78.6-237.3 78.6zm-286.2-460.6c-13.7 0-26.4 5.5-37.3 16.4-32.6 32.5-44 108.6 7.9 198.6 9.5 16.5 97.3 161.6 265.2 205.1 73.7 19.1 195.8-10.9 266.4-65.6 22.6-17.4 49.4-45 49.5-77.8 0-56.2-55.6-70.6-140.5-86.2-28.4-5.2-55.2-10.1-78.2-18.2-187.3-65.9-252.3-122.1-283.5-149.1-7.2-6.2-12.9-11.2-17.1-13.6-11.1-6.4-22.1-9.6-32.4-9.6z" />
					</g>
					<g id="&lt;Group&gt;" style="opacity: .3">
						<path id="&lt;Path&gt;" class="s2"
							d="m2613 2227.8c0 0 105.7 168.9 263.1 209.7 116.4 30.1 337.6-53.5 337.6-160.3 0-23.5-7.6-40-20.3-51.9-38.5 90.3-226.5 154.3-330.6 127.4-109.8-28.5-223.7-153.9-282.6-227.3-7.5-9.3-22.3-1.1-18.3 10.2l14.7 42z" />
					</g>
				</g>
				<g id="&lt;Group&gt;">
					<g id="&lt;Group&gt;">
						<path id="&lt;Path&gt;" class="s0"
							d="m2664.1 3279.7c-41.4 106.8-384.1 105.8-423.4-40.5-42.9-159.8 3.1-335.7 3.1-335.7-92.4 20.4-188.3 0-188.3 0 0 0 46 175.9 3.1 335.7-39.3 146.3-382 147.3-423.4 40.5-12-30.8-6.5-61.1 10.7-87.1 21.5-32.6 61.6-58.4 108.6-69.5l-0.5-3.5c-41.3-273.2-142.9-372.5-161.7-731.1-10.5-201.5 88.1-584.7 88.1-584.7l362.6-38 464.2 41.9c221.7 455.5 161.9 838.3 108.2 1022.8-28.1 96.4-69.4 293-69.4 293 57.9 14 105 50.2 119.7 94.2 6.6 19.6 6.7 40.6-1.6 62z" />
					</g>
					<g id="&lt;Group&gt;" style="opacity: .3">
						<path id="&lt;Path&gt;" class="s2"
							d="m2664.1 3279.7c-41.4 106.8-384.1 105.8-423.4-40.5-42.9-159.8 3.1-335.7 3.1-335.7-92.4 20.4-188.3 0-188.3 0 0 0 46 175.9 3.1 335.7-39.3 146.3-382 147.3-423.4 40.5-12-30.8-6.5-61.1 10.7-87.1 0.1 23.9 7.3 57.2 41.9 76.8 58.5 33 284.9 17.3 320.8-74.4 46.9-119.6-76-259.4-133.9-380.1 0 0 204.4 31.6 277.9 33.5 157.8 3.9 291.6-47.3 291.6-47.3 0 0-200.2 290.9-159.8 393.1 39.7 100.8 288.5 140.6 381.3 23.5 6.6 19.6 6.7 40.6-1.6 62z" />
					</g>
					<g id="&lt;Group&gt;">
						<path id="&lt;Compound Path&gt;" fill-rule="evenodd" class="s2"
							d="m2474.1 3372.3q-11.8 0-23.3-0.6c-94.5-5.1-203.6-41.4-226.9-128-34.2-127.4-14-262.6-2.8-318.4-57.3 8.4-112 3.8-143-0.4 11.2 55.5 31.6 191-2.7 318.8-23.3 86.6-132.4 122.9-226.9 128-92.6 5-203.9-19.7-229.5-85.7-11.8-30.4-9.9-62.1 5.7-91.6 19.9-37.9 60.5-68.6 110.3-83.9-16.8-105-42.3-182.6-69.1-264.6-39.2-119.5-79.8-243.2-90.9-456.5-10.6-201.8 84.5-574.2 88.6-589.9l3-11.7 376.3-39.4 475.6 42.9 4.3 8.8c223.7 459.5 164.5 845.9 109.3 1035.3-23 78.8-55.3 227.1-65.7 275.7 48.9 15.7 88.8 46.1 108.4 83.6 15.4 29.4 17.3 61 5.5 91.3-23.4 60.5-119.1 86.3-206.2 86.3zm-779.8-1552.5c-16.2 65.7-93.9 390.8-84.6 567.8 10.9 208.7 50.7 330.1 89.2 447.5 27.1 82.6 55.1 168.1 72.3 281.9l2.8 19.4-15.5 3.7c-46.5 10.9-86 38-103.1 70.4-10.8 20.7-12.2 41.9-4 62.9 16 41.4 100 68.7 195.3 63.6 78.5-4.2 176.7-33.5 195.1-102.3 41.3-153.5-2.7-325.1-3.1-326.8l-7.2-27.2 27.6 5.8c0.9 0.2 93.5 19.3 181 0l27.7-6.1-7.2 27.5c-0.4 1.7-44.3 173.5-3.1 326.8 18.4 68.8 116.6 98.1 195.1 102.3 95.3 5.1 179.3-22.2 195.3-63.6 8.2-21 6.8-42-3.9-62.6-16.9-32.3-56-59.3-102.1-70.5l-16.4-3.9 3.5-16.5c0.4-2 41.7-198.3 69.7-294.2 53.4-183.5 110.7-556.5-102.9-1001.6l-452.7-40.8z" />
					</g>
					<g id="&lt;Group&gt;">
						<path id="&lt;Path&gt;" class="s2"
							d="m1809.5 3205.4c-7.7 10.5-13.1 22.2-16.7 34.1-3.5 12-5.4 24.3-4.8 36.3-0.2 3 0.5 6 0.7 9 0.3 3 0.5 5.9 1.3 8.8l1.8 8.7 2.8 8.4 1.3 4.1c0.6 1.4 1.3 2.7 1.8 4.1l3.7 7.9c2.6 5.3 5.8 10.3 8.7 15.3l0.8 1.6c4.8 8.5 1.8 19.3-6.7 24-8.6 4.8-19.3 1.8-24.1-6.8-0.6-1.1-1.1-2.3-1.5-3.5-2.1-6.8-4.4-13.5-6.1-20.3l-2.1-10.5c-0.3-1.7-0.7-3.4-1-5.2l-0.5-5.3-0.9-10.5 0.2-10.6c-0.1-3.5 0.3-7 0.8-10.5 0.5-3.4 0.6-6.9 1.6-10.3 2.5-13.6 7.6-26.5 14.2-38.1 6.6-11.7 14.8-22.2 24.7-30.7z" />
					</g>
					<g id="&lt;Group&gt;">
						<path id="&lt;Path&gt;" class="s2"
							d="m1726.8 3199.9c-6.7 9.7-12 20.1-16.3 30.7-4.2 10.6-7.1 21.6-8.4 32.4-1.3 10.8-0.3 21.4 2.1 31.1l2.2 7.1 3.1 6.7c0.5 1.1 1 2.2 1.5 3.3l2.1 3.1 4 6 0.9 1.4c5.4 8.2 3.1 19.2-5.1 24.6-8.2 5.3-19.2 3.1-24.5-5.1-0.8-1.3-1.5-2.6-2-4l-3.4-9.8-1.6-4.9c-0.4-1.7-0.7-3.4-1-5.1-0.7-3.4-1.3-6.7-1.8-10.1l-0.5-10.2c0.1-13.5 2.4-26.5 7-38.3 4.6-11.9 10.7-22.6 17.7-32.4 7.2-9.8 15.1-18.8 24-26.5z" />
					</g>
					<g id="&lt;Group&gt;">
						<path id="&lt;Path&gt;" class="s2"
							d="m2485.1 3205.4c9.8 8.5 18.1 19 24.7 30.7 6.5 11.6 11.7 24.5 14.2 38.1 0.9 3.4 1.1 6.9 1.6 10.3 0.4 3.5 0.9 7 0.8 10.5l0.2 10.6-0.9 10.5-0.5 5.3c-0.3 1.8-0.7 3.5-1 5.2l-2.1 10.5c-1.7 6.8-4.1 13.5-6.1 20.3-2.9 9.4-12.8 14.7-22.1 11.8-9.3-2.8-14.6-12.7-11.8-22q0.6-1.9 1.5-3.5l0.9-1.6c2.8-5 6.1-10 8.7-15.3l3.6-7.9c0.6-1.4 1.3-2.7 1.8-4.1l1.4-4.1 2.8-8.4 1.8-8.7c0.8-2.9 1-5.8 1.3-8.8 0.2-3 0.8-6 0.7-9 0.5-12-1.3-24.3-4.8-36.3-3.6-11.9-9-23.6-16.7-34.1z" />
					</g>
					<g id="&lt;Group&gt;">
						<path id="&lt;Path&gt;" class="s2"
							d="m2567.7 3199.9c9 7.7 16.9 16.7 24 26.5 7.1 9.8 13.2 20.5 17.7 32.4 4.7 11.8 7 24.8 7.1 38.3l-0.5 10.2c-0.5 3.4-1.2 6.7-1.8 10.1-0.3 1.7-0.6 3.4-1 5.1l-1.6 4.9-3.5 9.8c-3.1 9.3-13.2 14.2-22.5 11-9.2-3.2-14.1-13.3-10.9-22.5q0.7-2.1 1.8-3.9l1-1.5 4-6 2-3.1c0.6-1.1 1.1-2.2 1.6-3.3l3.1-6.7 2.2-7.1c2.4-9.7 3.4-20.3 2.1-31.1-1.3-10.8-4.2-21.8-8.4-32.4-4.3-10.6-9.6-21-16.4-30.7z" />
					</g>
					<g id="&lt;Group&gt;">
						<path id="&lt;Path&gt;" class="s3" d="" />
					</g>
					<g id="&lt;Group&gt;">
						<path id="&lt;Path&gt;" class="s2"
							d="m1751.7 3108c5.6-1.9 10.7-3 16.2-3.8 5.3-0.9 10.7-1.4 16.1-1.6 10.8-0.6 21.6 0.1 32.4 1.3 10.8 1.1 21.5 3.1 32 5.8 10.6 2.7 20.9 6.4 30.6 11.3 1.1 0.5 1.6 1.9 1 3-0.4 0.8-1.1 1.2-1.8 1.3h-0.1c-10.7 0.9-20.9 1.5-31.2 2.7-10.1 1.1-20.2 2.2-30.2 3.7-10 1.4-19.9 3.1-29.8 4.3-5 0.6-9.9 1.2-14.9 1.6-4.9 0.4-10.1 0.8-14.7 0.7h-1c-8.6-0.1-15.4-7.2-15.3-15.8 0.1-6.8 4.6-12.5 10.7-14.5z" />
					</g>
					<g id="&lt;Group&gt;">
						<path id="&lt;Path&gt;" class="s2"
							d="m2543.9 3138.3c-4.6 0.1-9.8-0.3-14.6-0.7-5-0.4-10-1-14.9-1.6-9.9-1.2-19.8-2.9-29.9-4.3-10-1.5-20-2.6-30.2-3.7-10.2-1.2-20.5-1.8-31.2-2.7-1.3-0.1-2.2-1.2-2.1-2.5 0.1-0.8 0.6-1.5 1.2-1.8 9.8-4.9 20.1-8.6 30.6-11.3 10.5-2.7 21.3-4.7 32-5.8 10.8-1.2 21.7-1.9 32.4-1.3 5.4 0.2 10.8 0.7 16.2 1.6 5.4 0.8 10.5 1.9 16.2 3.8 8.1 2.6 12.6 11.4 9.9 19.6-2.1 6.5-8.1 10.6-14.5 10.7z" />
					</g>
					<g id="&lt;Group&gt;">
						<path id="&lt;Path&gt;" class="s1"
							d="m2055.5 2920.9q-1.7 0-3.5-0.4c-3.5-0.7-85.8-18.2-187.4-91.5-7.8-5.6-9.6-16.5-3.9-24.3 5.6-7.8 16.4-9.5 24.2-3.9 95.2 68.6 173.3 85.5 174.1 85.7 9.4 2 15.4 11.2 13.5 20.6-1.7 8.2-8.9 13.8-17 13.8z" />
					</g>
					<g id="&lt;Group&gt;">
						<path id="&lt;Path&gt;" class="s1"
							d="m2243.8 2920.9c-8 0-15.2-5.5-17-13.6-2-9.4 3.9-18.7 13.3-20.8 1.2-0.2 121.8-27.4 191.7-97.7 6.8-6.8 17.8-6.8 24.6 0 6.8 6.8 6.8 17.8 0.1 24.6-77.3 77.5-203.6 105.9-209 107.1q-1.8 0.4-3.7 0.4z" />
					</g>
				</g>
				<g id="&lt;Group&gt;">
					<path id="&lt;Path&gt;" class="s0"
						d="m723 2426.6c-8 108.3 25.2 220.7 110.4 289.8 109.2 88.7 267.9 96 377.5 50.1 64.9-27.3 247.3-100.8 323-82.1l7.4-130.7c0 0-173-29.6-369.4 50.6-144.4 59-279-32-272.1-126 2.7-37.1 27.4-74.6 82-103.6 197.9-105.2 114.6-287.8-57.3-243.4-117.3 30.3-191.6 159.6-201.5 295.3z" />
					<path id="&lt;Compound Path&gt;" fill-rule="evenodd" class="s1"
						d="m1064.5 2796.8c-78.7 0-163.6-22.2-232.8-78.4-78.4-63.7-120-172.9-111.3-292 9.1-124.3 75.5-264.5 203.5-297.6 90.1-23.3 150.6 16.1 168.7 62.5 18.9 48.7 1.6 126.6-109.6 185.7-63 33.5-78.6 73.7-80.6 101.5-2.8 37.7 18.3 76.8 56.5 104.6 44.9 32.6 124.2 54.7 212.1 18.8 194.8-79.5 369-51.1 370.8-50.8l2.2 0.4-7.7 136.1-3-0.7c-69.2-17.1-231.1 44-321.4 81.9-41.3 17.4-92.9 28-147.4 28zm-89.2-669.7c-15.4 0-32.2 2-50.1 6.7-125.5 32.4-190.7 170.5-199.6 292.9-8.7 117.5 32.2 225.1 109.4 287.7 115.4 93.8 275.3 91.5 374.9 49.7 89.7-37.7 249.5-98 321.6-82.9l7.1-125.3c-21-3.1-184.3-23.3-365.7 50.8-89.8 36.7-171 14-217-19.5-39.7-28.8-61.6-69.6-58.7-109.1 2.2-29.1 18.3-71.1 83.4-105.7 108.2-57.5 125.3-132.5 107.2-179.2-13.7-35.2-53.3-66.1-112.5-66.1z" />
				</g>
				<g id="&lt;Group&gt;" style="opacity: .3">
					<path id="&lt;Path&gt;" class="s2"
						d="m833.4 2716.5c109.2 88.6 268 95.9 377.5 50 64.8-27.3 247.4-100.8 323-82.1l7.4-130.7c0 0-1.3-0.2-3.7-0.6l-3.7 63.9c-75.6-18.7-258.2 54.8-323 82.1-109.5 45.9-268.3 38.6-377.5-50.1-68.3-55.4-103.2-138.6-110.2-225.2-0.1 0.9-0.1 1.8-0.2 2.8-8 108.3 25.2 220.7 110.4 289.9z" />
				</g>
				<g id="&lt;Group&gt;">
					<path id="&lt;Path&gt;" class="s4"
						d="m723 2426.6c3.8-0.7 7.6-2.3 11.1-4.9 12.5-9.2 30.3-5.8 38.6 7.4l14 22.4c8.6 13.8 27.4 16.8 39.9 6.4l14-11.6c11.8-9.8 29.4-7.7 38.6 4.5l20.6 27.5c2.7-37.1 27.4-74.6 82-103.6 197.9-105.2 114.6-287.8-57.3-243.4-117.3 30.3-191.6 159.6-201.5 295.3z" />
				</g>
				<g id="&lt;Group&gt;" style="opacity: .5">
					<path id="&lt;Path&gt;" class="s0"
						d="m732.5 2362.8c32.1-88.7 93.9-160.6 177.6-182.3 95.1-24.5 163.1 20.4 171.3 83.3 8.5-15.8 13.2-31.6 14.7-46.8-6.7-64.2-75.2-110.6-171.6-85.7-98.7 25.5-166.9 121.1-192 231.5z" />
				</g>
				<g id="&lt;Group&gt;">
					<path id="&lt;Path&gt;" class="s2"
						d="m1064.6 2811.5c-81.9 0-170.2-23.1-242.2-81.6-96.9-78.7-139.2-222.8-107.7-367.2 27.8-127.6 106.6-222.7 205.5-248.2 98.9-25.6 165.8 19.1 186.2 71.5 21.1 54.3 3.3 140.4-116.5 204.1-63.3 33.6-87.4 83-64.4 132 31.2 66.5 135 109 239.9 66.1 198.7-81.1 371.6-52.9 378.9-51.6 9.4 1.6 15.8 10.6 14.2 20-1.6 9.5-10.6 15.8-20.1 14.2-1.7-0.3-170.8-27.6-359.9 49.6-127.2 52-246.7-2.9-284.5-83.5-24.5-52.4-16.5-126.5 79.6-177.5 99.6-53 116.3-119.8 100.4-160.8-15.5-39.8-66.3-70.8-145.1-50.5-86.2 22.3-155.2 107.3-180.2 222-28.8 131.7 8.8 262.3 95.6 332.9 110.7 89.9 264.2 87.6 359.9 47.4 113.2-47.5 263-100.4 333.9-82.9 9.3 2.3 15 11.7 12.7 21-2.3 9.4-11.7 15-21 12.7-47.5-11.7-161.2 17.9-312.2 81.3-42.9 18-96.4 29-153 29z" />
				</g>
				<g id="&lt;Group&gt;">
					<path id="&lt;Path&gt;" class="s5"
						d="m2181.3 3002.5c-404.5 37.1-738.3 1.9-745.7-78.5l-9.6-104.9-34-371.5-42-458.5c7.3 80.4 341.2 115.6 745.7 78.5 404.4-37 726.3-132.2 719-212.6l85.6 934.9c7.4 80.3-314.5 175.6-719 212.6z" />
					<path id="&lt;Compound Path&gt;" fill-rule="evenodd" class="s6"
						d="m1873.8 3019.9c-78.5 0-151-3.3-214.5-10-142.2-15-222.5-45.4-226.2-85.6l-85.7-934.9q0 0 0 0l5.1-0.5c3.4 37 84.2 66.5 221.7 81 140.7 14.8 325.8 13.1 521.2-4.8 195.5-17.9 377.8-49.9 513.4-90 132.5-39.2 206.6-82.9 203.3-119.8v-0.1l5.1-0.5 85.7 934.9c3.7 40.3-69.8 84.8-206.9 125.3-136 40.2-318.7 72.2-514.5 90.2-107.5 9.8-212 14.8-307.7 14.8zm-519.6-1013l84 916.9c3.4 37 84.2 66.5 221.6 81 140.7 14.8 325.8 13 521.3-4.9 195.4-17.8 377.8-49.8 513.4-89.9 132.6-39.2 206.6-82.9 203.2-119.9l-84-917c-16.2 35.1-86.8 72.4-203.4 106.9-136 40.2-318.7 72.3-514.4 90.2-381.9 35-692.2 7.1-741.7-63.3z" />
				</g>
				<g id="&lt;Group&gt;" style="opacity: .5">
					<path id="&lt;Path&gt;" class="s7"
						d="m2873 2491.5l-62.2-372.9c-14.5-87-104.1-139.9-187.1-110.3-148.2 52.7-396.1 116.3-842.1 110.2-118.7-1.6-213.1-26.2-285-56.8 136.3 24.3 354.8 28.3 599.1 5.9 404.4-37 726.3-132.2 719-212.6z" />
				</g>
				<g id="&lt;Group&gt;" style="opacity: .4">
					<path id="&lt;Path&gt;" class="s8"
						d="m2181.3 3002.5c404.5-37 726.4-132.3 719-212.6l-24.6-268.5c-90.9 224.7-342.9 269.5-593.4 292.4-210.7 19.3-402.2 19-538.4 2.9-92.6-10.9-146.1-109.6-106.9-194.3 22.7-49.1 33.4-92.1 37.2-114.6 30-175.5-93.3-265.3-159.6-185.3-4.3 5.2-8.3 12.5-13.7 22.4l-26.4-287.5c-35.2-7.3-63.8-16.2-84.7-26.5l38.2 416.7 34.1 371.5 9.6 104.9c5.2 57.3 176.3 91.6 420.7 93.2 89-0.6 186.7-5.3 288.9-14.7z" />
				</g>
				<g id="&lt;Group&gt;">
					<path id="&lt;Compound Path&gt;" fill-rule="evenodd" class="s2"
						d="m1873.8 3034.7c-79 0-152.1-3.4-216.1-10.1-154.3-16.2-234.8-49.5-239.4-99l-85.6-934.9 34.6-3.1c1.6 17.1 47.3 50.6 208.4 67.6 139.8 14.7 323.9 12.9 518.4-4.9 194.5-17.8 375.8-49.6 510.6-89.4 155.3-46 194.2-87.2 192.6-104.3l34.7-3.2q0 0.1 0 0.1l85.6 934.8c4.5 49.4-68.6 96.8-217.4 140.8-136.9 40.5-320.6 72.7-517.3 90.7-108 9.9-213 14.9-309.1 14.9zm-501.6-993.7l80.7 881.5c1.6 17.1 47.3 50.6 208.5 67.5 139.7 14.7 323.8 13 518.3-4.8 194.5-17.8 375.9-49.6 510.6-89.4 155.4-46 194.3-87.2 192.7-104.4l-80.8-881.5c-33.9 29.2-96.6 57.4-187.7 84.3-136.9 40.5-320.6 72.7-517.3 90.7-196.7 18.1-383.2 19.8-525.1 4.8-94.4-9.9-161.2-26.2-199.9-48.7z" />
				</g>
				<g id="&lt;Group&gt;">
					<path id="&lt;Path&gt;" class="s0"
						d="m2814.7 1855c7.3 80.4-314.6 175.6-719 212.6-404.5 37.1-738.4 1.9-745.7-78.4-7.4-80.5 314.5-175.7 719-212.7 404.4-37.1 738.3-1.9 745.7 78.5z" />
					<path id="&lt;Compound Path&gt;" fill-rule="evenodd" class="s2"
						d="m1788.1 2085c-78.4 0-150.9-3.3-214.5-10-142.2-15-222.5-45.4-226.2-85.6-3.7-40.3 69.8-84.7 206.9-125.3 136-40.2 318.7-72.2 514.4-90.2 412.1-37.7 740.9-2.2 748.5 80.8 7.6 83.1-309.2 177.7-721.3 215.5-107.6 9.9-212.1 14.8-307.8 14.8zm588.5-320.7c-95.6 0-199.9 4.9-307.4 14.8-195.4 17.9-377.8 49.8-513.4 89.9-132.6 39.2-206.6 82.9-203.3 119.9 3.4 37 84.2 66.5 221.7 81 140.7 14.8 325.8 13.1 521.2-4.8 195.5-17.9 377.8-49.9 513.5-90 132.5-39.2 206.6-82.9 203.2-119.9-3.4-37-84.2-66.5-221.6-81-63.4-6.6-135.7-9.9-213.9-9.9z" />
				</g>
				<g id="&lt;Group&gt;" style="opacity: .3">
					<path id="&lt;Path&gt;" class="s2"
						d="m2629.1 1872c5.5 60-234.8 131.1-536.8 158.8-302 27.6-551.3 1.4-556.8-58.6-5.5-60.1 234.9-131.2 536.9-158.8 301.9-27.7 551.2-1.5 556.7 58.6z" />
				</g>
				<g id="&lt;Group&gt;">
					<path id="&lt;Compound Path&gt;" fill-rule="evenodd" class="s2"
						d="m1788.1 2099.8c-78.9 0-152-3.3-216-10.1-154.3-16.2-234.9-49.5-239.4-99-4.6-49.4 68.6-96.8 217.4-140.8 136.9-40.5 320.6-72.7 517.3-90.7 196.7-18 383.2-19.7 525.1-4.8 154.4 16.2 234.9 49.5 239.5 99 4.5 49.4-68.7 96.8-217.5 140.8-136.9 40.5-320.6 72.7-517.3 90.7-108 9.9-212.9 14.9-309.1 14.9zm588.5-320.7c-95.1 0-199 4.9-306 14.7-194.6 17.8-375.9 49.6-510.6 89.4-155.5 46-194.3 87.2-192.7 104.4 1.6 17.1 47.2 50.6 208.4 67.6 139.8 14.7 323.9 12.9 518.4-4.9 194.5-17.8 375.8-49.6 510.6-89.4 155.4-46 194.2-87.2 192.6-104.3-1.5-17.2-47.2-50.7-208.4-67.6-62.8-6.6-134.6-9.9-212.3-9.9z" />
				</g>
				<g id="&lt;Group&gt;">
					<path id="&lt;Path&gt;" class="s0"
						d="m1640.8 1954.2c0-0.1 0-0.1-0.1-0.2-18.5-10.9-92.2-88.2-135.2-87.9-23.6 0.2-43.8-0.9-49.7-12.1-5.5-10.5 0.2-27.7 7-49.8 5.6-17.9 7.3-28.9 7.8-33.8 0.2-1.2-1-2.1-1.9-1.5-11.3 7.4-63.2 39.8-69.5 12.7-3.5-15 15.3-63.8 18.3-111.9 8.5-139.4 12.4-167.1 12.4-167.1 0.1-1 10.6-108.4 37.7-184.6-32.1-65-144-337.7-61.5-418.8 47.1-46.2 246.7 60.4 306.1 93.8 62.9-46.4 153.2-86.6 238.2-100.4q25.8-4.2 50.7-6.1c0.5-0.1 0.9-0.1 1.3-0.1 62.5-5.1 119.5 6 174.9 18.9 215.1 50.6 347.6 230.9 347.6 230.9 31.9 43.8 57.9 83.7 78.6 125.3 10.3 20.3 19.2 41.1 26.9 62.8q0-0.1 0.4 1.1l-0.4-1.1c0 0 22.9 62.9 63.3 196.5 13.9 46.1 43.5 89.3 43.6 104.7 0.1 27.8-58 8.3-70.6 3.6-1.1-0.3-2 0.8-1.5 2 1.6 4.6 5.8 14.9 15.3 31 11.7 20 21.2 35.4 18.3 46.9-3.1 12.3-22.9 17.3-46.5 17.1-35.6-0.3-55.5 40.2-55.5 40.2-3.1 6.2-15.8 23.4-15.9 23.5-55.6 70-129.9 117.3-227.3 160.3 0 0-101 50.7-289.6 65.8-240.1 19.2-367.9-18.8-423.2-61.7z" />
					<path id="&lt;Compound Path&gt;" fill-rule="evenodd" class="s2"
						d="m1941.6 2023.7c-184.3 0-267.3-40.3-302.3-67.5-5.2-3.1-14.1-10.8-25.4-20.5-29.1-25.1-77.6-67-108.2-67q-0.1 0-0.2 0c-23.6 0.1-45.3-0.8-51.9-13.5-5.8-11-0.6-27.8 5.9-49.1l0.9-2.7c4.6-15.1 6.6-25.2 7.4-30.8-14.9 9.5-46 27.3-62 20.8-4.8-1.9-7.8-5.6-9.1-11.2-1.9-7.8 1.5-22.3 6.1-42.3 4.7-20.3 10.6-45.6 12.1-70.3 8.4-137.9 12.4-167.1 12.5-167.4 0-0.8 10.7-108.3 37.4-184.1-9.4-20-152.7-330.1-60.5-420.7 48-47.2 245.7 57.8 307.7 92.5 66.5-48.6 157.5-86.8 238-99.8 17.2-2.8 34.3-4.9 50.9-6.2 0.3-0.1 0.9-0.1 1.4-0.1 64.4-5.2 124.4 7.1 175.5 19 213.6 50.3 347.8 230.1 349.2 231.9 35.3 48.4 59.6 87.1 78.8 125.6 10.6 20.9 19.4 41.6 27 63.1q0 0 0.1 0 0 0.1 0.1 0.5c2.4 6.5 25.2 70.4 63.2 196.2 7.1 23.8 18.6 47 27.9 65.6 9.1 18.5 15.7 31.8 15.7 39.8 0.1 5.7-2.1 10.1-6.2 13.1-14.4 10.1-50.7-1-65.2-6.1 2.1 5.3 6.3 14.7 14.3 28.3l1.4 2.4c11.3 19.2 20.3 34.4 17.2 46.4-4.3 16.9-32.6 19.1-49 19-33.5-0.4-53 38.5-53.2 38.9-3.2 6.4-16 23.7-16.1 23.8-51.8 65.2-120.1 113.3-228.4 161.1-0.9 0.5-103.5 51.1-290.4 66.1-45.2 3.6-85.9 5.2-122.6 5.2zm-299.2-71.6c33.3 25.9 141 83.7 421.4 61.3 185.8-14.9 287.6-65.1 288.6-65.6 107.6-47.5 175.3-95.2 226.5-159.6 2.5-3.3 13-17.8 15.6-23 0.8-1.7 21.1-41.8 57.8-41.7 25.1 0.3 41.5-5.5 44-15.1 2.5-10-5.9-24.4-16.6-42.6l-1.4-2.4c-9.6-16.2-13.9-26.7-15.6-31.5-0.5-1.5-0.2-3.2 1-4.3 1-1 2.5-1.4 3.8-0.9 23.6 8.6 52.5 15.1 63.1 7.6 2.8-1.9 4.1-4.8 4.1-8.8 0-6.8-7.1-21-15.2-37.5-9.4-18.8-21-42.2-28.3-66.4-37-122.5-59.5-186.3-62.8-195.3l-0.4-1.2c-7.6-21.3-16.4-41.8-26.8-62.5-19-38.2-43.2-76.7-78.4-124.9-1.3-1.8-134.4-180.1-346.1-229.9-50.8-11.8-110.3-24-174.1-18.9-0.4 0-0.7 0-0.9 0.1-16.8 1.3-33.8 3.4-50.9 6.2-80.3 13-171.1 51.2-237.1 99.9l-1.3 1-1.4-0.9c-122.7-68.9-266.7-129.9-303.1-94.1-80.1 78.7 28.5 347.9 62 415.7l0.5 1-0.4 1c-26.9 75.9-37.4 182.9-37.5 183.9-0.1 0.5-4 29.7-12.5 167.2-1.5 25.2-7.4 50.7-12.1 71.1-4.2 17.9-7.8 33.4-6.2 40.1 0.9 3.8 2.8 6.3 6 7.6 12 4.8 38.7-8.2 59.6-22 1.2-0.8 2.7-0.8 4 0 1.3 0.8 2.1 2.4 1.9 4-0.6 5-2.3 16.2-7.9 34.2l-0.8 2.7c-6.3 20.2-11.2 36.1-6.4 45.2 5.3 10.2 26.4 10.9 47.4 10.7q0.1 0 0.2 0c32.5 0 80.1 41.1 111.6 68.3 10.9 9.4 19.6 16.9 24.4 19.8l0.2 0.1zm0 0l0.2 0.1z" />
				</g>
				<g id="&lt;Group&gt;" style="opacity: .3">
					<path id="&lt;Path&gt;" class="s9"
						d="m2630.7 1324.9v0.1c-0.1-0.2-0.1-0.4-0.2-0.5 0.1 0.1 0.1 0.3 0.2 0.4z" />
					<path id="&lt;Path&gt;" class="s1" d="m2637.9 1338.5l-9.9-13.5-2-10.6 7.1 9.6z" />
				</g>
				<g id="&lt;Group&gt;" style="opacity: .3">
					<path id="&lt;Path&gt;" class="s2"
						d="m1455.8 1854c5.9 11.2 26.1 12.3 49.7 12.1 43-0.3 116.7 77 135.2 87.9 0.1 0.1 0.1 0.1 0.1 0.2 55.3 42.9 183.1 80.9 423.1 61.7 188.7-15 289.7-65.8 289.7-65.8 97.4-43 171.7-90.3 227.3-160.3 0.1-0.1 12.8-17.3 15.9-23.5 0 0 19.9-40.5 55.5-40.2 23.6 0.2 43.4-4.8 46.5-17.1 2.9-11.5-6.6-26.9-18.3-46.9-4.7-8-8.2-14.6-10.6-19.8-8.4 3-19.6 4.3-31.9 4.2-35.6-0.3-55.5 40.3-55.5 40.3-3.1 6.1-15.8 23.4-15.9 23.5-55.6 69.9-129.9 117.2-227.3 160.2 0 0-101 50.8-289.7 65.9-240 19.2-367.8-18.8-423.1-61.8 0 0 0-0.1-0.1-0.1-18.5-10.9-92.2-88.2-135.2-87.9-8.4 0-16.4-0.1-23.4-0.7-1.2 5-2.7 11.1-5 18.3-6.8 22.1-12.5 39.3-7 49.8z" />
				</g>
				<g id="&lt;Group&gt;" style="opacity: .3">
					<path id="&lt;Path&gt;" class="s9"
						d="m2630.7 1325c-0.1-0.2-0.1-0.4-0.2-0.5 0.1 0.1 0.1 0.3 0.2 0.4 0 0.1 0.1 0.3 0.1 0.5z" />
					<path id="&lt;Path&gt;" class="s1" d="m2628.5 1326.4l-0.4-0.9v-0.2l-2-10.6 7.2 10z" />
				</g>
				<g id="&lt;Group&gt;" style="opacity: .3">
					<path id="&lt;Path&gt;" class="s10"
						d="m2616.4 1245.5c-0.1-0.2-0.1-0.3-0.2-0.5 0.1 0.1 0.1 0.2 0.2 0.4z" />
					<path id="&lt;Path&gt;" class="s1" d="m2624.1 1260l-10.2-13.6-3.1-16.5 8 14.5z" />
				</g>
				<g id="&lt;Group&gt;" style="opacity: .3">
					<path id="&lt;Path&gt;" class="s9"
						d="m1448.2 1780.9c4.8 2.8 11.6 4.3 19.6 5 1.8-7.5 2.5-12.6 2.8-15.5 0.2-1.2-1-2.1-1.9-1.5-3.6 2.3-11.4 7.3-20.5 12z" />
					<path id="&lt;Compound Path&gt;" fill-rule="evenodd" class="s1"
						d="m1469.8 1788.7l-2.2-0.2c-9.4-0.9-15.9-2.6-20.7-5.3l-4.1-2.4 4.2-2.2c8.2-4.2 15.6-8.8 20.3-11.9 1.2-0.8 2.7-0.8 4 0 1.3 0.8 2 2.3 1.9 3.9-0.3 3.2-1.1 8.4-2.9 15.9zm-15.8-8c3.2 1.1 7.1 1.9 11.8 2.4 1-4.5 1.6-8 2-10.6-3.7 2.4-8.5 5.3-13.8 8.2z" />
				</g>
				<g id="&lt;Group&gt;">
					<path id="&lt;Path&gt;" class="s4"
						d="m2191.3 992.9c51.4-44.7 287.2-245.1 342.7-209.4 97.2 62.6 46.4 341.8 33.4 405.2" />
				</g>
				<g id="&lt;Group&gt;" style="opacity: .5">
					<path id="&lt;Path&gt;" class="s0"
						d="m2191.3 992.9l40.1 20.9c76.1-64.8 272.1-223.9 322.1-191.7 8.7 5.6 16.2 13 22.6 21.7-9.1-26.5-22.6-47.7-42.1-60.3-55.5-35.7-291.3 164.7-342.7 209.4z" />
				</g>
				<g id="&lt;Group&gt;">
					<path id="&lt;Path&gt;" class="s2"
						d="m2567.4 1206.1q-1.7 0-3.5-0.4c-9.4-1.9-15.5-11.1-13.5-20.5 30.9-151 42.7-343-25.8-387.1-2.6-1.6-29.2-13.9-153.4 74.1-73.8 52.3-147.6 115.6-168.4 133.8-7.3 6.3-18.3 5.6-24.6-1.7-6.3-7.2-5.5-18.2 1.7-24.5 21.2-18.4 96.1-82.8 171.2-135.9 130.3-92.3 171.2-88.6 192.3-75 104.6 67.4 57.9 341 41 423.3-1.7 8.2-8.9 13.9-17 13.9z" />
				</g>
				<g id="&lt;Group&gt;">
					<path id="&lt;Path&gt;" class="s11"
						d="m2515.7 867.5c0 0 12.2-6.3 15.6 24.4 5.8 52.6 1 187-53.1 242.6 0 0-107.6-121.6-133.8-133.9-26.3-12.2 23.5-36 35.8-57.1 12.4-21.1 125.1-79.4 135.5-76z" />
					<path id="&lt;Compound Path&gt;" fill-rule="evenodd" class="s1"
						d="m2478.1 1138.3l-1.8-2.1c-1.1-1.2-107.5-121.4-133-133.3-5.4-2.5-8.4-5.7-9-9.7-1.2-8.8 9.6-18.1 22.1-28.8 8.6-7.4 17.5-15.1 21.6-22.2 12.3-21 118.4-77.3 136.9-77.3q0.2 0 0.4 0c1.7-0.6 4.6-0.9 7.5 0.7 5.7 3.1 9.4 11.8 11 26 5.9 53.3 0.5 188.8-53.8 244.7zm36.3-268.3c-12.2 0-119.4 53.5-131.9 74.8-4.6 7.9-13.8 15.8-22.7 23.5-10.4 8.9-21.2 18.2-20.3 24.2 0.3 2.1 2.3 4.1 6 5.8 24.8 11.6 117.9 115.7 132.8 132.4 51.2-55.8 56.2-186.6 50.4-238.5-1.8-16.3-6-20.8-8.3-22-1.9-1.1-3.5-0.4-3.5-0.4l-1 0.5-1-0.3q-0.2 0-0.5 0z" />
				</g>
				<g id="&lt;Group&gt;">
					<path id="&lt;Path&gt;" class="s12"
						d="m2344.4 1000.6c15.3 7.2 58.1 51.4 91.3 87.1 23.7 25.6 42.5 46.8 42.5 46.8 54.1-55.6 58.8-190 53.1-242.6-3.4-30.7-15.6-24.3-15.6-24.3-4.6-1.5-29.2 9-56.2 23-34.2 17.8-72.4 41.1-79.3 52.9-12.3 21.1-62.1 44.9-35.8 57.1z" />
				</g>
				<g id="&lt;Group&gt;" style="opacity: .3">
					<path id="&lt;Path&gt;" class="s1"
						d="m2344.4 1000.6c15.3 7.2 58.1 51.4 91.3 87.1 26.6-64.4 28.5-154.8 23.9-195.7q-0.1-0.7-0.1-1.4c-34.2 17.8-72.4 41.1-79.3 52.9-12.3 21.1-62.1 44.9-35.8 57.1z" />
				</g>
				<g id="&lt;Group&gt;">
					<path id="&lt;Compound Path&gt;" fill-rule="evenodd" class="s2"
						d="m2459.5 1128.5c-5.3-6-10.5-12.2-16-18.1-5.5-5.9-10.8-11.9-16.5-17.6-11.1-11.6-22.8-22.5-34.7-33.2-12-10.6-24.5-20.7-37.2-30.2-6.3-4.8-12.8-9.4-19.4-13.8-6.5-4.3-13.4-8.7-19.7-12.1l-12.8-7 9.3-11.8c28.6-36.4 64.7-65.2 102.8-89.6q28.7-18.1 59.3-32.9c5.1-2.4 10.2-4.8 15.4-7.1 0.4-0.2 2.1-0.9 3.2-1.3 1.3-0.4 2.6-0.7 3.9-1 2.6-0.5 5.3-0.8 8-0.6 5.3 0.4 10.5 2 15 4.9 4.4 2.9 8.2 7 10.7 11.7 0.6 1.2 1.2 2.4 1.6 3.7l0.6 1.9 0.4 1.1 1.1 4.2q2.3 8.4 4.1 16.8c4.8 22.7 6.9 45.7 7 68.8-0.3 23.1-3 46.2-8.7 68.6-2.8 11.3-6.1 21.6-9.4 32.4q-5 16.1-11.2 31.9-3 7.9-6.5 15.7-1.7 3.9-3.6 7.8l-1 1.9c-0.3 0.6-0.9 1.7-1.4 2.5-0.9 1.7-2.2 3.3-3.6 4.8-5.5 6-13.7 8.9-21.3 8.3-7.8-0.4-15-4.8-19.3-10.7zm10.5-8.3c2.6 2.6 5.9 4 9.3 3.7 3.3-0.3 6.4-1.9 8.1-4.4 0.5-0.6 0.9-1.2 1.1-1.9l0.5-1.2 0.7-1.9 2.7-7.5q2.6-7.6 4.9-15.4c5.9-20.7 11.3-42.2 15.4-63.2 4.1-20.7 5.5-41.8 4.9-62.9-0.5-21.1-3.3-42.1-8-62.7q-1.8-7.7-3.9-15.2l-1.1-3.8-0.2-0.9q-0.1 0-0.1-0.1c0 0 0 0 0-0.1-0.1-0.2-0.3-0.2-0.4-0.3-0.2-0.2-0.4-0.2-0.6-0.2-0.1 0-0.1 0.1-0.2 0-0.1 0.1-0.1 0.1-0.2 0.1-0.1 0.1 0.3-0.1-0.6 0.3-4.9 2.2-9.7 4.5-14.6 6.8-19.4 9.5-38.5 19.6-56.8 30.9-18.4 11.1-36.2 23.1-52.9 36.4-13.1 10.3-25.6 21.4-36.9 33.4 2.8 2 5.5 4 8.3 6q10.1 7.5 19.6 15.5c12.8 10.6 25 22 36.7 33.6 11.6 11.8 23 23.7 33.6 36.3 10.8 12.4 20.9 25.5 30.7 38.6zm-128.8-130c-4.1-2.9-8.3-5.7-12.9-8.6l3.6 18.8q4.5-5.2 9.3-10.2z" />
				</g>
				<g id="&lt;Group&gt;">
					<path id="&lt;Path&gt;" class="s4"
						d="m2625.1 1309.9c-86.3 38.1-189.8 55.9-298.1 13.2-245.6-96.7-249.9-320.9-234.7-434 29.1 3.7 57.2 9.7 84.9 16.2 215.2 50.6 347.7 230.9 347.7 230.9 32 43.8 57.9 83.7 78.7 125.3 7.9 15.9 15.1 31.9 21.5 48.4z" />
				</g>
				<g id="&lt;Group&gt;">
					<path id="&lt;Path&gt;" class="s13" d="" />
				</g>
				<g id="&lt;Group&gt;">
					<path id="&lt;Path&gt;" class="s0"
						d="m1784.1 1034.7c-59.3-33.4-330.9-181.7-378-135.5-82.5 81.1 44.2 382.2 69.7 441.6" />
				</g>
				<g id="&lt;Group&gt;" style="opacity: .5">
					<path id="&lt;Path&gt;" class="s0"
						d="m2737.3 1625.5c0 6.1-2.7 9.9-7.2 12.1-9.8-19.9-23.2-45.8-31.3-72.5-37.2-123.3-59.5-186.4-62.8-195.4-0.2-0.8-0.4-1.2-0.4-1.2-7.7-21.7-16.7-42.4-26.9-62.8-20.7-41.5-37.3-88.3-69.2-132.1 0 0-142-173.4-357.1-224.1-55.3-12.9-112.3-24-174.8-18.9-0.4 0-0.9 0-1.3 0.1-16.6 1.3-33.5 3.3-50.7 6.1-85.1 13.8-154.9 36.3-220 84.7l-21.3 17.4c-87.7-47.9-277.1-139.6-319.4-97.9-7.4 7.2-13.3 15.9-17.8 25.8 3.5-27.8 12.5-51.3 29-67.6 40.3-39.6 219.5 45.6 307.6 91.8l-3-4.1c71.2-51.5 154.7-80.5 239.7-94.3 17.2-2.8 34.1-4.9 50.7-6.1 0.5-0.1 0.9-0.1 1.3-0.1 62.5-5.1 119.5 6 174.9 18.9 215.1 50.6 347.6 230.9 347.6 230.9 31.9 43.8 57.9 83.8 78.6 125.3 10.3 20.4 19.2 41 26.9 62.8q0 0 0.4 1.1c3.3 9.1 25.7 72.2 62.9 195.5 13.9 46 43.5 89.2 43.6 104.6z" />
				</g>
				<g id="&lt;Group&gt;">
					<path id="&lt;Path&gt;" class="s11"
						d="m1441.1 977.8c0 0-13.2-3.7-10.3 27 5 52.6 37 183.3 101.2 226.8 0 0 80.6-141 103.9-158.3 23.2-17.3-30.4-30.5-46.8-48.6-16.3-18.2-138.6-52.4-148-46.9z" />
					<path id="&lt;Compound Path&gt;" fill-rule="evenodd" class="s1"
						d="m1532.9 1235.3l-2.3-1.6c-64.5-43.7-97.3-175.3-102.4-228.7-1.3-14.2 0.5-23.5 5.5-27.7 2.5-2.1 5.4-2.4 7.2-2.2 16.5-4.4 133.7 29.6 150.1 47.9 5.5 6.1 15.8 11.8 25.7 17.3 14.4 7.9 26.9 14.8 27.5 23.7 0.2 4-2.1 7.8-6.8 11.4-22.5 16.8-102.4 156-103.2 157.4zm-93-255c-0.7 0-1.8 0.2-2.9 1.1-2 1.8-5.1 7.1-3.6 23.3 4.9 51.9 36.3 179 97.8 223.2 11.2-19.4 81.2-140.2 103.2-156.6 3.3-2.4 4.8-4.7 4.7-6.9-0.4-6-12.8-12.9-24.8-19.5-10.3-5.8-20.9-11.6-27-18.4-16.8-18.7-136.7-50.1-144.9-46.4l-0.8 0.4-1.1-0.1c0 0-0.2-0.1-0.6-0.1z" />
				</g>
				<g id="&lt;Group&gt;">
					<path id="&lt;Path&gt;" class="s12"
						d="m1635.8 1073.3c-13.5 10.1-46.5 62.1-71.7 103.8-18 29.9-32.1 54.5-32.1 54.5-64.2-43.5-96.2-174.2-101.2-226.8-2.9-30.7 10.3-27 10.3-27 4.2-2.4 30.4 2.9 59.7 11.2 37.1 10.4 79.2 25.5 88.3 35.7 16.4 18.1 70 31.3 46.7 48.6z" />
				</g>
				<g id="&lt;Group&gt;" style="opacity: .3">
					<path id="&lt;Path&gt;" class="s1"
						d="m1635.8 1073.3c-13.5 10.1-46.5 62.1-71.7 103.8-39.1-57.6-59.3-145.8-63.2-186.8q0-0.7-0.1-1.3c37.1 10.4 79.2 25.5 88.3 35.7 16.4 18.1 70 31.3 46.7 48.6z" />
				</g>
				<g id="&lt;Group&gt;">
					<path id="&lt;Compound Path&gt;" fill-rule="evenodd" class="s2"
						d="m1549.7 1220.5c-3 6.9-10 12.5-17.8 13.7-7.8 1.5-16.6-1.3-22.3-7.4l-1.9-2.3-1.3-1.6-2.6-3.2-5.1-6.5q-5.2-6.7-10.1-13.6c-13.2-18.3-24.5-38.1-34.2-58.7-18.3-41-33.9-84.6-33.9-132.9 0.1-6.1 0.5-12 1.5-18.4 1.3-9.4 6.9-18.2 14.8-23.6 7.8-5.5 18.1-7.6 27.4-5.5 5.8 1.2 11.1 2.5 16.6 3.8q32.8 8.3 64.5 20.2c42.1 16.2 83.2 37 118.5 66.7l11.5 9.7-11.2 9.5c-5.3 4.5-11.2 10.2-16.6 15.7-5.5 5.5-10.9 11.3-16.1 17.2-10.4 11.8-20.5 24.1-30.1 36.8-9.4 12.8-18.6 25.8-27.1 39.3-4.4 6.6-8.3 13.5-12.5 20.3-4.1 6.9-7.9 13.9-11.9 20.8zm-11.9-6c6.9-14.7 14.1-29.4 22.1-43.6 7.8-14.4 16.5-28.3 25.4-42.1 9.1-13.6 18.6-27 28.9-39.9 5.1-6.4 10.4-12.8 16-19 2.2-2.5 4.5-5 6.8-7.4-13.6-9.4-27.9-17.7-42.8-25.2-19-9.6-38.8-17.8-59.1-24.9-20.1-7.3-40.8-13.3-61.7-18.6-5.1-1.3-10.5-2.6-15.5-3.7-1.5-0.4-2.9-0.1-4.1 0.7-1.3 0.8-2.1 2-2.4 3.6-0.7 4.4-1.1 9.5-1.2 14.4-0.7 20 2.4 40.9 7.4 61.4 5 20.5 11.7 40.9 19.6 61 7.7 19.8 17.4 39 28.2 57.5q4.2 6.9 8.6 13.7l8.4 13.2c1.6 2.2 4.3 3.6 7.4 3.5 3.2 0 6.2-1.6 8.1-4.5zm99.2-152.1q5.6 4 11.1 8.2l-0.3-19.1c-3.9 3.7-7.5 7.3-10.8 10.9z" />
				</g>
				<g id="&lt;Group&gt;">
					<path id="&lt;Compound Path&gt;" fill-rule="evenodd" class="s2"
						d="m1942.4 2038.5c-188.3 0-274.6-41.7-311.5-70.1-6.2-3.9-14.9-11.4-26.7-21.5-25.7-22.2-73.4-63.4-98.4-63.4q-0.1 0-0.2 0c-22.7 0.2-53.8 0.4-65.2-21.4-8.6-16.5-2.6-35.9 5-60.4l0.1-0.1c-16.3 7-32.7 10.6-45.2 5.6-9.3-3.7-15.7-11.4-18.1-21.6-2.6-11.2 0.9-26.2 6.2-49.1 4.6-19.7 10.3-44.3 11.7-67.8 8.2-132.9 12.1-164.9 12.6-168.3 1-10.7 11.3-107.3 36.1-181.4-22.1-47.9-150.5-338.2-54.9-432.1 48.3-47.6 197 18.8 317.1 85.5 67.5-47.2 157-84.1 236.6-96.9 17.4-2.9 34.7-5 51.5-6.3 1-0.1 1.8-0.2 2.4-0.2 66.4-5.3 127.6 7.2 179.7 19.4 218.9 51.5 352.1 229.9 357.7 237.5 35.9 49.1 60.6 88.6 80.2 127.8 10.7 21.4 19.8 42.5 27.6 64.5q0.1 0.3 0.3 0.8c2.6 7.2 25.5 71.5 63.3 196.8 6.9 22.6 18.1 45.2 27 63.4 10.4 21 17.3 34.8 17.3 46.3 0.1 10.5-4.4 19.4-12.5 25.2-11.1 7.7-27.9 8-45.3 4.9l0.1 0.1c13 22.1 23.3 39.6 18.7 57.6-3.5 13.8-17.1 30.1-61.9 30.1q-0.9 0-1.8 0c-23.9 0-39.4 30.4-39.6 30.7-4 8-17.5 26.2-17.6 26.3-53.4 67.2-123.3 116.6-233.7 165.4-8.4 4.1-110 52.6-295.7 67.5-45.1 3.6-86 5.2-122.9 5.2zm-290.5-97.7c32.4 24.9 136.7 79.7 410.7 57.8 182.3-14.6 282.2-63.6 283.2-64.1l0.8-0.3c105-46.4 171-92.7 220.6-155 4.9-6.7 12.5-17.6 14-20.6 1-2 25.4-50.5 71.2-49.9 18.3 0.1 27-3.1 29.6-4.9-0.4-5.5-9.1-20.4-15.1-30.4l-1.4-2.5c-10.2-17.3-14.8-28.7-16.7-34-2.5-6.9-0.7-14.7 4.4-19.8 5.1-5 12.7-6.7 19.4-4.3 22.3 8.1 39.1 10.5 46.5 9.9-2.1-6.2-8-18.2-12.9-28.1-9.6-19.3-21.5-43.4-29.1-68.7-37.2-123-59.7-186.5-62.7-194.8l-0.3-1c-7.4-20.7-15.9-40.6-26.1-60.8-18.7-37.5-42.5-75.4-77.1-122.9-1.3-1.6-131.6-175.7-337.6-224.2-51.9-12.1-107.8-23.5-169.5-18.5l-1.3 0.1c-16.1 1.2-32.6 3.2-49.3 6-78.1 12.6-166.5 49.9-230.7 97.2l-9 6.7-9.8-5.6c-143.7-80.8-261-120.4-285.4-96.5-66.5 65.3 16.7 301.1 64.9 398.7l3.2 6.6-2.4 6.9c-26.2 73.6-36.7 179.2-36.8 180.3l-0.1 0.9c-0.1 1.1-4 29.9-12.3 165.8-1.6 26.4-7.7 52.6-12.5 73.6-2.5 10.7-5.5 23.6-6.1 30.3 7.4-1.1 23.1-7.3 43-20.3 5.9-4 13.7-4.1 19.8-0.3 6.2 3.8 9.7 10.9 8.9 18.2-0.6 5.6-2.5 17.8-8.5 37l-0.8 2.7c-3.5 11.3-8.7 28.3-7.5 33.4 3.7 2.4 15.2 3.4 34.3 3.3q0.2 0 0.4 0c35 0 77.3 34 121.1 71.9 8.2 7 16.5 14.2 20.9 17.4l1.4 0.3zm-198.6-172.2q0 0 0 0 0 0 0 0z" />
				</g>
				<g id="&lt;Group&gt;">
					<g id="&lt;Group&gt;" style="opacity: .3">
						<path id="&lt;Path&gt;" class="s2"
							d="m2285.6 1710.8c-26.2 24.1-59.5 16.9-77 1.7 0 0-20.3 48.7-71.4 35.5-31.9-8.3-28.6-50.2-28.6-50.2l175.3-38c0 0 22.1 32.3 1.7 51z" />
					</g>
					<g id="&lt;Group&gt;">
						<path id="&lt;Path&gt;" class="s0"
							d="m2274.6 1648.7c0 0 20.3 29.9 1.5 47.1-24.2 22.3-56.6 5.8-72.7-8.1 0 0-19.7 52.4-64.1 42.4-29.7-6.7-26.4-46.3-26.4-46.3" />
					</g>
					<g id="&lt;Group&gt;">
						<path id="&lt;Path&gt;" class="s2"
							d="m2276.1 1647.7c4.7 3.8 8.5 8.4 11.5 13.9 3 5.4 5.3 11.7 5.4 18.9 0.2 7.2-2.5 15.5-7.7 21.3-0.6 0.8-1.3 1.6-1.9 2.2l-1.9 1.7c-1.3 1.2-2.6 2.3-4 3.4-2.8 2-5.8 3.9-9.1 5.3-6.5 2.9-13.8 4.3-20.6 4.1-6.9-0.2-13.5-1.7-19.6-3.7-12-4.5-22.5-10.9-32-18.9l17.4-4.4c-2.8 6.8-5.7 12.2-9.3 17.9-3.6 5.6-7.7 11-12.6 15.9-5 4.8-10.6 9.4-17.4 12.5-3.3 1.7-6.9 2.9-10.5 3.9-3.7 0.6-7.4 1.6-11.2 1.4h-5.6c-1.8-0.2-3.6-0.6-5.4-0.8-1.8-0.4-3.5-0.6-5.4-1.1l-5.6-2c-7.5-3.2-14.1-8.9-17.9-15.6-3.9-6.7-5.4-13.9-5.5-20.6 0-6.8 1.1-13.2 3.9-19.3 0.4-1 1.6-1.4 2.6-0.9 0.4 0.2 0.8 0.6 0.9 1l0.1 0.2c4.2 11.4 8.7 21.9 14.6 28 3 3 5.9 5 9.5 6.1q1.4 0.3 2.8 0.7c1 0.1 2.3 0.2 3.4 0.3 1.1 0.1 2.2 0.4 3.4 0.4l3.3-0.2c8.6-0.2 16.7-4.3 24.1-10.6 3.6-3.4 7-7.2 10-11.5 2.9-4.1 5.6-9.2 7.4-13.4l5.9-14.3 11.4 9.9c7.1 6.3 16 11.1 24.7 13.7 8.9 2.3 17.2 2.5 24.3-0.2 1.8-0.6 3.5-1.7 5.3-2.5 0.9-0.5 1.7-1.1 2.5-1.7l1.3-0.9c0.4-0.3 0.6-0.5 0.9-0.8 2.5-2 4.3-4.4 5.3-8.1 2.4-7.5 0.7-18.4-1.7-29.1l-0.1-0.2c-0.2-1 0.5-2 1.5-2.3 0.6-0.1 1.1 0.1 1.6 0.4z" />
					</g>
					<g id="&lt;Group&gt;" style="opacity: .3">
						<path id="&lt;Path&gt;" class="s2"
							d="m2139.3 1730.1c44.3 10 64.1-42.4 64.1-42.4 16.1 13.9 48.5 30.4 72.8 8.1 12.2-11.3 0.5-34.1-4-44.2-0.5 5.9-0.8 17.2-3.2 22.8-9.4 21.9-49.8-5.8-66-19.8 0 0-26.4 71.4-68.3 54-11.6-4.9-14.8-19.1-18.5-27.4 0.4 11.4 0.8 43.9 23.1 48.9z" />
					</g>
					<g id="&lt;Group&gt;">
						<path id="&lt;Path&gt;" class="s2"
							d="m2202.2 1628.3c2.5 4.5 4.6 8.7 6.6 13.2 2 4.5 3.9 9.1 5.5 13.9 1.6 4.8 3.1 9.7 4 15.1 0.8 5.3 1.4 11 0.6 17.5l-0.1 1.1c-0.9 7.2-7.5 12.4-14.8 11.5-7.2-0.9-12.4-7.5-11.5-14.7 0.2-1.2 0.5-2.4 1-3.5 1.1-2.7 1.7-6.3 2-10.3 0.3-3.9 0.1-8.2-0.3-12.5-0.4-4.3-1.1-8.7-1.9-13-0.9-4.4-1.9-8.9-3.1-13l-0.1-0.3c-1-3.5 1.1-7.1 4.6-8.1 3-0.9 6.1 0.5 7.5 3.1z" />
					</g>
					<g id="&lt;Group&gt;">
						<path id="&lt;Path&gt;" class="s2"
							d="m2124.7 1622.3c3.2 17.8 57.3 34.9 76.8 31.8 19.5-3.1 63.8-40.5 58.6-57.2-1.8-5.8-23.1-22.1-77.9-11.5-44.8 8.8-58.8 29.7-57.5 36.9z" />
					</g>
					<g id="&lt;Group&gt;" style="opacity: .7">
						<path id="&lt;Path&gt;" class="s0"
							d="m2177.5 1601c-1.3 7.3 13.2 10.6 26.3 8.6 5.6-0.9 21.8-6.5 22.5-11.9 0.6-5.4-5.5-8.8-24.3-6.1-17.5 2.6-23.7 4.5-24.5 9.4z" />
						<path id="&lt;Compound Path&gt;" fill-rule="evenodd" class="s1"
							d="m2196.1 1612.7c-7.5 0-15.1-1.5-18.9-5.4-1.9-1.9-2.7-4.3-2.3-6.7 1.2-7 9.5-9 26.7-11.5 13.1-1.9 21.3-1.1 25.1 2.6 1.7 1.6 2.4 3.8 2.1 6.3-1 8.3-21.8 13.7-24.6 14.1-2.6 0.4-5.3 0.6-8.1 0.6zm-16.1-11.3c-0.1 0.6-0.1 1.3 0.8 2.3 3.3 3.3 13.2 4.8 22.6 3.3 7.1-1.1 20-6.8 20.3-9.6 0.1-1.1-0.2-1.7-0.6-2-1.2-1.1-5.4-3.4-20.7-1.2-16.2 2.3-21.9 4.2-22.4 7.2z" />
					</g>
				</g>
				<g id="&lt;Group&gt;">
					<path id="&lt;Path&gt;" class="s14"
						d="m1917.9 894.2c6.6 51-29.4 97.8-80.4 104.4-51.1 6.6-97.9-29.4-104.5-80.4-6.6-51.1 29.4-97.9 80.5-104.5 51-6.6 97.8 29.4 104.4 80.5z" />
					<path id="&lt;Compound Path&gt;" fill-rule="evenodd" class="s1"
						d="m1825.3 1002c-21.1 0-41.4-6.9-58.3-19.9-20.3-15.7-33.3-38.2-36.6-63.6-3.2-25.4 3.5-50.5 19.2-70.8 15.6-20.3 38.1-33.2 63.5-36.5 25.4-3.3 50.5 3.4 70.8 19.1 20.3 15.6 33.3 38.2 36.6 63.5 3.2 25.4-3.5 50.5-19.2 70.8-15.6 20.3-38.1 33.3-63.5 36.6q-6.3 0.8-12.5 0.8zm0.3-186.5q-5.9 0-11.8 0.8c-24 3.1-45.4 15.4-60.2 34.5-14.7 19.2-21.2 43-18 67 3.1 24 15.4 45.4 34.5 60.2 19.2 14.8 43 21.2 67 18.1 24-3.2 45.4-15.4 60.2-34.6 14.7-19.2 21.2-43 18-67-3.1-24-15.3-45.4-34.5-60.2-16-12.3-35.3-18.8-55.2-18.8z" />
				</g>
				<g id="&lt;Group&gt;" style="opacity: .5">
					<path id="&lt;Path&gt;" class="s0"
						d="m1917.9 894.2c0.7 5.4 0.9 10.8 0.7 16-13.2-42.5-55.4-70.7-101-64.7-45.7 5.9-79.3 43.9-81.1 88.4-1.6-5-2.8-10.3-3.5-15.7-6.6-51.1 29.4-97.9 80.5-104.5 51-6.6 97.8 29.4 104.4 80.5z" />
				</g>
				<g id="&lt;Group&gt;" style="opacity: .3">
					<path id="&lt;Path&gt;" class="s1"
						d="m1917.9 894.2c6.6 51-29.4 97.8-80.4 104.4-51.1 6.6-97.9-29.4-104.5-80.4-1.7-13.3-0.5-26.3 3-38.4 18.5 30.7 54 49.2 91.8 44.3 37.8-4.9 67.3-31.9 77.4-66.2 6.5 10.7 11 23 12.7 36.3z" />
				</g>
				<g id="&lt;Group&gt;">
					<path id="&lt;Compound Path&gt;" fill-rule="evenodd" class="s2"
						d="m1825.2 1016.8c-24.2 0-47.7-8-67.2-23-23.4-18-38.4-44.1-42.2-73.4-3.8-29.3 4-58.3 22-81.7 18.1-23.4 44.1-38.4 73.4-42.2 29.3-3.8 58.3 4 81.7 22 23.5 18.1 38.4 44.1 42.2 73.4 3.8 29.3-4 58.3-22 81.7-18.1 23.5-44.1 38.4-73.4 42.2q-7.3 1-14.5 1zm0.4-186.5q-4.9 0-9.9 0.6c-20.1 2.6-38 12.9-50.3 29-12.4 16-17.8 35.9-15.2 56 2.6 20.1 12.9 38 29 50.3 16 12.4 35.9 17.8 56 15.2 20.1-2.6 38-12.9 50.3-29 12.4-16 17.8-35.9 15.2-56-2.6-20.1-12.9-38-29-50.3-13.4-10.4-29.5-15.8-46.1-15.8z" />
				</g>
				<g id="&lt;Group&gt;">
					<path id="&lt;Path&gt;" class="s12"
						d="m2054.2 789c6.6 51-29.4 97.8-80.5 104.4-51 6.6-97.8-29.4-104.4-80.4-6.7-51.1 29.4-97.9 80.4-104.5 51.1-6.6 97.8 29.4 104.5 80.5z" />
				</g>
				<g id="&lt;Group&gt;" style="opacity: .5">
					<path id="&lt;Path&gt;" class="s0"
						d="m2054.2 789c0.7 5.4 0.9 10.8 0.6 16-13.1-42.5-55.3-70.6-100.9-64.7-45.7 5.9-79.3 43.9-81.2 88.4-1.6-5-2.7-10.3-3.4-15.7-6.6-51.1 29.4-97.9 80.4-104.5 51.1-6.6 97.8 29.4 104.5 80.5z" />
				</g>
				<g id="&lt;Group&gt;" style="opacity: .3">
					<path id="&lt;Path&gt;" class="s1"
						d="m2054.2 789c6.6 51-29.4 97.8-80.5 104.4-51 6.7-97.8-29.4-104.4-80.4-1.7-13.3-0.6-26.3 3-38.3 18.5 30.6 54 49.1 91.8 44.2 37.8-4.9 67.3-31.8 77.4-66.2 6.5 10.7 11 23 12.7 36.3z" />
				</g>
				<g id="&lt;Group&gt;">
					<path id="&lt;Compound Path&gt;" fill-rule="evenodd" class="s2"
						d="m1961.5 911.6c-24.3 0-47.7-8-67.3-23-23.4-18-38.4-44.1-42.2-73.4-3.8-29.3 4.1-58.3 22.1-81.7 18-23.4 44.1-38.4 73.4-42.2 29.3-3.8 58.3 4 81.7 22 23.4 18.1 38.4 44.1 42.2 73.4 3.8 29.3-4 58.4-22.1 81.8-18 23.4-44 38.4-73.3 42.2q-7.3 0.9-14.5 0.9zm0.4-186.5q-5 0-9.9 0.7c-20.1 2.6-38 12.8-50.4 28.9-12.3 16-17.7 35.9-15.1 56 2.6 20.1 12.9 38 28.9 50.4 16.1 12.3 36 17.7 56.1 15.1 20.1-2.6 37.9-12.9 50.3-28.9 12.4-16.1 17.7-36 15.1-56.1-2.6-20.1-12.8-38-28.9-50.3-13.4-10.3-29.5-15.8-46.1-15.8z" />
				</g>
				<g id="&lt;Group&gt;">
					<path id="&lt;Path&gt;" class="s14"
						d="m2230.6 873.7c6.7 51-29.3 97.8-80.4 104.4-51.1 6.6-97.8-29.4-104.5-80.4-6.6-51.1 29.4-97.9 80.5-104.5 51.1-6.6 97.8 29.4 104.4 80.5z" />
					<path id="&lt;Compound Path&gt;" fill-rule="evenodd" class="s1"
						d="m2138 981.5c-21 0-41.3-6.9-58.3-19.9-20.2-15.7-33.2-38.2-36.5-63.6-3.3-25.4 3.5-50.5 19.1-70.8 15.6-20.3 38.2-33.2 63.6-36.5 25.4-3.3 50.5 3.5 70.8 19.1 20.2 15.6 33.2 38.2 36.5 63.5 3.3 25.4-3.5 50.5-19.1 70.8-15.6 20.3-38.2 33.3-63.6 36.6q-6.3 0.8-12.5 0.8zm0.4-186.5q-5.9 0-11.9 0.8c-24 3.1-45.3 15.4-60.1 34.5-14.8 19.2-21.2 43-18.1 67 3.1 24 15.4 45.4 34.6 60.2 19.2 14.8 43 21.2 67 18.1 24-3.2 45.3-15.4 60.1-34.6 14.8-19.2 21.2-43 18.1-67-3.1-24-15.4-45.4-34.6-60.2-16-12.3-35.2-18.8-55.1-18.8z" />
				</g>
				<g id="&lt;Group&gt;" style="opacity: .5">
					<path id="&lt;Path&gt;" class="s0"
						d="m2230.6 873.7c0.7 5.4 1 10.8 0.7 16-13.1-42.5-55.3-70.7-101-64.7-45.6 5.9-79.3 43.9-81.1 88.4-1.6-5-2.7-10.3-3.4-15.7-6.7-51.1 29.3-97.9 80.4-104.5 51.1-6.6 97.8 29.4 104.4 80.5z" />
				</g>
				<g id="&lt;Group&gt;" style="opacity: .3">
					<path id="&lt;Path&gt;" class="s1"
						d="m2230.6 873.7c6.7 51-29.3 97.8-80.4 104.4-51.1 6.6-97.8-29.4-104.4-80.4-1.8-13.3-0.6-26.3 2.9-38.4 18.6 30.7 54 49.2 91.8 44.3 37.8-4.9 67.4-31.9 77.5-66.2 6.5 10.7 10.9 23 12.6 36.3z" />
				</g>
				<g id="&lt;Group&gt;">
					<path id="&lt;Compound Path&gt;" fill-rule="evenodd" class="s2"
						d="m2138 996.3c-24.3 0-47.8-8-67.3-23-23.4-18-38.4-44.1-42.2-73.4-3.8-29.3 4-58.3 22.1-81.7 18-23.4 44.1-38.4 73.4-42.2 29.3-3.8 58.3 4 81.7 22 23.4 18.1 38.4 44.1 42.2 73.4 3.8 29.3-4.1 58.3-22.1 81.8-18 23.4-44.1 38.3-73.4 42.1q-7.2 1-14.4 1zm0.3-186.5q-4.9 0-9.9 0.6c-20.1 2.7-37.9 12.9-50.3 29-12.4 16-17.7 35.9-15.1 56 2.6 20.1 12.9 38 28.9 50.3 16.1 12.4 36 17.8 56.1 15.2 20-2.6 37.9-12.9 50.3-29 12.3-16 17.7-35.9 15.1-56-2.6-20.1-12.9-38-28.9-50.3-13.4-10.3-29.5-15.8-46.2-15.8z" />
				</g>
				<g id="&lt;Group&gt;">
					<path id="&lt;Path&gt;" class="s14"
						d="m2063.6 920.8c6.7 51.1-29.4 97.8-80.4 104.4-51.1 6.7-97.8-29.3-104.5-80.4-6.6-51.1 29.4-97.8 80.5-104.5 51.1-6.6 97.8 29.4 104.4 80.5z" />
					<path id="&lt;Compound Path&gt;" fill-rule="evenodd" class="s1"
						d="m1971 1028.6c-21 0-41.3-6.9-58.3-19.9-20.2-15.6-33.2-38.2-36.5-63.6-6.8-52.4 30.3-100.5 82.7-107.3 52.4-6.8 100.5 30.3 107.3 82.7 6.8 52.3-30.3 100.5-82.7 107.3q-6.3 0.8-12.5 0.8zm0.3-186.5q-5.9 0-11.8 0.8c-49.6 6.4-84.6 52-78.2 101.6 6.4 49.5 52 84.6 101.6 78.2 49.5-6.4 84.6-52 78.2-101.6-5.9-45.6-45-79-89.8-79z" />
				</g>
				<g id="&lt;Group&gt;" style="opacity: .5">
					<path id="&lt;Path&gt;" class="s0"
						d="m2063.6 920.8c0.7 5.4 1 10.8 0.7 16.1-13.1-42.6-55.3-70.7-101-64.8-45.6 5.9-79.3 43.9-81.1 88.4-1.6-5-2.7-10.3-3.4-15.7-6.7-51.1 29.3-97.8 80.4-104.5 51.1-6.6 97.8 29.4 104.4 80.5z" />
				</g>
				<g id="&lt;Group&gt;" style="opacity: .3">
					<path id="&lt;Path&gt;" class="s2"
						d="m2063.6 920.8c6.7 51.1-29.3 97.8-80.4 104.4-51.1 6.7-97.8-29.3-104.4-80.4-1.8-13.3-0.6-26.3 2.9-38.3 18.6 30.6 54 49.1 91.8 44.2 37.8-4.9 67.4-31.8 77.5-66.2 6.5 10.8 10.9 23 12.6 36.3z" />
				</g>
				<g id="&lt;Group&gt;">
					<path id="&lt;Compound Path&gt;" fill-rule="evenodd" class="s2"
						d="m1971.1 1043.4c-54.7 0-102.4-40.7-109.6-96.4-7.8-60.4 35-116 95.5-123.9 29.3-3.8 58.3 4 81.7 22.1 23.4 18 38.4 44.1 42.2 73.4 7.8 60.4-35 116-95.5 123.9q-7.2 0.9-14.3 0.9zm0.2-186.5q-4.9 0-9.9 0.7c-41.4 5.4-70.8 43.5-65.4 85 2.6 20 12.9 37.9 28.9 50.3 16.1 12.3 36 17.7 56.1 15.1 41.4-5.4 70.8-43.5 65.4-85-2.6-20.1-12.9-37.9-28.9-50.3-13.4-10.3-29.5-15.8-46.2-15.8z" />
				</g>
				<g id="&lt;Group&gt;">
					<g id="&lt;Group&gt;">
						<path id="&lt;Path&gt;" class="s0"
							d="m1638.2 2421c-8.5 49.9-51.3 202.7-184.9 295.6-98.7 68.6-335.1 66.8-372.2-33.3-35.5-95.9 107.9-138.3 174.1-193.2 189-156.6 203.1-230.1 223.4-254.5 66.3-80 189.6 9.8 159.6 185.4z" />
						<path id="&lt;Compound Path&gt;" fill-rule="evenodd" class="s15"
							d="m1267.8 2766.4c-36.4 0-72.2-4.6-103.1-14.3-45-14.2-74.8-37.6-86-67.9-26.8-72.3 46.1-115.5 110.4-153.6 24.1-14.4 46.9-27.9 64.5-42.4 149.9-124.3 190.2-197.3 209.5-232.4 5.3-9.7 9.2-16.7 13.5-21.9 24.5-29.5 58.7-38.1 91.4-23.1 48.6 22.3 92 97.7 72.7 210.6-3.3 19.5-36.8 193.7-185.9 297.3-44.1 30.6-116.7 47.7-187 47.7zm268.4-557.7c-20.5 0-40.1 9.8-55.6 28.5-4 4.8-7.8 11.7-13 21.1-19.5 35.3-60 108.9-210.7 233.8-17.9 14.8-40.9 28.5-65.2 42.9-65.6 38.9-133.4 79.2-108.2 147.4 10.7 28.7 39.3 51.1 82.8 64.8 89 28 219.7 13 285.5-32.7 147.4-102.5 180.6-274.7 183.9-294 18.8-110.2-23-183.5-69.8-205-9.9-4.5-19.9-6.8-29.7-6.8z" />
					</g>
					<g id="&lt;Group&gt;">
						<path id="&lt;Compound Path&gt;" fill-rule="evenodd" class="s2"
							d="m1268.7 2781.5c-38.1 0-75.6-5-108.4-15.3-49.6-15.5-82.6-42.2-95.5-76.9-31-83.8 50.9-132.4 116.7-171.5 23.6-14 45.9-27.2 62.6-41 147.8-122.5 187.1-193.9 206-228.1 5.5-10 9.9-17.9 15.1-24.2 29-35 69.8-45.2 109-27.1 53.5 24.5 101.7 105.9 81.1 226.5-3.4 20.1-38 199.9-192.1 306.9-46.9 32.6-121.6 50.7-194.5 50.7zm267.2-558.1c-16.1 0-31.2 7.9-43.9 23.3-3.1 3.7-6.8 10.3-11.4 18.7-20 36.2-61.4 111.4-214.3 238.1-18.8 15.6-42.2 29.5-67 44.2-74.2 44-121.4 76.8-101.9 129.5 11.4 30.7 46.1 47.3 73.3 55.9 85.3 26.8 210.1 12.7 272.7-30.8 142.4-99 174.5-265.6 177.7-284.3 17.5-102.5-19.6-169.8-61.4-189.1-8.1-3.7-16.1-5.5-23.8-5.5zm102.3 197.5h0.1z" />
					</g>
					<g id="&lt;Group&gt;">
						<path id="&lt;Path&gt;" class="s2"
							d="m1297.9 2642.7c-9.4 7-17.4 15.5-24.2 24.5-6.8 9-12 18.9-15.2 29-0.7 2.5-1.7 5-2 7.6l-1.3 7.6c-0.2 2.5-0.1 5.1-0.2 7.6-0.2 2.5 0.2 5 0.5 7.5 0.7 9.8 4.6 19.3 8.5 28.2l0.6 1.3c3.9 8.9-0.2 19.4-9.2 23.3-8.9 3.9-19.4-0.1-23.3-9.1-0.6-1.4-1.1-3-1.3-4.4l-1.5-10.1c-0.5-3.3-1.2-6.6-1-10l-0.1-10.2c-0.1-3.3 0.7-6.7 1.1-10 0.4-3.4 0.8-6.6 1.9-9.9 0.9-3.2 1.7-6.4 2.8-9.5l3.9-9c1.3-3 3.2-5.6 4.8-8.4 6.7-10.9 15.3-20.1 24.7-27.6 9.4-7.6 19.6-13.9 30.5-18.4z" />
					</g>
					<g id="&lt;Group&gt;">
						<path id="&lt;Path&gt;" class="s2"
							d="m1195.2 2616.9c-10.4 6.4-19.7 14.3-27.8 23-8 8.6-14.7 18.3-19.1 28.5-4.5 10.2-6.4 20.8-5.9 31 0.5 10.2 3.5 20.1 7.9 29.4 4.1 8.8 0.4 19.3-8.5 23.5-8.8 4.1-19.3 0.3-23.4-8.5q-1-1.9-1.4-3.9l-0.1-0.5c-2.7-13.8-3.4-28.5-0.6-42.5 2.8-13.9 8.8-26.9 17-37.5 8.1-10.7 18-19.3 28.5-26.2 10.5-6.9 21.7-12.5 33.4-16.3z" />
					</g>
					<g id="&lt;Group&gt;" style="opacity: .3">
						<path id="&lt;Path&gt;" class="s2"
							d="m1627.5 2428.7c0 0-40.6 195-174.2 287.9-98.7 68.6-335.1 66.8-372.2-33.4-8.1-22-6.7-40.2 1.1-55.7 67.4 71.4 265.9 66.3 354.2 4.9 93.2-64.7 156.5-221.9 186.3-311.1 3.8-11.3 20.6-8.7 20.8 3.2l0.8 44.5z" />
					</g>
				</g>
				<g id="&lt;Group&gt;">
					<path id="&lt;Path&gt;" class="s2"
						d="m1830.2 1645.5c-3.8-13.9-4.3-27.7-3.1-42 1.4-14.2 5.2-28.7 12.6-42.2 7.3-13.5 18.4-25.8 32-34.1 13.5-8.4 29-13.2 43.5-14.8 14.9-1.9 30.5-1.5 45.6 2.9 15.1 4.2 29.1 12.5 39.9 23.3 11 10.7 19 23.7 24 37.3 5 13.5 7.3 27.8 6.6 41.7-0.2 3.4-3 5.9-6.4 5.8-2.6-0.2-4.8-1.9-5.5-4.3v-0.1c-7.4-24-20.6-45.1-38.2-58-8.8-6.4-18.5-10.9-28.8-12.9-10.3-2.1-21.2-1.9-32.2-0.3-22.5 3.2-40.5 12.8-53.3 30.4-12.9 17.4-20.4 41.7-24.7 66.3l-0.1 0.5c-0.6 3.3-3.8 5.5-7.1 4.9-2.4-0.4-4.2-2.2-4.8-4.4z" />
				</g>
				<g id="&lt;Group&gt;">
					<path id="&lt;Path&gt;" class="s2"
						d="m2498.8 1509.4c-13.6-20-29-39.1-46.6-50.8-17.7-12-36.4-15.3-56.9-10.4-10.2 2.3-19.6 6-27.4 11.7-7.9 5.6-14.4 13.2-19.2 22.4-9.6 18.5-12.2 42.4-9.5 66.5v0.1c0.4 3.3-2 6.3-5.3 6.7-2.6 0.3-5-1.1-6.1-3.2-6.2-11.9-9.9-25.2-11.3-39.1-1.4-13.8-0.1-28.4 4.7-42.4 4.8-14.1 13.6-27.5 25.5-37.5 11.8-10.1 26.1-16.5 40.3-20 14-3.7 30.1-4.7 45.2-1 15.3 3.4 29 11.4 39.9 21.1 11 9.8 19.2 21.5 25.5 33.6 6.1 12.3 10.6 24.7 12.5 38.5 0.5 3.3-1.8 6.4-5.2 6.8-2.4 0.4-4.6-0.7-5.9-2.6z" />
				</g>
			</g>
		</g>
	</g>
</svg>