<?xml version="1.0" standalone="yes"?><svg
    xmlns="http://www.w3.org/2000/svg"
    width="512"
    height="512"
>
    <path d="m313 61 1 1-1-1z" style="fill: #737d87; stroke: none" />
    <path d="M314 61v1h5l-5-1z" style="fill: #ff738a; stroke: none" />
    <path
        d="m319.667 61.333.666.334-.666-.334z"
        style="fill: #737d87; stroke: none"
    />
    <path d="m311 62-1 2 1-2z" style="fill: #ff738a; stroke: none" />
    <path
        d="M214 182c15.123-7.154 29.079-18.719 43-28 9.176-6.117 20.671-11.71 28.482-19.518 9.029-9.025 15.944-21.968 23.177-32.482 5.235-7.61 28.027-30.965 13.297-38.821-12.87-6.864-24.907 15.899-31.345 23.821-25.396 31.252-53.893 61.776-76.611 95z"
        style="fill: #c3cfd9; stroke: none"
    />
    <path d="m321 62 1 1-1-1z" style="fill: #ff738a; stroke: none" />
    <path
        d="m322 62 1 1-1-1m-13 1 1 1-1-1m14 0 1 1-1-1m-15 1 1 1-1-1m16 0 1 1-1-1m1 1 1 1-1-1z"
        style="fill: #737d87; stroke: none"
    />
    <path
        d="m307 66 1 1-1-1m-1 1 1 1-1-1z"
        style="fill: #ff738a; stroke: none"
    />
    <path
        d="m326 67 1 1-1-1m-21 1 1 1-1-1m-1 1 1 1-1-1m23 0v6h1l-1-6m-24 1 1 1-1-1z"
        style="fill: #737d87; stroke: none"
    />
    <path
        d="m303 71 1 1-1-1m-1 1 1 1-1-1z"
        style="fill: #ff738a; stroke: none"
    />
    <path
        d="m301 73 1 1-1-1m-1 1 1 1-1-1m-1 1 1 1-1-1z"
        style="fill: #737d87; stroke: none"
    />
    <path
        d="m326 75 1 1-1-1m-27 1 1 1-1-1z"
        style="fill: #ff738a; stroke: none"
    />
    <path d="m326 76 1 1-1-1z" style="fill: #737d87; stroke: none" />
    <path
        d="m298 77 1 1-1-1m27 0 1 1-1-1m-28 1 1 1-1-1z"
        style="fill: #ff738a; stroke: none"
    />
    <path
        d="m325 78 1 1-1-1m-29 1 1 1-1-1z"
        style="fill: #737d87; stroke: none"
    />
    <path d="m324 79 1 1-1-1z" style="fill: #ff738a; stroke: none" />
    <path d="m295 80 1 1-1-1z" style="fill: #737d87; stroke: none" />
    <path
        d="m323 80 1 1-1-1m-28 1 1 1-1-1z"
        style="fill: #ff738a; stroke: none"
    />
    <path d="m323 81 1 1-1-1z" style="fill: #737d87; stroke: none" />
    <path d="m294 82 1 1-1-1z" style="fill: #ff738a; stroke: none" />
    <path d="m322 82 1 1-1-1z" style="fill: #737d87; stroke: none" />
    <path
        d="m293 83 1 1-1-1m28 0 1 1-1-1z"
        style="fill: #ff738a; stroke: none"
    />
    <path
        d="m292 84 1 1-1-1m29 0 1 1-1-1m-30 1 1 1-1-1m29 0 1 1-1-1z"
        style="fill: #737d87; stroke: none"
    />
    <path
        d="m319 86 1 1-1-1m-29 1 1 1-1-1m-1 1 1 1-1-1z"
        style="fill: #ff738a; stroke: none"
    />
    <path
        d="m318 88 1 1-1-1m-30 1 1 1-1-1z"
        style="fill: #737d87; stroke: none"
    />
    <path d="m317 89 1 1-1-1z" style="fill: #ff738a; stroke: none" />
    <path d="m287 90 1 1-1-1z" style="fill: #737d87; stroke: none" />
    <path d="m316 90 1 1-1-1z" style="fill: #ff738a; stroke: none" />
    <path
        d="m286 91 1 1-1-1m30 0 1 1-1-1z"
        style="fill: #737d87; stroke: none"
    />
    <path d="m286 92 1 1-1-1z" style="fill: #ff738a; stroke: none" />
    <path d="m315 92 1 1-1-1z" style="fill: #737d87; stroke: none" />
    <path
        d="m285 93 1 1-1-1m29 0 1 1-1-1z"
        style="fill: #ff738a; stroke: none"
    />
    <path
        d="m284 94 1 1-1-1m-1 1 1 1-1-1m30 0 1 1-1-1m-31 1 1 1-1-1z"
        style="fill: #737d87; stroke: none"
    />
    <path
        d="m312 96 1 1-1-1m-30 1 1 1-1-1m29 0 1 1-1-1m-30 1 1 1-1-1z"
        style="fill: #ff738a; stroke: none"
    />
    <path d="m311 98 1 1-1-1z" style="fill: #737d87; stroke: none" />
    <path
        d="m280 99 1 1-1-1m30 0 1 1-1-1z"
        style="fill: #ff738a; stroke: none"
    />
    <path d="m279 100 1 1-1-1z" style="fill: #737d87; stroke: none" />
    <path d="m309 100 1 1-1-1z" style="fill: #ff738a; stroke: none" />
    <path
        d="m278 101 1 1-1-1m31 0 1 1-1-1z"
        style="fill: #737d87; stroke: none"
    />
    <path d="m278 102 1 1-1-1z" style="fill: #ff738a; stroke: none" />
    <path d="m308 102 1 1-1-1z" style="fill: #737d87; stroke: none" />
    <path
        d="m277 103 1 1-1-1m30 0 1 1-1-1m-31 1 1 1-1-1z"
        style="fill: #ff738a; stroke: none"
    />
    <path
        d="m275 105 1 1-1-1m31 0 1 1-1-1m52 0v1h4l-4-1m-84 1 1 1-1-1z"
        style="fill: #737d87; stroke: none"
    />
    <path d="m305 106 1 1-1-1z" style="fill: #ff738a; stroke: none" />
    <path d="m355 106 1 1-1-1z" style="fill: #737d87; stroke: none" />
    <path
        d="M177 225v1c16.102-1.271 32.04-.973 48 2 18.68-27.686 45.026-33.519 72-49.221 13.478-7.846 25.567-19.491 38-28.909 9.056-6.859 18.127-13.781 27-20.874 3.902-3.119 8.439-6.56 8.717-11.996.403-7.868-7.693-12.628-14.717-10.298-11.809 3.917-23.664 15.074-34 21.965-47.812 31.874-94.812 68.392-145 96.333z"
        style="fill: #c3cfd9; stroke: none"
    />
    <path
        d="m364 106 1 1-1-1m-91 1 1 1-1-1z"
        style="fill: #737d87; stroke: none"
    />
    <path d="m304 107 1 1-1-1z" style="fill: #ff738a; stroke: none" />
    <path
        d="m353 107 1 1-1-1m13 0 1 1-1-1z"
        style="fill: #737d87; stroke: none"
    />
    <path d="m273 108 1 1-1-1z" style="fill: #ff738a; stroke: none" />
    <path
        d="m304 108 1 1-1-1m48 0 1 1-1-1m15 0 1 1-1-1z"
        style="fill: #737d87; stroke: none"
    />
    <path
        d="m272 109 1 1-1-1m31 0 1 1-1-1z"
        style="fill: #ff738a; stroke: none"
    />
    <path
        d="m368 109 1 1-1-1m-97 1 1 1-1-1z"
        style="fill: #737d87; stroke: none"
    />
    <path d="m302 110 1 1-1-1z" style="fill: #ff738a; stroke: none" />
    <path
        d="m349 110 1 1-1-1m20 0 1 1-1-1m-99 1 1 1-1-1m32 0 1 1-1-1m45 0 1 1-1-1m-78 1 1 1-1-1m32 0 1 1-1-1m45 0 1 1-1-1m24 0 1 1-1-1z"
        style="fill: #737d87; stroke: none"
    />
    <path
        d="m269 113 1 1-1-1m31 0 1 1-1-1z"
        style="fill: #ff738a; stroke: none"
    />
    <path d="m370 113 1 1-1-1z" style="fill: #69c3ff; stroke: none" />
    <path d="m268 114 1 1-1-1z" style="fill: #ff738a; stroke: none" />
    <path d="m343 114 1 1-1-1z" style="fill: #737d87; stroke: none" />
    <path d="m267 115 1 1-1-1z" style="fill: #ff738a; stroke: none" />
    <path
        d="m299 115 1 1-1-1m42 0 1 1-1-1m-75 1 1 1-1-1z"
        style="fill: #737d87; stroke: none"
    />
    <path d="m298 116 1 1-1-1z" style="fill: #ff738a; stroke: none" />
    <path
        d="m340 116 1 1-1-1m-75 1 1 1-1-1z"
        style="fill: #737d87; stroke: none"
    />
    <path d="m297 117 1 1-1-1z" style="fill: #ff738a; stroke: none" />
    <path d="m338 117 1 1-1-1z" style="fill: #737d87; stroke: none" />
    <path d="m265 118 1 1-1-1z" style="fill: #ff738a; stroke: none" />
    <path
        d="m297 118 1 1-1-1m40 0 1 1-1-1z"
        style="fill: #737d87; stroke: none"
    />
    <path d="m264 119 1 1-1-1z" style="fill: #ff738a; stroke: none" />
    <path d="m296 119 1 1-1-1z" style="fill: #737d87; stroke: none" />
    <path d="m370 119 1 1-1-1z" style="fill: #69c3ff; stroke: none" />
    <path
        d="m263 120 1 1-1-1m32 0 1 1-1-1z"
        style="fill: #ff738a; stroke: none"
    />
    <path
        d="m334 120 1 1-1-1m36 0 1 1-1-1m-108 1 1 1-1-1m33 0 1 1-1-1m37 0 1 1-1-1m-71 1 1 1-1-1m33 0 1 1-1-1m37 0 1 1-1-1m38 0 1 1-1-1z"
        style="fill: #737d87; stroke: none"
    />
    <path d="m293 123 1 1-1-1z" style="fill: #ff738a; stroke: none" />
    <path
        d="m329 123 1 1-1-1m39 0 1 1-1-1z"
        style="fill: #737d87; stroke: none"
    />
    <path d="m260 124 1 1-1-1z" style="fill: #ff738a; stroke: none" />
    <path
        d="m328 124 1 1-1-1m39 0 1 1-1-1z"
        style="fill: #737d87; stroke: none"
    />
    <path d="m259 125 1 1-1-1z" style="fill: #ff738a; stroke: none" />
    <path
        d="m292 125 1 1-1-1m34 0 1 1-1-1m40 0 1 1-1-1m-108 1 1 1-1-1z"
        style="fill: #737d87; stroke: none"
    />
    <path d="m291 126 1 1-1-1z" style="fill: #ff738a; stroke: none" />
    <path
        d="m325 126 1 1-1-1m-68 1 1 1-1-1z"
        style="fill: #737d87; stroke: none"
    />
    <path d="m290 127 1 1-1-1z" style="fill: #ff738a; stroke: none" />
    <path d="m323 127 1 1-1-1z" style="fill: #737d87; stroke: none" />
    <path d="m363 127 1 1-1-1z" style="fill: #ff738a; stroke: none" />
    <path
        d="m256 128 1 1-1-1m34 0 1 1-1-1m32 0 1 1-1-1m40 0 1 1-1-1z"
        style="fill: #737d87; stroke: none"
    />
    <path d="m256 129 1 1-1-1z" style="fill: #ff738a; stroke: none" />
    <path
        d="m289 129 1 1-1-1m31 0 1 1-1-1m41 0 1 1-1-1z"
        style="fill: #737d87; stroke: none"
    />
    <path
        d="m255 130 1 1-1-1m33 0 1 1-1-1z"
        style="fill: #ff738a; stroke: none"
    />
    <path
        d="m319 130 1 1-1-1m-65 1 1 1-1-1m34 0 1 1-1-1m29 0 1 1-1-1m41 0 1 1-1-1m-105 1 1 1-1-1m34 0 1 1-1-1m29 0 1 1-1-1m41 0 1 1-1-1m-105 1 1 1-1-1z"
        style="fill: #737d87; stroke: none"
    />
    <path d="m286 133 1 1-1-1z" style="fill: #ff738a; stroke: none" />
    <path d="m314 133 1 1-1-1z" style="fill: #737d87; stroke: none" />
    <path d="m252 134 1 1-1-1z" style="fill: #ff738a; stroke: none" />
    <path d="m313 134 1 1-1-1z" style="fill: #737d87; stroke: none" />
    <path d="m354 134 1 1-1-1z" style="fill: #69c3ff; stroke: none" />
    <path
        d="m251 135 1 1-1-1m33 0 1 1-1-1z"
        style="fill: #ff738a; stroke: none"
    />
    <path
        d="m311 135 1 1-1-1m42 0 1 1-1-1z"
        style="fill: #737d87; stroke: none"
    />
    <path d="m250 136 1 1-1-1z" style="fill: #ff738a; stroke: none" />
    <path
        d="m283 136 1 1-1-1m27 0 1 1-1-1m42 0 1 1-1-1m-103 1 1 1-1-1z"
        style="fill: #737d87; stroke: none"
    />
    <path d="m281 137 1 1-1-1z" style="fill: #ff738a; stroke: none" />
    <path d="m308 137 1 1-1-1z" style="fill: #737d87; stroke: none" />
    <path d="m350 137 1 1-1-1z" style="fill: #ff738a; stroke: none" />
    <path
        d="m248 138 1 1-1-1m32 0 1 1-1-1m27 0 1 1-1-1m42 0 1 1-1-1z"
        style="fill: #737d87; stroke: none"
    />
    <path
        d="m248 139 1 1-1-1m30 0 1 1-1-1z"
        style="fill: #ff738a; stroke: none"
    />
    <path
        d="m305 139 1 1-1-1m43 0 1 1-1-1z"
        style="fill: #737d87; stroke: none"
    />
    <path d="m247 140 1 1-1-1z" style="fill: #ff738a; stroke: none" />
    <path
        d="m277 140 1 1-1-1m27 0 1 1-1-1z"
        style="fill: #737d87; stroke: none"
    />
    <path
        d="m246 141 1 1-1-1m29 0 1 1-1-1z"
        style="fill: #ff738a; stroke: none"
    />
    <path
        d="m302 141 1 1-1-1m43 0 1 1-1-1m-100 1 1 1-1-1m29 0 1 1-1-1m27 0 1 1-1-1m43 0 1 1-1-1m-100 1 1 1-1-1z"
        style="fill: #737d87; stroke: none"
    />
    <path d="m272 143 1 1-1-1z" style="fill: #ff738a; stroke: none" />
    <path
        d="m299 143 1 1-1-1m-28 1 1 1-1-1m27 0 1 1-1-1z"
        style="fill: #737d87; stroke: none"
    />
    <path d="m341 144 1 1-1-1z" style="fill: #69c3ff; stroke: none" />
    <path
        d="m243 145 1 1-1-1m26 0 1 1-1-1z"
        style="fill: #ff738a; stroke: none"
    />
    <path
        d="m296 145 1 1-1-1m44 0 1 1-1-1z"
        style="fill: #737d87; stroke: none"
    />
    <path d="m242 146 1 1-1-1z" style="fill: #ff738a; stroke: none" />
    <path
        d="m268 146 1 1-1-1m27 0 1 1-1-1m44 0 1 1-1-1m-98 1 1 1-1-1z"
        style="fill: #737d87; stroke: none"
    />
    <path d="m266 147 1 1-1-1z" style="fill: #ff738a; stroke: none" />
    <path
        d="m293 147 1 1-1-1m-53 1 1 1-1-1m25 0 1 1-1-1m27 0 1 1-1-1m44 0 1 1-1-1m-97 1 1 1-1-1z"
        style="fill: #737d87; stroke: none"
    />
    <path d="m263 149 1 1-1-1z" style="fill: #ff738a; stroke: none" />
    <path
        d="m290 149 1 1-1-1m45 0 1 1-1-1z"
        style="fill: #737d87; stroke: none"
    />
    <path d="m239 150 1 1-1-1z" style="fill: #ff738a; stroke: none" />
    <path
        d="m262 150 1 1-1-1m27 0 1 1-1-1z"
        style="fill: #737d87; stroke: none"
    />
    <path
        d="m238 151 1 1-1-1m22 0 1 1-1-1z"
        style="fill: #ff738a; stroke: none"
    />
    <path d="m287 151 1 1-1-1z" style="fill: #737d87; stroke: none" />
    <path d="m332 151 1 1-1-1z" style="fill: #69c3ff; stroke: none" />
    <path
        d="m237 152 1 1-1-1m22 0 1 1-1-1m27 0 1 1-1-1m45 0 1 1-1-1m-95 1 1 1-1-1z"
        style="fill: #737d87; stroke: none"
    />
    <path d="m257 153 1 1-1-1z" style="fill: #ff738a; stroke: none" />
    <path
        d="m284 153 1 1-1-1m-49 1 1 1-1-1m21 0 1 1-1-1m27 0 1 1-1-1z"
        style="fill: #737d87; stroke: none"
    />
    <path
        d="m328 154 1 1-1-1m-93 1 1 1-1-1m19 0 1 1-1-1z"
        style="fill: #ff738a; stroke: none"
    />
    <path
        d="m281 155 1 1-1-1m46 0 1 1-1-1z"
        style="fill: #737d87; stroke: none"
    />
    <path d="m234 156 1 1-1-1z" style="fill: #ff738a; stroke: none" />
    <path
        d="m253 156 1 1-1-1m27 0 1 1-1-1m46 0 1 1-1-1z"
        style="fill: #737d87; stroke: none"
    />
    <path
        d="m233 157 1 1-1-1m18 0 1 1-1-1z"
        style="fill: #ff738a; stroke: none"
    />
    <path
        d="m278 157 1 1-1-1m-46 1 1 1-1-1m18 0 1 1-1-1m27 0 1 1-1-1m46 0 1 1-1-1m-92 1 1 1-1-1z"
        style="fill: #737d87; stroke: none"
    />
    <path d="m248 159 1 1-1-1z" style="fill: #ff738a; stroke: none" />
    <path
        d="m275 159 1 1-1-1m47 0 1 1-1-1m-75 1 1 1-1-1m27 0 1 1-1-1z"
        style="fill: #737d87; stroke: none"
    />
    <path
        d="m230 161 1 1-1-1m15 0 1 1-1-1z"
        style="fill: #ff738a; stroke: none"
    />
    <path d="m272 161 1 1-1-1z" style="fill: #737d87; stroke: none" />
    <path d="m319 161 1 1-1-1z" style="fill: #69c3ff; stroke: none" />
    <path d="m229 162 1 1-1-1z" style="fill: #ff738a; stroke: none" />
    <path
        d="m244 162 1 1-1-1m27 0 1 1-1-1m47 0 1 1-1-1m-90 1 1 1-1-1z"
        style="fill: #737d87; stroke: none"
    />
    <path d="m242 163 1 1-1-1z" style="fill: #ff738a; stroke: none" />
    <path
        d="m269 163 1 1-1-1m-42 1 1 1-1-1m14 0 1 1-1-1m27 0 1 1-1-1z"
        style="fill: #737d87; stroke: none"
    />
    <path d="m315 164 1 1-1-1z" style="fill: #ff738a; stroke: none" />
    <path d="m226 165 1 1-1-1z" style="fill: #737d87; stroke: none" />
    <path d="m239 165 1 1-1-1z" style="fill: #ff738a; stroke: none" />
    <path
        d="m266 165 1 1-1-1m48 0 1 1-1-1z"
        style="fill: #737d87; stroke: none"
    />
    <path d="m226 166 1 1-1-1z" style="fill: #ff738a; stroke: none" />
    <path
        d="m238 166 1 1-1-1m27 0 1 1-1-1m48 0 1 1-1-1z"
        style="fill: #737d87; stroke: none"
    />
    <path
        d="m225 167 1 1-1-1m11 0 1 1-1-1z"
        style="fill: #ff738a; stroke: none"
    />
    <path
        d="m263 167 1 1-1-1m-39 1 1 1-1-1m11 0 1 1-1-1m27 0 1 1-1-1m48 0 1 1-1-1m-87 1 1 1-1-1z"
        style="fill: #737d87; stroke: none"
    />
    <path d="m233 169 1 1-1-1z" style="fill: #ff738a; stroke: none" />
    <path
        d="m260 169 1 1-1-1m49 0 1 1-1-1m-87 1 1 1-1-1m10 0 1 1-1-1m27 0 1 1-1-1z"
        style="fill: #737d87; stroke: none"
    />
    <path
        d="m222 171 1 1-1-1m8 0 1 1-1-1z"
        style="fill: #ff738a; stroke: none"
    />
    <path d="m257 171 1 1-1-1z" style="fill: #737d87; stroke: none" />
    <path d="m306 171 1 1-1-1z" style="fill: #69c3ff; stroke: none" />
    <path d="m221 172 1 1-1-1z" style="fill: #ff738a; stroke: none" />
    <path
        d="m229 172 1 1-1-1m27 0 1 1-1-1m49 0 1 1-1-1z"
        style="fill: #737d87; stroke: none"
    />
    <path
        d="m220 173 1 1-1-1m7 0 1 1-1-1z"
        style="fill: #ff738a; stroke: none"
    />
    <path
        d="m254 173 1 1-1-1m50 0 1 1-1-1m-85 1 1 1-1-1m7 0 1 1-1-1m27 0 1 1-1-1z"
        style="fill: #737d87; stroke: none"
    />
    <path d="m302 174 1 1-1-1z" style="fill: #ff738a; stroke: none" />
    <path d="m218 175 1 1-1-1z" style="fill: #737d87; stroke: none" />
    <path d="m224 175 1 1-1-1z" style="fill: #ff738a; stroke: none" />
    <path
        d="m251 175 1 1-1-1m50 0 1 1-1-1z"
        style="fill: #737d87; stroke: none"
    />
    <path d="m218 176 1 1-1-1z" style="fill: #ff738a; stroke: none" />
    <path
        d="m223 176 1 1-1-1m27 0 1 1-1-1m50 0 1 1-1-1z"
        style="fill: #737d87; stroke: none"
    />
    <path
        d="m217 177 1 1-1-1m4 0 1 1-1-1z"
        style="fill: #ff738a; stroke: none"
    />
    <path d="m248 177 1 1-1-1z" style="fill: #737d87; stroke: none" />
    <path d="m216 178 1 1-1-1z" style="fill: #ff738a; stroke: none" />
    <path
        d="m220 178 1 1-1-1m27 0 1 1-1-1z"
        style="fill: #737d87; stroke: none"
    />
    <path d="m297 178 1 1-1-1z" style="fill: #69c3ff; stroke: none" />
    <path d="m215 179 1 1-1-1z" style="fill: #737d87; stroke: none" />
    <path d="m218 179 1 1-1-1z" style="fill: #ff738a; stroke: none" />
    <path
        d="m245 179 1 1-1-1m51 0 1 1-1-1m-82 1 1 1-1-1m3 0 1 1-1-1m27 0 1 1-1-1m49 0 1 1-1-1z"
        style="fill: #737d87; stroke: none"
    />
    <path d="m215 181 1 1-1-1z" style="fill: #ff738a; stroke: none" />
    <path
        d="m242 181 1 1-1-1m48 0 1 1-1-1z"
        style="fill: #737d87; stroke: none"
    />
    <path d="m213 182 1 1-1-1z" style="fill: #ff738a; stroke: none" />
    <path
        d="m214 182 1 1-1-1m27 0 1 1-1-1z"
        style="fill: #737d87; stroke: none"
    />
    <path d="m287 182 1 1-1-1z" style="fill: #ff738a; stroke: none" />
    <path
        d="m288 182 1 1-1-1m-76 1 1 1-1-1m27 0 1 1-1-1m46 0 1 1-1-1m63 0v1h9l-9-1z"
        style="fill: #737d87; stroke: none"
    />
    <path d="M357 183v1l11 1-11-2z" style="fill: #ff738a; stroke: none" />
    <path
        d="m367 183 1 1-1-1m-129 1 1 1-1-1m45 0 1 1-1-1z"
        style="fill: #737d87; stroke: none"
    />
    <path d="m344 184 1 1-1-1z" style="fill: #ff738a; stroke: none" />
    <path
        d="M345 184c1.987 9.272 7.063 17.409 8.561 27 1.083 6.932-1.207 15.441 1.333 21.996 1.745 4.506 6.231 7.499 11.105 6.76 15.513-2.352 8.041-33.112 5.626-42.756-.893-3.565-1.706-8.713-4.443-11.397C363.149 181.648 350.35 184 345 184z"
        style="fill: #c3cfd9; stroke: none"
    />
    <path
        d="M384 184c3.719 16.223 10.493 36.332 4.895 53-6.076 18.093-30.078 25.341-43.707 10.907-14.395-15.246.987-44.695-16.949-59.289-5.301-4.314-22.786 4.832-28.239 7.382 9.763 17.603 28.967 45.803 12.671 64.985-3.522 4.146-8.074 6.329-12.671 9.015l6 38c7.639-2.248 13.764-7.876 21-11.135 15.23-6.86 32.35-9.739 49-7.576 31.049 4.035 53.008 31.467 86 19.621 30.243-10.859 43.706-45.492 28.51-73.91-6.128-11.46-16.254-19.008-27.51-25l-1 20c9.765 4.817 4.473 17.163-.613 23.996-7.8 10.48-22.441 13.064-33.387 5.895-26.852-17.587 4.826-47.589-12.089-68.378-5.531-6.798-23.869-6.019-31.911-7.513z"
        style="fill: #ff738a; stroke: none"
    />
    <path
        d="M386 184v1h4l-4-1m-150 1 1 1-1-1z"
        style="fill: #737d87; stroke: none"
    />
    <path d="m280 185 1 1-1-1z" style="fill: #69c3ff; stroke: none" />
    <path
        d="m281 185 1 1-1-1m63 0 1 1-1-1m50 0v1h3l-3-1m-159 1 1 1-1-1m43 0 1 1-1-1m90 0 1 1-1-1m16 0 1 1-1-1m16.667.333.666.334-.666-.334M233 187l1 1-1-1m43 0 1 1-1-1m47 0 1 1-1-1m22 0 1 1-1-1z"
        style="fill: #737d87; stroke: none"
    />
    <path d="m368 187 1 1-1-1z" style="fill: #ff738a; stroke: none" />
    <path
        d="m405.667 187.333.666.334-.666-.334M232 188l1 1-1-1m42 0 1 1-1-1m45.667.333.666.334-.666-.334M328 188l1 1-1-1z"
        style="fill: #737d87; stroke: none"
    />
    <path d="m346 188 1 1-1-1z" style="fill: #ff738a; stroke: none" />
    <path
        d="m369 188 1 1-1-1m40.667.333.666.334-.666-.334M230 189l1 1-1-1m42 0 1 1-1-1m44.667.333.666.334-.666-.334M329 189l1 1-1-1m17 0 1 1-1-1z"
        style="fill: #737d87; stroke: none"
    />
    <path d="m369 189 1 1-1-1z" style="fill: #ff738a; stroke: none" />
    <path
        d="m385.333 189.667.334.666-.334-.666m28.334-.334.666.334-.666-.334M229 190l1 1-1-1m41 0 1 1-1-1m44 0 1 1-1-1m102.333.667.334.666-.334-.666M227 191l1 1-1-1m41 0 1 1-1-1m43 0 1 1-1-1m19 0 1 1-1-1m17 0 1 1-1-1m23 0 1 1-1-1z"
        style="fill: #737d87; stroke: none"
    />
    <path d="m226 192 1 1-1-1z" style="fill: #69c3ff; stroke: none" />
    <path
        d="m266 192 1 1-1-1m42 0 1 1-1-1z"
        style="fill: #737d87; stroke: none"
    />
    <path d="m370 192 1 1-1-1z" style="fill: #ff738a; stroke: none" />
    <path
        d="m224 193 1 1-1-1m40 0 1 1-1-1m41 0 1 1-1-1z"
        style="fill: #737d87; stroke: none"
    />
    <path d="m348 193 1 1-1-1z" style="fill: #ff738a; stroke: none" />
    <path
        d="m386 193 1 1-1-1m31.333.667.334.666-.334-.666z"
        style="fill: #737d87; stroke: none"
    />
    <path d="m223 194 1 1-1-1z" style="fill: #69c3ff; stroke: none" />
    <path
        d="m262 194 1 1-1-1m40.667.333.666.334-.666-.334M332 194l1 1-1-1m16 0 1 1-1-1m23.333.667.334.666-.334-.666M221 195l1 1-1-1z"
        style="fill: #737d87; stroke: none"
    />
    <path d="m260 195 1 1-1-1z" style="fill: #ff738a; stroke: none" />
    <path d="m300 195 1 1-1-1z" style="fill: #737d87; stroke: none" />
    <path d="m349 195 1 1-1-1z" style="fill: #ff738a; stroke: none" />
    <path d="m220 196 1 1-1-1z" style="fill: #69c3ff; stroke: none" />
    <path
        d="m259 196 1 1-1-1m74 0 1 1-1-1m16 0 1 1-1-1z"
        style="fill: #737d87; stroke: none"
    />
    <path d="m371 196 1 1-1-1z" style="fill: #ff738a; stroke: none" />
    <path
        d="M387 196v3h1l-1-3m46.333.667.334.666-.334-.666z"
        style="fill: #737d87; stroke: none"
    />
    <path d="m434 196 1 1-1-1z" style="fill: #ff738a; stroke: none" />
    <path
        d="m435 196 1 1-1-1m-217 1 1 1-1-1m39 0 1 1-1-1m161.333.667.334.666-.334-.666z"
        style="fill: #737d87; stroke: none"
    />
    <path
        d="M434 197c1.03 8.146 1.839 16.819.561 25-.876 5.606-4.186 12.323-3.127 17.996 1.13 6.054 7.801 9.574 13.551 7.401 9.176-3.469 6.06-16.185 17.015-18.397.657-5.196 2.579-12.77.397-17.787-2.962-6.808-21.52-13.029-28.397-14.213z"
        style="fill: #c3cfd9; stroke: none"
    />
    <path d="m437 197 1 1-1-1z" style="fill: #ff738a; stroke: none" />
    <path
        d="m438 197 1 1-1-1m-221 1 1 1-1-1z"
        style="fill: #737d87; stroke: none"
    />
    <path d="m255 198 1 1-1-1z" style="fill: #ff738a; stroke: none" />
    <path d="m301 198 1 1-1-1z" style="fill: #737d87; stroke: none" />
    <path d="m350 198 1 1-1-1z" style="fill: #ff738a; stroke: none" />
    <path
        d="m372.333 198.667.334.666-.334-.666z"
        style="fill: #737d87; stroke: none"
    />
    <path d="m439 198 1 1-1-1z" style="fill: #ff738a; stroke: none" />
    <path
        d="m440 198 1 1-1-1m-225 1 1 1-1-1m39 0 1 1-1-1m80 0 1 1-1-1m16 0 1 1-1-1z"
        style="fill: #737d87; stroke: none"
    />
    <path d="m442 199 1 1-1-1z" style="fill: #ff738a; stroke: none" />
    <path d="m443 199 1 1-1-1z" style="fill: #737d87; stroke: none" />
    <path d="m214 200 1 1-1-1z" style="fill: #69c3ff; stroke: none" />
    <path
        d="m252 200 1 1-1-1m31.667.333.666.334-.666-.334z"
        style="fill: #737d87; stroke: none"
    />
    <path
        d="m372 200 1 1-1-1m62.333.667.334.666-.334-.666M444 200l1 1-1-1z"
        style="fill: #ff738a; stroke: none"
    />
    <path
        d="m445 200 1 1-1-1m-233 1 1 1-1-1m69 0 1 1-1-1z"
        style="fill: #737d87; stroke: none"
    />
    <path d="m282 201 1 1-1-1z" style="fill: #ff738a; stroke: none" />
    <path
        d="M266 210c5.574 12.526 12.965 22.569 17.171 36 1.243 3.972 3.599 7.317 7.83 8.412 8.516 2.204 13.264-6.126 11.98-13.412-2.646-15.024-10.124-27.257-17.981-40l-19 9z"
        style="fill: #c3cfd9; stroke: none"
    />
    <path
        d="m303 201 1 1-1-1m32.333.667.334.666-.334-.666z"
        style="fill: #737d87; stroke: none"
    />
    <path
        d="m351.333 201.667.334.666-.334-.666z"
        style="fill: #ff738a; stroke: none"
    />
    <path d="M388 201v3h1l-1-3z" style="fill: #737d87; stroke: none" />
    <path d="m446 201 1 1-1-1z" style="fill: #ff738a; stroke: none" />
    <path d="m447 201 1 1-1-1z" style="fill: #737d87; stroke: none" />
    <path d="m211 202 1 1-1-1z" style="fill: #69c3ff; stroke: none" />
    <path
        d="m249 202 1 1-1-1m30 0 1 1-1-1z"
        style="fill: #737d87; stroke: none"
    />
    <path
        d="m280 202 1 1-1-1m5 0 1 1-1-1z"
        style="fill: #ff738a; stroke: none"
    />
    <path
        d="m373.333 202.667.334.666-.334-.666M419 202v4h1l-1-4m15 0v5h1l-1-5z"
        style="fill: #737d87; stroke: none"
    />
    <path d="m448 202 1 1-1-1z" style="fill: #ff738a; stroke: none" />
    <path
        d="m449 202 1 1-1-1m-240 1 1 1-1-1m68 0 1 1-1-1z"
        style="fill: #737d87; stroke: none"
    />
    <path
        d="m278 203 1 1-1-1m8 0 1 1-1-1z"
        style="fill: #ff738a; stroke: none"
    />
    <path
        d="m304 203 1 1-1-1m47 0 1 1-1-1z"
        style="fill: #737d87; stroke: none"
    />
    <path d="m450 203 1 1-1-1z" style="fill: #ff738a; stroke: none" />
    <path d="m451 203 1 1-1-1z" style="fill: #737d87; stroke: none" />
    <path d="m208 204 1 1-1-1z" style="fill: #69c3ff; stroke: none" />
    <path
        d="m246 204 1 1-1-1m29 0 1 1-1-1z"
        style="fill: #737d87; stroke: none"
    />
    <path d="m276 204 1 1-1-1z" style="fill: #ff738a; stroke: none" />
    <path
        d="m287 204 1 1-1-1m49.333.667.334.666-.334-.666z"
        style="fill: #737d87; stroke: none"
    />
    <path
        d="m373.333 204.667.334.666-.334-.666M452 204l1 1-1-1z"
        style="fill: #ff738a; stroke: none"
    />
    <path
        d="m453 204 1 1-1-1m-247 1 1 1-1-1m67 0 1 1-1-1z"
        style="fill: #737d87; stroke: none"
    />
    <path
        d="m274 205 1 1-1-1m78.333.667.334.666-.334-.666M454 205l1 1-1-1z"
        style="fill: #ff738a; stroke: none"
    />
    <path d="m455 205 1 1-1-1z" style="fill: #737d87; stroke: none" />
    <path
        d="m205 206 1 1-1-1m38 0 1 1-1-1z"
        style="fill: #69c3ff; stroke: none"
    />
    <path d="m271 206 1 1-1-1z" style="fill: #737d87; stroke: none" />
    <path
        d="m272 206 1 1-1-1m16 0 1 1-1-1z"
        style="fill: #ff738a; stroke: none"
    />
    <path d="m306 206 1 1-1-1z" style="fill: #737d87; stroke: none" />
    <path d="m456 206 1 1-1-1z" style="fill: #ff738a; stroke: none" />
    <path
        d="m457 206 1 1-1-1m-254 1 1 1-1-1m39 0 1 1-1-1m27 0 1 1-1-1z"
        style="fill: #737d87; stroke: none"
    />
    <path d="m270 207 1 1-1-1z" style="fill: #ff738a; stroke: none" />
    <path
        d="m289 207 1 1-1-1m63.333.667.334.666-.334-.666M389 207v5h1l-1-5z"
        style="fill: #737d87; stroke: none"
    />
    <path d="m458 207 1 1-1-1z" style="fill: #ff738a; stroke: none" />
    <path d="m459 207 1 1-1-1z" style="fill: #737d87; stroke: none" />
    <path d="m202 208 1 1-1-1z" style="fill: #69c3ff; stroke: none" />
    <path
        d="m241 208 1 1-1-1m27 0 1 1-1-1m39 0 1 1-1-1m30.333.667.334.666-.334-.666M374 208v3h1l-1-3z"
        style="fill: #737d87; stroke: none"
    />
    <path d="m460 208 1 1-1-1z" style="fill: #ff738a; stroke: none" />
    <path
        d="m200 209 1 1-1-1m66 0 1 1-1-1z"
        style="fill: #737d87; stroke: none"
    />
    <path d="m290 209 1 1-1-1z" style="fill: #ff738a; stroke: none" />
    <path d="m462 209 1 1-1-1z" style="fill: #737d87; stroke: none" />
    <path d="m199 210 1 1-1-1z" style="fill: #69c3ff; stroke: none" />
    <path d="m265 210 1 1-1-1z" style="fill: #ff738a; stroke: none" />
    <path
        d="m291 210 1 1-1-1m17 0 1 1-1-1z"
        style="fill: #737d87; stroke: none"
    />
    <path
        d="m353.333 210.667.334.666-.334-.666z"
        style="fill: #ff738a; stroke: none"
    />
    <path
        d="m464 210 1 1-1-1m-267 1 1 1-1-1m68 0 1 1-1-1z"
        style="fill: #737d87; stroke: none"
    />
    <path
        d="m291 211 1 1-1-1m83 0v3h1l-1-3z"
        style="fill: #ff738a; stroke: none"
    />
    <path d="m465 211 1 1-1-1z" style="fill: #737d87; stroke: none" />
    <path d="m196 212 1 1-1-1z" style="fill: #69c3ff; stroke: none" />
    <path
        d="m266 212 1 1-1-1m26 0 1 1-1-1m17 0 1 1-1-1m44 0v4h1l-1-4m114 0 1 1-1-1m-273 1 1 1-1-1m73 0 1 1-1-1m71 0v3h1l-1-3z"
        style="fill: #737d87; stroke: none"
    />
    <path d="m193 214 1 1-1-1z" style="fill: #69c3ff; stroke: none" />
    <path
        d="m268 214 1 1-1-1m25 0 1 1-1-1z"
        style="fill: #ff738a; stroke: none"
    />
    <path
        d="m310 214 1 1-1-1m160 0 1 1-1-1m-279 1 1 1-1-1z"
        style="fill: #737d87; stroke: none"
    />
    <path d="m269 215 1 1-1-1z" style="fill: #ff738a; stroke: none" />
    <path
        d="m294 215 1 1-1-1m178 0 1 1-1-1z"
        style="fill: #737d87; stroke: none"
    />
    <path d="m190 216 1 1-1-1z" style="fill: #69c3ff; stroke: none" />
    <path d="m269 216 1 1-1-1z" style="fill: #737d87; stroke: none" />
    <path d="m294 216 1 1-1-1z" style="fill: #ff738a; stroke: none" />
    <path
        d="m311.333 216.667.334.666-.334-.666M419 216v5h1l-1-5m15 0v5h1l-1-5m39 0 1 1-1-1m-285 1 1 1-1-1m44 0 1 1-1-1m38 0 1 1-1-1m25 0 1 1-1-1z"
        style="fill: #737d87; stroke: none"
    />
    <path d="m187 218 1 1-1-1z" style="fill: #69c3ff; stroke: none" />
    <path d="m231 218 1 1-1-1z" style="fill: #737d87; stroke: none" />
    <path
        d="m271 218 1 1-1-1m24 0 1 1-1-1z"
        style="fill: #ff738a; stroke: none"
    />
    <path
        d="M375 218v8h1l-1-8m101 0 1 1-1-1m-291 1 1 1-1-1z"
        style="fill: #737d87; stroke: none"
    />
    <path d="m230 219 1 1-1-1z" style="fill: #ff738a; stroke: none" />
    <path d="m251 219 1 1-1-1z" style="fill: #737d87; stroke: none" />
    <path
        d="m252 219-11 13 24 8c-2.306-8.005-6.929-15.325-13-21z"
        style="fill: #ff738a; stroke: none"
    />
    <path
        d="m271 219 1 1-1-1m25 0 1 1-1-1m16 0 1 1-1-1m165 0 1 1-1-1z"
        style="fill: #737d87; stroke: none"
    />
    <path d="m184 220 1 1-1-1z" style="fill: #69c3ff; stroke: none" />
    <path
        d="m253 220 1 1-1-1m19 0 1 1-1-1z"
        style="fill: #737d87; stroke: none"
    />
    <path d="m296 220 1 1-1-1z" style="fill: #ff738a; stroke: none" />
    <path
        d="m182 221 1 1-1-1m47 0 1 1-1-1m25 0 1 1-1-1z"
        style="fill: #737d87; stroke: none"
    />
    <path d="m273 221 1 1-1-1z" style="fill: #ff738a; stroke: none" />
    <path
        d="m313.333 221.667.334.666-.334-.666z"
        style="fill: #737d87; stroke: none"
    />
    <path
        d="m434.333 221.667.334.666-.334-.666z"
        style="fill: #ff738a; stroke: none"
    />
    <path d="m181 222 1 1-1-1z" style="fill: #69c3ff; stroke: none" />
    <path
        d="m228 222 1 1-1-1m27 0 1 1-1-1m18 0 1 1-1-1m24 0 1 1-1-1z"
        style="fill: #737d87; stroke: none"
    />
    <path d="m354 222 1 1-1-1z" style="fill: #ff738a; stroke: none" />
    <path
        d="m179 223 1 1-1-1m77 0 1 1-1-1z"
        style="fill: #737d87; stroke: none"
    />
    <path d="m274 223 1 1-1-1z" style="fill: #ff738a; stroke: none" />
    <path d="m178 224 1 1-1-1z" style="fill: #69c3ff; stroke: none" />
    <path
        d="m227 224 1 1-1-1m71 0 1 1-1-1m16.333.667.334.666-.334-.666m104 0 .334.666-.334-.666M176 225l1 1-1-1z"
        style="fill: #737d87; stroke: none"
    />
    <path d="m181 225 1 1-1-1z" style="fill: #ff738a; stroke: none" />
    <path d="m182 225 1 1-1-1z" style="fill: #69c3ff; stroke: none" />
    <path d="M183 225v1h16l-16-1z" style="fill: #737d87; stroke: none" />
    <path
        d="m199.667 225.333.666.334-.666-.334z"
        style="fill: #69c3ff; stroke: none"
    />
    <path
        d="m201.667 225.333.666.334-.666-.334M226 225l1 1-1-1m49 0 1 1-1-1m23 0 1 1-1-1z"
        style="fill: #ff738a; stroke: none"
    />
    <path
        d="m433.333 225.667.334.666-.334-.666M211 226v1h3l-3-1z"
        style="fill: #737d87; stroke: none"
    />
    <path d="m214 226 1 1-1-1z" style="fill: #69c3ff; stroke: none" />
    <path d="m215 226 1 1-1-1z" style="fill: #ff738a; stroke: none" />
    <path
        d="m244 226 1 1-1-1m14 0 1 1-1-1m41.333.667.334.666-.334-.666M484 226l1 1-1-1m-263.333 1.333.666.334-.666-.334z"
        style="fill: #737d87; stroke: none"
    />
    <path d="m222 227 1 1-1-1z" style="fill: #69c3ff; stroke: none" />
    <path
        d="m225 227 1 1-1-1m18 0 1 1-1-1m33 0 1 1-1-1m39.333.667.334.666-.334-.666z"
        style="fill: #737d87; stroke: none"
    />
    <path d="m433 227 1 1-1-1z" style="fill: #ff738a; stroke: none" />
    <path
        d="m485 227 1 1-1-1m-243 1 1 1-1-1z"
        style="fill: #737d87; stroke: none"
    />
    <path d="m299 228 1 1-1-1z" style="fill: #ff738a; stroke: none" />
    <path
        d="m417.333 228.667.334.666-.334-.666M486 228l1 1-1-1m-226 1 1 1-1-1z"
        style="fill: #737d87; stroke: none"
    />
    <path d="m277 229 1 1-1-1z" style="fill: #ff738a; stroke: none" />
    <path
        d="m300 229 1 1-1-1m132.333.667.334.666-.334-.666z"
        style="fill: #737d87; stroke: none"
    />
    <path d="m458 229 1 1-1-1z" style="fill: #ff738a; stroke: none" />
    <path d="M459 229v1h3l-3-1z" style="fill: #737d87; stroke: none" />
    <path
        d="m300 230 1 1-1-1m74.333.667.334.666-.334-.666M456 230l1 1-1-1z"
        style="fill: #ff738a; stroke: none"
    />
    <path
        d="m464 230 1 1-1-1m-203 1 1 1-1-1z"
        style="fill: #737d87; stroke: none"
    />
    <path d="m278 231 1 1-1-1z" style="fill: #ff738a; stroke: none" />
    <path d="m316 231 1 1-1-1z" style="fill: #737d87; stroke: none" />
    <path d="m432 231 1 1-1-1z" style="fill: #ff738a; stroke: none" />
    <path
        d="m455 231 1 1-1-1m10 0 1 1-1-1m23 0 1 1-1-1m-244.333 1.333.666.334-.666-.334M278 232l1 1-1-1m23.333.667.334.666-.334-.666z"
        style="fill: #737d87; stroke: none"
    />
    <path
        d="m354.333 232.667.334.666-.334-.666z"
        style="fill: #ff738a; stroke: none"
    />
    <path
        d="m374.333 232.667.334.666-.334-.666M416 232l1 1-1-1m38 0 1 1-1-1m12 0 1 1-1-1m-219.333 1.333.666.334-.666-.334M262 233l1 1-1-1z"
        style="fill: #737d87; stroke: none"
    />
    <path d="m279 233 1 1-1-1z" style="fill: #ff738a; stroke: none" />
    <path
        d="M389 233v3h1l-1-3m42.333.667.334.666-.334-.666z"
        style="fill: #737d87; stroke: none"
    />
    <path d="m453 233 1 1-1-1z" style="fill: #ff738a; stroke: none" />
    <path
        d="m489 233 1 1-1-1m-239.333 1.333.666.334-.666-.334M279 234l1 1-1-1z"
        style="fill: #737d87; stroke: none"
    />
    <path d="m301 234 1 1-1-1z" style="fill: #ff738a; stroke: none" />
    <path
        d="m317.333 234.667.334.666-.334-.666M354 234l1 1-1-1z"
        style="fill: #737d87; stroke: none"
    />
    <path d="m373 234 1 1-1-1z" style="fill: #ff738a; stroke: none" />
    <path
        d="m453 234 1 1-1-1m14 0 1 1-1-1m-215 1 1 1-1-1m11 0 1 1-1-1z"
        style="fill: #737d87; stroke: none"
    />
    <path d="m355 235 1 1-1-1z" style="fill: #ff738a; stroke: none" />
    <path d="m373 235 1 1-1-1z" style="fill: #737d87; stroke: none" />
    <path d="m431 235 1 1-1-1z" style="fill: #ff738a; stroke: none" />
    <path d="m255 236 1 1-1-1z" style="fill: #737d87; stroke: none" />
    <path d="m280 236 1 1-1-1z" style="fill: #ff738a; stroke: none" />
    <path
        d="m302 236 1 1-1-1m37.333.667.334.666-.334-.666z"
        style="fill: #737d87; stroke: none"
    />
    <path
        d="m356 236 1 1-1-1m16 0 1 1-1-1m80 0 1 1-1-1z"
        style="fill: #ff738a; stroke: none"
    />
    <path
        d="m491 236 1 1-1-1m-234 1 1 1-1-1m7 0 1 1-1-1m16 0 1 1-1-1z"
        style="fill: #737d87; stroke: none"
    />
    <path
        d="m302.333 237.667.334.666-.334-.666M357 237l1 1-1-1m14 0 1 1-1-1z"
        style="fill: #ff738a; stroke: none"
    />
    <path
        d="M430 237v3h1l-1-3m22.333.667.334.666-.334-.666m-192.666.666.666.334-.666-.334z"
        style="fill: #737d87; stroke: none"
    />
    <path d="m358 238 1 1-1-1z" style="fill: #ff738a; stroke: none" />
    <path
        d="m370 238 1 1-1-1m18 0 1 1-1-1m27.333.667.334.666-.334-.666M262 239l1 1-1-1m3 0-1 2h2l-1-2z"
        style="fill: #737d87; stroke: none"
    />
    <path d="m281 239 1 1-1-1z" style="fill: #ff738a; stroke: none" />
    <path
        d="m318.333 239.667.334.666-.334-.666M359 239l1 1-1-1z"
        style="fill: #737d87; stroke: none"
    />
    <path
        d="m360 239 1 1-1-1m8 0 1 1-1-1z"
        style="fill: #ff738a; stroke: none"
    />
    <path
        d="m369 239 1 1-1-1m98.333.667.334.666-.334-.666M492 239l1 1-1-1m-313 1v1h5l-5-1z"
        style="fill: #737d87; stroke: none"
    />
    <path d="M184 240v1h18l-18-1z" style="fill: #69c3ff; stroke: none" />
    <path
        d="M202 240v1h5l-5-1m79.333.667.334.666-.334-.666m22 0 .334.666-.334-.666M340 240l1 1-1-1m22 0v1h5l-5-1m25 0 1 1-1-1z"
        style="fill: #737d87; stroke: none"
    />
    <path d="m451 240 1 1-1-1z" style="fill: #ff738a; stroke: none" />
    <path
        d="m170.667 241.333.666.334-.666-.334z"
        style="fill: #737d87; stroke: none"
    />
    <path d="M172 241v1h3l-3-1z" style="fill: #69c3ff; stroke: none" />
    <path
        d="M175 241.424c-22.731 3.021-47.588 8.638-65 24.669-14.163 13.041-19.697 31.209-7.956 47.907 23.241 33.054 77.475 37.515 113.956 32.718 21.545-2.833 44.782-9.602 60.996-24.808 13.179-12.36 18.456-30.023 7.899-45.91-21.269-32.006-74.782-39.242-109.895-34.576z"
        style="fill: #c3cfd9; stroke: none"
    />
    <path d="M211 241v1h3l-3-1z" style="fill: #69c3ff; stroke: none" />
    <path
        d="m214.667 241.333.666.334-.666-.334z"
        style="fill: #737d87; stroke: none"
    />
    <path d="m431 241 1 1-1-1z" style="fill: #ff738a; stroke: none" />
    <path
        d="m451 241 1 1-1-1m42 0 1 1-1-1m-329.333 1.333.666.334-.666-.334z"
        style="fill: #737d87; stroke: none"
    />
    <path
        d="m165.667 242.333.666.334-.666-.334m54 0 .666.334-.666-.334z"
        style="fill: #69c3ff; stroke: none"
    />
    <path
        d="m221.667 242.333.666.334-.666-.334z"
        style="fill: #737d87; stroke: none"
    />
    <path
        d="m303.333 242.667.334.666-.334-.666z"
        style="fill: #ff738a; stroke: none"
    />
    <path
        d="m386 242 1 1-1-1m45 0 1 1-1-1z"
        style="fill: #737d87; stroke: none"
    />
    <path d="m450 242 1 1-1-1z" style="fill: #ff738a; stroke: none" />
    <path
        d="m466.333 242.667.334.666-.334-.666m-307.666.666.666.334-.666-.334z"
        style="fill: #737d87; stroke: none"
    />
    <path
        d="m160.667 243.333.666.334-.666-.334M225 243l1 1-1-1z"
        style="fill: #69c3ff; stroke: none"
    />
    <path
        d="m226.667 243.333.666.334-.666-.334z"
        style="fill: #737d87; stroke: none"
    />
    <path d="m282 243 1 1-1-1z" style="fill: #ff738a; stroke: none" />
    <path d="m341 243 1 1-1-1z" style="fill: #737d87; stroke: none" />
    <path d="m432 243 1 1-1-1z" style="fill: #ff738a; stroke: none" />
    <path
        d="m450 243 1 1-1-1m-296 1 1 1-1-1z"
        style="fill: #737d87; stroke: none"
    />
    <path
        d="m155.667 244.333.666.334-.666-.334m74 0 .666.334-.666-.334z"
        style="fill: #69c3ff; stroke: none"
    />
    <path
        d="m231 244 1 1-1-1m51.333.667.334.666-.334-.666M342 244l1 1-1-1m43 0 1 1-1-1m31.333.667.334.666-.334-.666z"
        style="fill: #737d87; stroke: none"
    />
    <path d="m449 244 1 1-1-1z" style="fill: #ff738a; stroke: none" />
    <path
        d="m494 244 1 1-1-1m-344 1 1 1-1-1z"
        style="fill: #737d87; stroke: none"
    />
    <path
        d="m151.667 245.333.666.334-.666-.334M234 245l1 1-1-1z"
        style="fill: #69c3ff; stroke: none"
    />
    <path
        d="m235 245 1 1-1-1m149 0 1 1-1-1m49 0 1 1-1-1z"
        style="fill: #737d87; stroke: none"
    />
    <path d="m448 245 1 1-1-1z" style="fill: #ff738a; stroke: none" />
    <path d="m147 246 1 1-1-1z" style="fill: #737d87; stroke: none" />
    <path
        d="m148 246 1 1-1-1m89 0 1 1-1-1z"
        style="fill: #69c3ff; stroke: none"
    />
    <path
        d="m238.667 246.333.666.334-.666-.334z"
        style="fill: #737d87; stroke: none"
    />
    <path d="m303 246 1 1-1-1z" style="fill: #ff738a; stroke: none" />
    <path
        d="m343 246 1 1-1-1m91 0 1 1-1-1z"
        style="fill: #737d87; stroke: none"
    />
    <path
        d="m435 246 1 1-1-1m12 0 1 1-1-1z"
        style="fill: #ff738a; stroke: none"
    />
    <path
        d="m465 246 1 1-1-1m-322 1 1 1-1-1z"
        style="fill: #737d87; stroke: none"
    />
    <path
        d="m144 247 1 1-1-1m97 0 1 1-1-1z"
        style="fill: #69c3ff; stroke: none"
    />
    <path d="m242 247 1 1-1-1z" style="fill: #737d87; stroke: none" />
    <path d="m283 247 1 1-1-1z" style="fill: #ff738a; stroke: none" />
    <path
        d="m303.333 247.667.334.666-.334-.666M344 247l1 1-1-1m73 0 1 1-1-1m19 0 1 1-1-1m10 0 1 1-1-1m49.333.667.334.666-.334-.666M140 248l1 1-1-1z"
        style="fill: #737d87; stroke: none"
    />
    <path
        d="m141 248 1 1-1-1m103 0 1 1-1-1z"
        style="fill: #69c3ff; stroke: none"
    />
    <path
        d="m245 248 1 1-1-1m38 0 1 1-1-1m35 0v3h1l-1-3m27 0 1 1-1-1m93 0 1 1-1-1z"
        style="fill: #737d87; stroke: none"
    />
    <path d="M439 248v1h4l-4-1z" style="fill: #ff738a; stroke: none" />
    <path
        d="m443.667 248.333.666.334-.666-.334m20.666.334.334.666-.334-.666M138 249l1 1-1-1z"
        style="fill: #737d87; stroke: none"
    />
    <path d="m139 249 1 1-1-1z" style="fill: #69c3ff; stroke: none" />
    <path d="m247 249 1 1-1-1z" style="fill: #737d87; stroke: none" />
    <path d="m302 249 1 1-1-1z" style="fill: #ff738a; stroke: none" />
    <path
        d="m346 249 1 1-1-1m34 0 1 1-1-1m-245 1 1 1-1-1z"
        style="fill: #737d87; stroke: none"
    />
    <path
        d="m136 250 1 1-1-1m113 0 1 1-1-1z"
        style="fill: #69c3ff; stroke: none"
    />
    <path
        d="m250 250 1 1-1-1m34 0 1 1-1-1m18 0 1 1-1-1m45 0 1 1-1-1m32 0 1 1-1-1m-246 1 1 1-1-1m119 0 1 1-1-1z"
        style="fill: #737d87; stroke: none"
    />
    <path d="m285 251 1 1-1-1z" style="fill: #ff738a; stroke: none" />
    <path
        d="m301 251 1 1-1-1m118 0 1 1-1-1m-288 1 1 1-1-1z"
        style="fill: #737d87; stroke: none"
    />
    <path d="m254 252 1 1-1-1z" style="fill: #69c3ff; stroke: none" />
    <path d="m286 252 1 1-1-1z" style="fill: #ff738a; stroke: none" />
    <path
        d="m300 252 1 1-1-1m50 0 1 1-1-1m26 0 1 1-1-1m86 0 1 1-1-1m34 0v3h1l-1-3z"
        style="fill: #737d87; stroke: none"
    />
    <path
        d="m129 253 1 1-1-1m127 0 1 1-1-1z"
        style="fill: #69c3ff; stroke: none"
    />
    <path d="m287 253 1 1-1-1z" style="fill: #737d87; stroke: none" />
    <path d="m298 253 1 1-1-1z" style="fill: #ff738a; stroke: none" />
    <path
        d="m299 253 1 1-1-1m18 0 1 1-1-1m35.667.333.666.334-.666-.334M374 253l1 1-1-1m46 0 1 1-1-1z"
        style="fill: #737d87; stroke: none"
    />
    <path
        d="m127 254 1 1-1-1m131 0 1 1-1-1z"
        style="fill: #69c3ff; stroke: none"
    />
    <path d="m289 254 1 1-1-1z" style="fill: #737d87; stroke: none" />
    <path
        d="m290 254 1 1-1-1m6 0 1 1-1-1z"
        style="fill: #ff738a; stroke: none"
    />
    <path
        d="m297 254 1 1-1-1m58.667.333.666.334-.666-.334M371 254l1 1-1-1m50 0 1 1-1-1m40 0 1 1-1-1z"
        style="fill: #737d87; stroke: none"
    />
    <path
        d="m125 255 1 1-1-1m135 0 1 1-1-1z"
        style="fill: #69c3ff; stroke: none"
    />
    <path
        d="m293 255 1 1-1-1m23 0 1 1-1-1m44 0v1h8l-8-1m62 0 1 1-1-1m38 0 1 1-1-1m-337 1 1 1-1-1m139 0 1 1-1-1m161 0 1 1-1-1m36 0 1 1-1-1m-338 1 1 1-1-1m143 0 1 1-1-1m51 0 1 1-1-1m109 0 1 1-1-1m34 0 1 1-1-1z"
        style="fill: #737d87; stroke: none"
    />
    <path
        d="m120 258 1 1-1-1m145 0 1 1-1-1z"
        style="fill: #69c3ff; stroke: none"
    />
    <path
        d="m425 258 1 1-1-1m32 0 1 1-1-1m-339 1 1 1-1-1m149 0 1 1-1-1m189 0 1 1-1-1z"
        style="fill: #737d87; stroke: none"
    />
    <path
        d="m117 260 1 1-1-1m151 0 1 1-1-1z"
        style="fill: #69c3ff; stroke: none"
    />
    <path
        d="m313 260 1 1-1-1m115 0 1 1-1-1m26 0 1 1-1-1m-339 1 1 1-1-1m155 0 1 1-1-1m42 0 1 1-1-1m118 0 1 1-1-1m23 0 1 1-1-1z"
        style="fill: #737d87; stroke: none"
    />
    <path
        d="m114 262 1 1-1-1m157 0 1 1-1-1z"
        style="fill: #69c3ff; stroke: none"
    />
    <path
        d="m432.667 262.333.666.334-.666-.334M450 262l1 1-1-1z"
        style="fill: #737d87; stroke: none"
    />
    <path d="M188 263v1h10l-10-1z" style="fill: #69c3ff; stroke: none" />
    <path
        d="m273 263 1 1-1-1m37 0 1 1-1-1m126 0v1h3l-3-1m10.667.333.666.334-.666-.334M111 264l1 1-1-1z"
        style="fill: #737d87; stroke: none"
    />
    <path
        d="m179.667 264.333.666.334-.666-.334z"
        style="fill: #69c3ff; stroke: none"
    />
    <path
        d="m181.667 264.333.666.334-.666-.334z"
        style="fill: #737d87; stroke: none"
    />
    <path
        d="M183 264.428c-13.956 1.999-30.731 6.234-38.095 19.572-6.591 11.94 1.362 33.86 17.091 33.783 18.07-.088-6.169-20.979-3.949-25.779 8.618-18.638 47.619-15.772 61.953-7.475 21.207 12.276-5.062 23.5-18 25.182-3.579.465-7.548-.206-10.956 1.183-6.765 2.756-5.91 11.76.961 13.672 19.234 5.355 58.037-11.528 51.206-35.566-6.438-22.66-40.445-27.402-60.211-24.572z"
        style="fill: #010101; stroke: none"
    />
    <path
        d="m203.667 264.333.666.334-.666-.334z"
        style="fill: #737d87; stroke: none"
    />
    <path
        d="m205.667 264.333.666.334-.666-.334z"
        style="fill: #69c3ff; stroke: none"
    />
    <path
        d="m274 264 1 1-1-1m35 0 1 1-1-1m-199 1 1 1-1-1z"
        style="fill: #737d87; stroke: none"
    />
    <path d="m174 265 1 1-1-1z" style="fill: #69c3ff; stroke: none" />
    <path
        d="m175.667 265.333.666.334-.666-.334M210 265l1 1-1-1z"
        style="fill: #737d87; stroke: none"
    />
    <path
        d="m211.667 265.333.666.334-.666-.334M275 265l1 1-1-1z"
        style="fill: #69c3ff; stroke: none"
    />
    <path d="m308 265 1 1-1-1z" style="fill: #737d87; stroke: none" />
    <path
        d="m109 266 1 1-1-1m61 0 1 1-1-1z"
        style="fill: #69c3ff; stroke: none"
    />
    <path
        d="m171 266 1 1-1-1m43 0 1 1-1-1z"
        style="fill: #737d87; stroke: none"
    />
    <path
        d="m215 266 1 1-1-1m61 0 1 1-1-1z"
        style="fill: #69c3ff; stroke: none"
    />
    <path
        d="m306 266 1 1-1-1m190 0v3h1l-1-3z"
        style="fill: #737d87; stroke: none"
    />
    <path d="m108 267 1 1-1-1z" style="fill: #69c3ff; stroke: none" />
    <path
        d="m167 267 1 1-1-1m51 0 1 1-1-1z"
        style="fill: #737d87; stroke: none"
    />
    <path
        d="m277 267 1 1-1-1m-170 1 1 1-1-1m57 0 1 1-1-1z"
        style="fill: #69c3ff; stroke: none"
    />
    <path
        d="m165 268 1 1-1-1m55 0 1 1-1-1z"
        style="fill: #737d87; stroke: none"
    />
    <path
        d="m221 268 1 1-1-1m57 0 1 1-1-1z"
        style="fill: #69c3ff; stroke: none"
    />
    <path d="m302 268 1 1-1-1z" style="fill: #737d87; stroke: none" />
    <path d="m106 269 1 1-1-1z" style="fill: #69c3ff; stroke: none" />
    <path
        d="m162 269 1 1-1-1m61 0 1 1-1-1z"
        style="fill: #737d87; stroke: none"
    />
    <path
        d="m224 269 1 1-1-1m55 0 1 1-1-1z"
        style="fill: #69c3ff; stroke: none"
    />
    <path d="M299 269v2l2-2h-2z" style="fill: #737d87; stroke: none" />
    <path
        d="m105 270 1 1-1-1m54 0 1 1-1-1z"
        style="fill: #69c3ff; stroke: none"
    />
    <path
        d="m160 270 1 1-1-1m65 0 1 1-1-1z"
        style="fill: #737d87; stroke: none"
    />
    <path
        d="m226 270 1 1-1-1m54 0 1 1-1-1z"
        style="fill: #69c3ff; stroke: none"
    />
    <path
        d="m104 271 1 1-1-1m54 0 1 1-1-1m69 0 1 1-1-1z"
        style="fill: #737d87; stroke: none"
    />
    <path
        d="m228 271 1 1-1-1m53 0 1 1-1-1z"
        style="fill: #69c3ff; stroke: none"
    />
    <path
        d="m103 272 1 1-1-1m53 0 1 1-1-1m73 0 1 1-1-1m53 0 1 1-1-1m18 0 1 1-1-1m195.333.667.334.666-.334-.666z"
        style="fill: #737d87; stroke: none"
    />
    <path
        d="m154 273 1 1-1-1m77 0 1 1-1-1z"
        style="fill: #69c3ff; stroke: none"
    />
    <path
        d="m283 273 1 1-1-1m-130 1 1 1-1-1m79 0 1 1-1-1m69 0 1 1-1-1z"
        style="fill: #737d87; stroke: none"
    />
    <path d="m101 275 1 1-1-1z" style="fill: #69c3ff; stroke: none" />
    <path d="m152 275 1 1-1-1z" style="fill: #737d87; stroke: none" />
    <path
        d="m234 275 1 1-1-1m50 0 1 1-1-1z"
        style="fill: #69c3ff; stroke: none"
    />
    <path d="m100 276 1 1-1-1z" style="fill: #737d87; stroke: none" />
    <path
        d="m150 276 1 1-1-1m85 0 1 1-1-1z"
        style="fill: #69c3ff; stroke: none"
    />
    <path
        d="m285 276 1 1-1-1m17.333.667.334.666-.334-.666M494 276l1 1-1-1z"
        style="fill: #737d87; stroke: none"
    />
    <path
        d="m149 277 1 1-1-1m87 0 1 1-1-1z"
        style="fill: #69c3ff; stroke: none"
    />
    <path d="m99 278 1 1-1-1z" style="fill: #737d87; stroke: none" />
    <path d="m148 278 1 1-1-1z" style="fill: #69c3ff; stroke: none" />
    <path d="M190 278v1h6l-6-1z" style="fill: #737d87; stroke: none" />
    <path
        d="m237 278 1 1-1-1m49 0 1 1-1-1m-139 1 1 1-1-1z"
        style="fill: #69c3ff; stroke: none"
    />
    <path d="M181 279v1h3l-3-1z" style="fill: #737d87; stroke: none" />
    <path
        d="M169 314c4.079 1.147 10.614 3.907 14.791 2.358 3.29-1.22 4.634-4.913 8.224-5.924 6.718-1.893 14.147-1.1 20.985-3.208 12.234-3.772 22.818-14.85 7-22.849-13.839-6.997-32.4-7.037-47-2.656-5.445 1.635-13.152 4.379-15.239 10.294C154.419 301.482 170.36 303.93 169 314z"
        style="fill: #ff738a; stroke: none"
    />
    <path d="M202 279v1h3l-3-1z" style="fill: #737d87; stroke: none" />
    <path d="m238 279 1 1-1-1z" style="fill: #69c3ff; stroke: none" />
    <path
        d="m303 279 1 1-1-1m190 0 1 1-1-1z"
        style="fill: #737d87; stroke: none"
    />
    <path d="m98 280 1 1-1-1z" style="fill: #69c3ff; stroke: none" />
    <path
        d="m176.667 280.333.666.334-.666-.334m32 0 .666.334-.666-.334z"
        style="fill: #737d87; stroke: none"
    />
    <path d="m287 280 1 1-1-1z" style="fill: #69c3ff; stroke: none" />
    <path
        d="m146 281 1 1-1-1m26.667.333.666.334-.666-.334m40 0 .666.334-.666-.334M492 281l1 1-1-1m-395 1 1 1-1-1m48 0 1 1-1-1m25 0 1 1-1-1m45 0 1 1-1-1m25 0 1 1-1-1z"
        style="fill: #737d87; stroke: none"
    />
    <path d="m288 282 1 1-1-1z" style="fill: #69c3ff; stroke: none" />
    <path
        d="m304.333 282.667.334.666-.334-.666M167 283l1 1-1-1m51 0 1 1-1-1z"
        style="fill: #737d87; stroke: none"
    />
    <path d="m241 283 1 1-1-1z" style="fill: #69c3ff; stroke: none" />
    <path
        d="m491 283 1 1-1-1m-395 1 1 1-1-1m48 0 1 1-1-1m21 0 1 1-1-1m55 0 1 1-1-1m21 0 1 1-1-1m48 0 1 1-1-1z"
        style="fill: #737d87; stroke: none"
    />
    <path
        d="m96 285 1 1-1-1m47 0 1 1-1-1m99 0 1 1-1-1m47 0 1 1-1-1z"
        style="fill: #69c3ff; stroke: none"
    />
    <path
        d="m490 285 1 1-1-1m-347 1 1 1-1-1m19 0 1 1-1-1m61 0 1 1-1-1m19 0 1 1-1-1m63 0v3h1l-1-3m-14.667 1.667.334.666-.334-.666M489 287l1 1-1-1m-394 1 1 1-1-1z"
        style="fill: #737d87; stroke: none"
    />
    <path
        d="m142 288 1 1-1-1m101 0 1 1-1-1z"
        style="fill: #69c3ff; stroke: none"
    />
    <path d="m364 288 1 1-1-1z" style="fill: #737d87; stroke: none" />
    <path d="M95 289v3h1l-1-3z" style="fill: #69c3ff; stroke: none" />
    <path
        d="m142 289 1 1-1-1m101 0 1 1-1-1z"
        style="fill: #737d87; stroke: none"
    />
    <path
        d="m290.333 289.667.334.666-.334-.666z"
        style="fill: #69c3ff; stroke: none"
    />
    <path
        d="M351 289v1h4l-4-1m23 0v1h4l-4-1z"
        style="fill: #737d87; stroke: none"
    />
    <path d="m79 290 1 1-1-1z" style="fill: #ff738a; stroke: none" />
    <path
        d="M80 290v10h1l-1-10m265 0v1h3l-3-1m35 0v1h3l-3-1m107 0 1 1-1-1m-410 1 1 1-1-1z"
        style="fill: #737d87; stroke: none"
    />
    <path
        d="M80 291c-7.553 2.863-14.298 8.532-21 13-16.746 11.164-51.014 25.28-42.034 51C25.97 380.788 51.19 368.348 66 357.13c4.272-3.236 11.382-6.948 13.397-12.169C81.249 340.158 80 333.086 80 328v-37z"
        style="fill: #c3cfd9; stroke: none"
    />
    <path
        d="m157 291 1 1-1-1m71 0 1 1-1-1m113.667.333.666.334-.666-.334m44 0 .666.334-.666-.334z"
        style="fill: #737d87; stroke: none"
    />
    <path d="m76 292 1 1-1-1z" style="fill: #ff738a; stroke: none" />
    <path d="M244 292v5h1l-1-5z" style="fill: #69c3ff; stroke: none" />
    <path
        d="m338 292 1 1-1-1m51.667.333.666.334-.666-.334M74 293l1 1-1-1z"
        style="fill: #737d87; stroke: none"
    />
    <path d="M141 293v3h1l-1-3z" style="fill: #69c3ff; stroke: none" />
    <path
        d="m335 293 1 1-1-1m57.667.333.666.334-.666-.334z"
        style="fill: #737d87; stroke: none"
    />
    <path d="m73 294 1 1-1-1z" style="fill: #ff738a; stroke: none" />
    <path
        d="m229 294 1 1-1-1m103 0 1 1-1-1m63.667.333.666.334-.666-.334M71 295l1 1-1-1m259 0 1 1-1-1m68 0 1 1-1-1m85 0 1 1-1-1z"
        style="fill: #737d87; stroke: none"
    />
    <path d="m70 296 1 1-1-1z" style="fill: #ff738a; stroke: none" />
    <path
        d="m327 296 1 1-1-1m73 0 1 1-1-1m-332 1 1 1-1-1z"
        style="fill: #737d87; stroke: none"
    />
    <path
        d="m95.333 297.667.334.666-.334-.666z"
        style="fill: #69c3ff; stroke: none"
    />
    <path
        d="m157 297 1 1-1-1m71 0 1 1-1-1m97 0 1 1-1-1m78 0 1 1-1-1z"
        style="fill: #737d87; stroke: none"
    />
    <path d="m67 298 1 1-1-1z" style="fill: #ff738a; stroke: none" />
    <path d="m158 298 1 1-1-1z" style="fill: #737d87; stroke: none" />
    <path
        d="m290.333 298.667.334.666-.334-.666z"
        style="fill: #69c3ff; stroke: none"
    />
    <path
        d="m323 298 1 1-1-1m-258 1 1 1-1-1m30.333.667.334.666-.334-.666M142 299l1 1-1-1m101 0 1 1-1-1m78 0 1 1-1-1m157 0 1 1-1-1z"
        style="fill: #737d87; stroke: none"
    />
    <path d="m64 300 1 1-1-1z" style="fill: #ff738a; stroke: none" />
    <path
        d="m142 300 1 1-1-1m101 0 1 1-1-1z"
        style="fill: #69c3ff; stroke: none"
    />
    <path
        d="m290 300 1 1-1-1m118 0 1 1-1-1m69 0 1 1-1-1m-415 1 1 1-1-1m99 0 1 1-1-1m63 0 1 1-1-1m94 0 1 1-1-1m92 0 1 1-1-1z"
        style="fill: #737d87; stroke: none"
    />
    <path d="m61 302 1 1-1-1z" style="fill: #ff738a; stroke: none" />
    <path
        d="m143 302 1 1-1-1m19 0 1 1-1-1m61 0 1 1-1-1m19 0 1 1-1-1m74 0 1 1-1-1m96 0 1 1-1-1m62 0 1 1-1-1m-415 1 1 1-1-1m37.333.667.334.666-.334-.666M164 303l1 1-1-1m57 0 1 1-1-1z"
        style="fill: #737d87; stroke: none"
    />
    <path
        d="m242 303 1 1-1-1m47 0 1 1-1-1z"
        style="fill: #69c3ff; stroke: none"
    />
    <path
        d="m315 303 1 1-1-1m47 0v1h4l-4-1m51 0 1 1-1-1z"
        style="fill: #737d87; stroke: none"
    />
    <path d="m58 304 1 1-1-1z" style="fill: #ff738a; stroke: none" />
    <path
        d="m144 304 1 1-1-1m75 0 1 1-1-1m22 0 1 1-1-1m48 0 1 1-1-1m24 0 1 1-1-1m39.667.333.666.334-.666-.334z"
        style="fill: #737d87; stroke: none"
    />
    <path
        d="M369 405c-3.186-10.085-10.479-19.059-10.959-30-1.367-31.173 29.503-30.017 50.959-34.662 11.836-2.563 22.757-6.978 34-11.338-7.527-3.617-16.999-3.336-25-6.605-9.038-3.693-16.834-9.822-26-13.33-23.714-9.078-48.716-5.716-70 7.616-4.186 2.621-11.07 4.459-14.397 8.018C304.381 328.146 306 336.63 306 341v45c0 4.165-1.935 15.073 1.603 17.986 8.603 7.082 21.918-5.557 30.397-5.939 11.382-.513 19.184 9.668 31 6.953z"
        style="fill: #69c3ff; stroke: none"
    />
    <path
        d="M374 304v1h3l-3-1m41 0 1 1-1-1m56 0 1 1-1-1m-415 1 1 1-1-1z"
        style="fill: #737d87; stroke: none"
    />
    <path d="m97 305 1 1-1-1z" style="fill: #69c3ff; stroke: none" />
    <path
        d="m167 305 1 1-1-1m50 0 1 1-1-1m130 0 1 1-1-1m33.667.333.666.334-.666-.334M417 305l1 1-1-1m52 0 1 1-1-1z"
        style="fill: #737d87; stroke: none"
    />
    <path d="m55 306 1 1-1-1z" style="fill: #ff738a; stroke: none" />
    <path d="m97 306 1 1-1-1z" style="fill: #737d87; stroke: none" />
    <path d="m145 306 1 1-1-1z" style="fill: #69c3ff; stroke: none" />
    <path
        d="m215 306 1 1-1-1m25 0 1 1-1-1m48 0 1 1-1-1m22 0 1 1-1-1m33 0 1 1-1-1m41 0 1 1-1-1m34 0 1 1-1-1m49 0 1 1-1-1m-414 1 1 1-1-1m93 0 1 1-1-1m22 0 1 1-1-1m44 0 1 1-1-1m27 0 1 1-1-1m69 0 1 1-1-1m32 0 1 1-1-1m47 0 1 1-1-1m33 0 1 1-1-1m45 0 1 1-1-1z"
        style="fill: #737d87; stroke: none"
    />
    <path d="m52 308 1 1-1-1z" style="fill: #ff738a; stroke: none" />
    <path
        d="m98 308 1 1-1-1m109.667.333.666.334-.666-.334z"
        style="fill: #737d87; stroke: none"
    />
    <path d="m287 308 1 1-1-1z" style="fill: #69c3ff; stroke: none" />
    <path
        d="m306 308 1 1-1-1m31 0 1 1-1-1m53 0 1 1-1-1m33 0 1 1-1-1m40 0 1 1-1-1m-413 1 1 1-1-1m119 0v4h1l-1-4m32 0v1h3l-3-1z"
        style="fill: #737d87; stroke: none"
    />
    <path d="m238 309 1 1-1-1z" style="fill: #69c3ff; stroke: none" />
    <path
        d="m335 309 1 1-1-1m58 0 1 1-1-1m32 0 1 1-1-1m35 0 1 1-1-1z"
        style="fill: #737d87; stroke: none"
    />
    <path d="m489 311 3-1-3 1z" style="fill: #69c3ff; stroke: none" />
    <path d="m49 310 1 1-1-1z" style="fill: #ff738a; stroke: none" />
    <path d="m99 310 1 1-1-1z" style="fill: #737d87; stroke: none" />
    <path d="m148 310 1 1-1-1z" style="fill: #69c3ff; stroke: none" />
    <path
        d="m190.667 310.333.666.334-.666-.334z"
        style="fill: #737d87; stroke: none"
    />
    <path d="m237 310 1 1-1-1z" style="fill: #69c3ff; stroke: none" />
    <path
        d="m286 310 1 1-1-1m109 0 1 1-1-1m33 0 1 1-1-1m28.667.333.666.334-.666-.334z"
        style="fill: #737d87; stroke: none"
    />
    <path
        d="M369 405c7.426-1.78 14.081-8.441 22-7.659 11.266 1.113 18.635 10.595 31 7.021 10.509-3.038 13.149-13.797 21.004-19.968 7.753-6.093 18.349-3.685 25.811-10.723 8.778-8.28 4.272-17.823 7.409-27.671 2.545-7.991 9.818-11.957 13.702-19.001 3.081-5.587 2.548-10.948 2.074-16.999-7.666 2.585-13.43 9.195-21 12.384-9.215 3.883-18.609 3.617-28 6.249-11.904 3.337-22.76 9.055-35 11.705-14.921 3.23-32.888.3-43.471 13.677-13.181 16.661-3.14 34.607 4.471 50.985z"
        style="fill: #c3cfd9; stroke: none"
    />
    <path d="m47 311 1 1-1-1z" style="fill: #737d87; stroke: none" />
    <path d="m100 311 1 1-1-1z" style="fill: #69c3ff; stroke: none" />
    <path d="m188 311 1 1-1-1z" style="fill: #737d87; stroke: none" />
    <path d="m236 311 1 1-1-1z" style="fill: #69c3ff; stroke: none" />
    <path
        d="m397 311 1 1-1-1m34 0v1h3l-3-1m21.667.333.666.334-.666-.334m39.666.334.334.666-.334-.666z"
        style="fill: #737d87; stroke: none"
    />
    <path d="m46 312 1 1-1-1z" style="fill: #ff738a; stroke: none" />
    <path
        d="m100 312 1 1-1-1m51 0 1 1-1-1m36 0 1 1-1-1z"
        style="fill: #737d87; stroke: none"
    />
    <path d="m235 312 1 1-1-1z" style="fill: #69c3ff; stroke: none" />
    <path
        d="m285 312 1 1-1-1m114 0 1 1-1-1m38 0v1h11l-11-1m49 0 1 1-1-1m-442 1 1 1-1-1m57 0 1 1-1-1m51 0 1 1-1-1m81 0 1 1-1-1z"
        style="fill: #737d87; stroke: none"
    />
    <path d="m284 313 1 1-1-1z" style="fill: #69c3ff; stroke: none" />
    <path
        d="m327 313 1 1-1-1m74 0 1 1-1-1m84 0 1 1-1-1z"
        style="fill: #737d87; stroke: none"
    />
    <path
        d="m492.333 313.667.334.666-.334-.666z"
        style="fill: #69c3ff; stroke: none"
    />
    <path d="m43 314 1 1-1-1z" style="fill: #ff738a; stroke: none" />
    <path
        d="m102 314 1 1-1-1m51 0 1 1-1-1z"
        style="fill: #69c3ff; stroke: none"
    />
    <path
        d="m168 314 1 1-1-1m18 0 1 1-1-1m46 0 1 1-1-1z"
        style="fill: #737d87; stroke: none"
    />
    <path d="m283 314 1 1-1-1z" style="fill: #69c3ff; stroke: none" />
    <path
        d="m325 314 1 1-1-1m78 0 1 1-1-1z"
        style="fill: #737d87; stroke: none"
    />
    <path d="m484 314 1 1-1-1z" style="fill: #69c3ff; stroke: none" />
    <path
        d="m41 315 1 1-1-1m114 0 1 1-1-1m75 0 1 1-1-1z"
        style="fill: #737d87; stroke: none"
    />
    <path d="m231 315 1 1-1-1z" style="fill: #69c3ff; stroke: none" />
    <path d="m482 315 1 1-1-1z" style="fill: #737d87; stroke: none" />
    <path d="m40 316 1 1-1-1z" style="fill: #ff738a; stroke: none" />
    <path d="m103 316 1 1-1-1z" style="fill: #737d87; stroke: none" />
    <path d="m156 316 1 1-1-1z" style="fill: #69c3ff; stroke: none" />
    <path
        d="m185.333 316.667.334.666-.334-.666z"
        style="fill: #737d87; stroke: none"
    />
    <path d="m229 316 1 1-1-1z" style="fill: #69c3ff; stroke: none" />
    <path
        d="m282 316 1 1-1-1m40 0 1 1-1-1m84 0 1 1-1-1m75 0 1 1-1-1m-443 1 1 1-1-1m66 0 1 1-1-1z"
        style="fill: #737d87; stroke: none"
    />
    <path d="m158 317 1 1-1-1z" style="fill: #69c3ff; stroke: none" />
    <path
        d="m165 317 1 1-1-1m62 0 1 1-1-1m54 0 1 1-1-1m127 0 1 1-1-1z"
        style="fill: #737d87; stroke: none"
    />
    <path d="m480 317 1 1-1-1z" style="fill: #69c3ff; stroke: none" />
    <path d="m37 318 1 1-1-1z" style="fill: #ff738a; stroke: none" />
    <path d="m105 318 1 1-1-1z" style="fill: #737d87; stroke: none" />
    <path
        d="M161 318v1h3l-3-1m24.333.667.334.666-.334-.666z"
        style="fill: #69c3ff; stroke: none"
    />
    <path d="m225 318 1 1-1-1z" style="fill: #737d87; stroke: none" />
    <path d="m280 318 1 1-1-1z" style="fill: #69c3ff; stroke: none" />
    <path
        d="m319 318 1 1-1-1m159 0 1 1-1-1m-443 1 1 1-1-1z"
        style="fill: #737d87; stroke: none"
    />
    <path
        d="m106 319 1 1-1-1m117 0 1 1-1-1m56 0 1 1-1-1z"
        style="fill: #69c3ff; stroke: none"
    />
    <path
        d="m317 319 1 1-1-1m94 0 1 1-1-1m65 0 1 1-1-1z"
        style="fill: #737d87; stroke: none"
    />
    <path
        d="m492.333 319.667.334.666-.334-.666z"
        style="fill: #69c3ff; stroke: none"
    />
    <path d="m34 320 1 1-1-1z" style="fill: #ff738a; stroke: none" />
    <path d="m107 320 1 1-1-1z" style="fill: #69c3ff; stroke: none" />
    <path d="m220 320 1 1-1-1z" style="fill: #737d87; stroke: none" />
    <path
        d="m221 320 1 1-1-1m57 0 1 1-1-1z"
        style="fill: #69c3ff; stroke: none"
    />
    <path
        d="m315 320 1 1-1-1m98 0 1 1-1-1m61 0 1 1-1-1z"
        style="fill: #737d87; stroke: none"
    />
    <path d="m475 320 1 1-1-1z" style="fill: #69c3ff; stroke: none" />
    <path
        d="m32 321 1 1-1-1m76 0 1 1-1-1z"
        style="fill: #737d87; stroke: none"
    />
    <path d="m186 321 1 1-1-1z" style="fill: #69c3ff; stroke: none" />
    <path d="m217 321 1 1-1-1z" style="fill: #737d87; stroke: none" />
    <path
        d="m218 321 1 1-1-1m59 0 1 1-1-1z"
        style="fill: #69c3ff; stroke: none"
    />
    <path
        d="m313 321 1 1-1-1m102 0 1 1-1-1m57 0 1 1-1-1z"
        style="fill: #737d87; stroke: none"
    />
    <path d="m473 321 1 1-1-1z" style="fill: #69c3ff; stroke: none" />
    <path d="m492 321 1 1-1-1z" style="fill: #737d87; stroke: none" />
    <path d="m31 322 1 1-1-1z" style="fill: #ff738a; stroke: none" />
    <path
        d="m109 322 1 1-1-1m78 0 1 1-1-1m26.667.333.666.334-.666-.334z"
        style="fill: #737d87; stroke: none"
    />
    <path d="m215 322 1 1-1-1z" style="fill: #69c3ff; stroke: none" />
    <path
        d="m276 322 1 1-1-1m35 0 1 1-1-1m159 0 1 1-1-1m-441 1 1 1-1-1m81 0 1 1-1-1m78 0 1 1-1-1m21 0 1 1-1-1z"
        style="fill: #737d87; stroke: none"
    />
    <path
        d="m210.667 323.333.666.334-.666-.334z"
        style="fill: #69c3ff; stroke: none"
    />
    <path
        d="m275 323 1 1-1-1m33 0 1 1-1-1m112 0 1 1-1-1m47 0 1 1-1-1z"
        style="fill: #737d87; stroke: none"
    />
    <path
        d="m468 323 1 1-1-1m23 0 1 1-1-1z"
        style="fill: #69c3ff; stroke: none"
    />
    <path d="m28 324 1 1-1-1z" style="fill: #ff738a; stroke: none" />
    <path d="m189 324 1 1-1-1z" style="fill: #69c3ff; stroke: none" />
    <path
        d="m190 324 1 1-1-1m11 0v1h3l-3-1z"
        style="fill: #737d87; stroke: none"
    />
    <path
        d="m204.667 324.333.666.334-.666-.334z"
        style="fill: #69c3ff; stroke: none"
    />
    <path
        d="m274 324 1 1-1-1m32 0 1 1-1-1m117 0 1 1-1-1m41 0 1 1-1-1z"
        style="fill: #737d87; stroke: none"
    />
    <path d="m465 324 1 1-1-1z" style="fill: #69c3ff; stroke: none" />
    <path
        d="m491 324 1 1-1-1m-465 1 1 1-1-1z"
        style="fill: #737d87; stroke: none"
    />
    <path
        d="m113 325 1 1-1-1m159 0 1 1-1-1z"
        style="fill: #69c3ff; stroke: none"
    />
    <path
        d="m426.667 325.333.666.334-.666-.334M460 325l1 1-1-1z"
        style="fill: #737d87; stroke: none"
    />
    <path
        d="m461.667 325.333.666.334-.666-.334M25 326l1 1-1-1z"
        style="fill: #69c3ff; stroke: none"
    />
    <path d="m114 326 1 1-1-1z" style="fill: #737d87; stroke: none" />
    <path d="m271 326 1 1-1-1z" style="fill: #69c3ff; stroke: none" />
    <path
        d="M430 326v1h3l-3-1m24 0v1h3l-3-1z"
        style="fill: #737d87; stroke: none"
    />
    <path d="m457 326 1 1-1-1z" style="fill: #69c3ff; stroke: none" />
    <path
        d="m490 326 1 1-1-1m-375 1 1 1-1-1m155 0 1 1-1-1m168 0v1h10l-10-1z"
        style="fill: #737d87; stroke: none"
    />
    <path
        d="M448 327v1h3l-3-1m-331 1 1 1-1-1m151 0 1 1-1-1z"
        style="fill: #69c3ff; stroke: none"
    />
    <path
        d="m489 328 1 1-1-1m-371 1 1 1-1-1m149 0 1 1-1-1m221 0 1 1-1-1z"
        style="fill: #737d87; stroke: none"
    />
    <path d="m21 330 1 1-1-1z" style="fill: #ff738a; stroke: none" />
    <path
        d="M95 330v51c0 8.681-1.382 18.692 1.548 27 7.61 21.583 33.533 34.16 54.452 39v-1c-5.657-7.428-4-23.939-4-33-17.919-3.628-6.371-36.923 5-22h1c7.881-18.614 35.953-24.335 54-27v-1c-29.209 0-57.09-1.53-84-14.32-10.328-4.909-18.438-12.7-28-18.68z"
        style="fill: #737d87; stroke: none"
    />
    <path
        d="m120 330 1 1-1-1m145 0 1 1-1-1m25 0c-17.018 16.877-39.657 26.388-63 30.739-19.584 3.651-44.882 4.723-62 15.809-14.207 9.2-8.692 17.057-12.434 30.437-.876 3.134-3.736 4.567-4.966 7.39-1.918 4.397-.427 11.054.115 15.625.515 4.356-.761 13.72 3.603 16.347 13.453 8.1 39.753 6.267 54.682 4.823 28.959-2.803 70.647-11.233 82.533-42.17 5.168-13.452 2.467-30.826 2.467-45 0-9.847 2.808-24.926-1-34m197 0 1 1-1-1z"
        style="fill: #69c3ff; stroke: none"
    />
    <path d="m20 331 1 1-1-1z" style="fill: #737d87; stroke: none" />
    <path
        d="m122 331 1 1-1-1m141 0 1 1-1-1z"
        style="fill: #69c3ff; stroke: none"
    />
    <path d="m264 331 1 1-1-1z" style="fill: #737d87; stroke: none" />
    <path d="m486 331 1 1-1-1z" style="fill: #69c3ff; stroke: none" />
    <path
        d="m123 332 1 1-1-1m139 0 1 1-1-1m-137 1 1 1-1-1m135 0 1 1-1-1m26 0 1 1-1-1m-268 1 1 1-1-1m109 0 1 1-1-1m131 0 1 1-1-1m27 0 1 1-1-1z"
        style="fill: #737d87; stroke: none"
    />
    <path d="m483 334 1 1-1-1z" style="fill: #69c3ff; stroke: none" />
    <path
        d="m129 335 1 1-1-1m127 0 1 1-1-1m28 0 1 1-1-1z"
        style="fill: #737d87; stroke: none"
    />
    <path d="m482 335 1 1-1-1z" style="fill: #69c3ff; stroke: none" />
    <path
        d="m17 336 1 1-1-1m114 0 1 1-1-1z"
        style="fill: #737d87; stroke: none"
    />
    <path d="m132 336 1 1-1-1z" style="fill: #69c3ff; stroke: none" />
    <path
        d="m254 336 1 1-1-1m29 0 1 1-1-1z"
        style="fill: #737d87; stroke: none"
    />
    <path d="m481 336 1 1-1-1z" style="fill: #69c3ff; stroke: none" />
    <path d="m133 337 1 1-1-1z" style="fill: #737d87; stroke: none" />
    <path
        d="m134 337 1 1-1-1m117 0 1 1-1-1z"
        style="fill: #69c3ff; stroke: none"
    />
    <path d="m252 337 1 1-1-1z" style="fill: #737d87; stroke: none" />
    <path d="m480 337 1 1-1-1z" style="fill: #69c3ff; stroke: none" />
    <path
        d="m136 338 1 1-1-1m113 0 1 1-1-1m31 0 1 1-1-1m-264 1 1 1-1-1m122 0 1 1-1-1z"
        style="fill: #737d87; stroke: none"
    />
    <path
        d="m139 339 1 1-1-1m107 0 1 1-1-1z"
        style="fill: #69c3ff; stroke: none"
    />
    <path
        d="m247 339 1 1-1-1m32 0 1 1-1-1m200 0 1 1-1-1m-338 1 1 1-1-1z"
        style="fill: #737d87; stroke: none"
    />
    <path
        d="m142 340 1 1-1-1m101 0 1 1-1-1z"
        style="fill: #69c3ff; stroke: none"
    />
    <path
        d="m244 340 1 1-1-1m33 0 1 1-1-1z"
        style="fill: #737d87; stroke: none"
    />
    <path d="m478 340 1 1-1-1z" style="fill: #69c3ff; stroke: none" />
    <path d="m144 341 1 1-1-1z" style="fill: #737d87; stroke: none" />
    <path
        d="m145 341 1 1-1-1m95 0 1 1-1-1z"
        style="fill: #69c3ff; stroke: none"
    />
    <path
        d="m241 341 1 1-1-1m35 0 1 1-1-1m-261 1v3h1l-1-3m132 0 1 1-1-1z"
        style="fill: #737d87; stroke: none"
    />
    <path
        d="m148 342 1 1-1-1m89 0 1 1-1-1z"
        style="fill: #69c3ff; stroke: none"
    />
    <path
        d="m238 342 1 1-1-1m36 0 1 1-1-1m203 0 1 1-1-1m-326 1 1 1-1-1z"
        style="fill: #737d87; stroke: none"
    />
    <path
        d="m152 343 1 1-1-1m81 0 1 1-1-1z"
        style="fill: #69c3ff; stroke: none"
    />
    <path
        d="m234 343 1 1-1-1m39 0 1 1-1-1m-118.333 1.333.666.334-.666-.334z"
        style="fill: #737d87; stroke: none"
    />
    <path
        d="m156.667 344.333.666.334-.666-.334M229 344l1 1-1-1z"
        style="fill: #69c3ff; stroke: none"
    />
    <path
        d="m230.667 344.333.666.334-.666-.334M271 344l1 1-1-1z"
        style="fill: #737d87; stroke: none"
    />
    <path
        d="m476 344 1 1-1-1m-461 1 1 1-1-1z"
        style="fill: #69c3ff; stroke: none"
    />
    <path
        d="m159.667 345.333.666.334-.666-.334z"
        style="fill: #737d87; stroke: none"
    />
    <path
        d="m161 345 1 1-1-1m63 0 1 1-1-1z"
        style="fill: #69c3ff; stroke: none"
    />
    <path
        d="m225.667 345.333.666.334-.666-.334M269 345l1 1-1-1m207 0 1 1-1-1z"
        style="fill: #737d87; stroke: none"
    />
    <path d="m15 346 1 1-1-1z" style="fill: #ff738a; stroke: none" />
    <path d="m79 346 1 1-1-1z" style="fill: #69c3ff; stroke: none" />
    <path d="M164 346v1h3l-3-1z" style="fill: #737d87; stroke: none" />
    <path
        d="m167.667 346.333.666.334-.666-.334m50 0 .666.334-.666-.334z"
        style="fill: #69c3ff; stroke: none"
    />
    <path
        d="M219 346v1h3l-3-1m49 0 1 1-1-1z"
        style="fill: #737d87; stroke: none"
    />
    <path
        d="m15.333 347.667.334.666-.334-.666z"
        style="fill: #69c3ff; stroke: none"
    />
    <path
        d="m78 347 1 1-1-1m93 0v1h3l-3-1z"
        style="fill: #737d87; stroke: none"
    />
    <path
        d="M174 347v1h3l-3-1m35 0v1h3l-3-1z"
        style="fill: #69c3ff; stroke: none"
    />
    <path
        d="M212 347v1h3l-3-1m54 0 1 1-1-1m-189 1 1 1-1-1m104 0v1h9l-9-1z"
        style="fill: #737d87; stroke: none"
    />
    <path d="M190 348v1h6l-6-1z" style="fill: #69c3ff; stroke: none" />
    <path
        d="M196 348v1h9l-9-1m68 0 1 1-1-1z"
        style="fill: #737d87; stroke: none"
    />
    <path
        d="m475.333 348.667.334.666-.334-.666z"
        style="fill: #69c3ff; stroke: none"
    />
    <path d="M15 349v3h1l-1-3z" style="fill: #737d87; stroke: none" />
    <path d="m75 349 1 1-1-1z" style="fill: #ff738a; stroke: none" />
    <path
        d="m261.667 349.333.666.334-.666-.334M74 350l1 1-1-1m185 0 1 1-1-1m216 0 1 1-1-1m-402 1 1 1-1-1m184 0 1 1-1-1z"
        style="fill: #737d87; stroke: none"
    />
    <path d="M475 351v4h1l-1-4z" style="fill: #69c3ff; stroke: none" />
    <path
        d="m254.667 352.333.666.334-.666-.334M70 353l1 1-1-1m182 0 1 1-1-1m-236 1 1 1-1-1m53 0 1 1-1-1m180.667.333.666.334-.666-.334m-3 1 .666.334-.666-.334z"
        style="fill: #737d87; stroke: none"
    />
    <path d="m17 356 1 1-1-1z" style="fill: #ff738a; stroke: none" />
    <path d="m66 356 1 1-1-1z" style="fill: #69c3ff; stroke: none" />
    <path
        d="m243.667 356.333.666.334-.666-.334M17 357l1 1-1-1m48 0 1 1-1-1m174.667.333.666.334-.666-.334z"
        style="fill: #737d87; stroke: none"
    />
    <path d="m18 358 1 1-1-1z" style="fill: #ff738a; stroke: none" />
    <path
        d="m64 358 1 1-1-1m171 0v1h3l-3-1z"
        style="fill: #737d87; stroke: none"
    />
    <path d="m62 359 1 1-1-1z" style="fill: #ff738a; stroke: none" />
    <path
        d="m231.667 359.333.666.334-.666-.334z"
        style="fill: #737d87; stroke: none"
    />
    <path
        d="m475.333 359.667.334.666-.334-.666z"
        style="fill: #69c3ff; stroke: none"
    />
    <path
        d="m19 360 1 1-1-1m42 0 1 1-1-1m165 0v1h3l-3-1m-166 1 1 1-1-1m160 0v1h3l-3-1m255.333.667.334.666-.334-.666M212 362v1h5l-5-1m-191 1 1 1-1-1z"
        style="fill: #737d87; stroke: none"
    />
    <path d="m57 363 1 1-1-1z" style="fill: #69c3ff; stroke: none" />
    <path
        d="m22 364 1 1-1-1m34 0 1 1-1-1z"
        style="fill: #737d87; stroke: none"
    />
    <path d="m474 364 1 1-1-1z" style="fill: #69c3ff; stroke: none" />
    <path
        d="m23 365 1 1-1-1m56 0 1 1-1-1m395 0 1 1-1-1m-450 1 1 1-1-1m29 0 1 1-1-1z"
        style="fill: #737d87; stroke: none"
    />
    <path d="m78 366-1 2 1-2z" style="fill: #ff738a; stroke: none" />
    <path
        d="M79 366c-6.506 5.16-18.62 10.336-22.972 17.376C46.288 399.127 69.063 410.754 81 411l-2-45z"
        style="fill: #c3cfd9; stroke: none"
    />
    <path
        d="m26 367 1 1-1-1m25 0 1 1-1-1z"
        style="fill: #ff738a; stroke: none"
    />
    <path
        d="m76 367 1 1-1-1m397 0 1 1-1-1m-446 1 1 1-1-1m22 0 1 1-1-1m26 0 1 1-1-1m-45 1 1 1-1-1z"
        style="fill: #737d87; stroke: none"
    />
    <path d="m46 369 1 1-1-1z" style="fill: #69c3ff; stroke: none" />
    <path d="m47 369 1 1-1-1z" style="fill: #737d87; stroke: none" />
    <path d="m74 369 1 1-1-1z" style="fill: #ff738a; stroke: none" />
    <path
        d="m472 369 1 1-1-1m-438.333 1.333.666.334-.666-.334z"
        style="fill: #737d87; stroke: none"
    />
    <path
        d="m35 370 1 1-1-1m6 0 1 1-1-1z"
        style="fill: #ff738a; stroke: none"
    />
    <path
        d="m42.667 370.333.666.334-.666-.334M72 370l1 1-1-1z"
        style="fill: #737d87; stroke: none"
    />
    <path d="m73 370 1 1-1-1z" style="fill: #ff738a; stroke: none" />
    <path d="m471 370 1 1-1-1z" style="fill: #69c3ff; stroke: none" />
    <path d="m71 371 1 1-1-1z" style="fill: #737d87; stroke: none" />
    <path d="m70 372 1 1-1-1z" style="fill: #ff738a; stroke: none" />
    <path d="m68 373 1 1-1-1z" style="fill: #737d87; stroke: none" />
    <path d="m67 374 1 1-1-1z" style="fill: #ff738a; stroke: none" />
    <path d="m65 375 1 1-1-1z" style="fill: #737d87; stroke: none" />
    <path d="m66 375 1 1-1-1z" style="fill: #ff738a; stroke: none" />
    <path d="m466 375 1 1-1-1z" style="fill: #69c3ff; stroke: none" />
    <path
        d="m64 376 1 1-1-1m401 0 1 1-1-1z"
        style="fill: #737d87; stroke: none"
    />
    <path d="m63 377 1 1-1-1z" style="fill: #ff738a; stroke: none" />
    <path d="m463 377 1 1-1-1z" style="fill: #69c3ff; stroke: none" />
    <path d="m61 378 1 1-1-1z" style="fill: #737d87; stroke: none" />
    <path d="m461 378 1 1-1-1z" style="fill: #69c3ff; stroke: none" />
    <path d="m60 379 1 1-1-1z" style="fill: #ff738a; stroke: none" />
    <path
        d="m457.667 379.333.666.334-.666-.334z"
        style="fill: #69c3ff; stroke: none"
    />
    <path
        d="m459 379 1 1-1-1m-401 1 1 1-1-1z"
        style="fill: #737d87; stroke: none"
    />
    <path d="m59 380 1 1-1-1z" style="fill: #ff738a; stroke: none" />
    <path
        d="m450.667 380.333.666.334-.666-.334z"
        style="fill: #69c3ff; stroke: none"
    />
    <path d="M452 380v1h3l-3-1z" style="fill: #737d87; stroke: none" />
    <path d="m57 381 1 1-1-1z" style="fill: #ff738a; stroke: none" />
    <path
        d="m447.667 381.333.666.334-.666-.334M55 382l1 1-1-1m390 0 1 1-1-1m-391 1v9h1l-1-9m389 0 1 1-1-1m-1 1 1 1-1-1m-203 1v1h3l-3-1z"
        style="fill: #737d87; stroke: none"
    />
    <path
        d="M142.109 387.029c-8.085 4.488-5.354 31.429 6.782 24.788 8.133-4.45 5.365-31.532-6.782-24.788z"
        style="fill: #010101; stroke: none"
    />
    <path d="m236 386-2 3 2-3z" style="fill: #737d87; stroke: none" />
    <path
        d="M237.109 387.029c-8.084 4.488-5.405 31.592 6.758 24.788 8.076-4.518 5.423-31.552-6.758-24.788z"
        style="fill: #010101; stroke: none"
    />
    <path
        d="m244 386 1 1-1-1m1 1 1 1-1-1m1 1 1 1-1-1m192 0 1 1-1-1z"
        style="fill: #737d87; stroke: none"
    />
    <path d="m437 389 1 1-1-1z" style="fill: #69c3ff; stroke: none" />
    <path
        d="m233 390 1 1-1-1m14 0 1 1-1-1z"
        style="fill: #737d87; stroke: none"
    />
    <path d="m436 391 1 1-1-1z" style="fill: #69c3ff; stroke: none" />
    <path d="m435 393 1 1-1-1z" style="fill: #737d87; stroke: none" />
    <path d="m55 394 1 1-1-1z" style="fill: #ff738a; stroke: none" />
    <path
        d="M180 394v1h3l-3-1m23.667.333.666.334-.666-.334M305 394v10h1l-1-10m-249.667 1.667.334.666-.334-.666M178 395l1 1-1-1z"
        style="fill: #737d87; stroke: none"
    />
    <path
        d="M179.055 395.747c-7.182 2.821-4.223 10.891.13 14.724 6.242 5.494 15.319 6.495 22.815 3.166 6.143-2.729 15.794-15.587 3.985-18.159-5.549-1.209-8.772 5.566-13.985 4.552-4.784-.931-7.426-6.451-12.945-4.283z"
        style="fill: #010101; stroke: none"
    />
    <path
        d="m185 395 1 1-1-1m15.667.333.666.334-.666-.334M207 395l1 1-1-1m227 0 1 1-1-1m-258 1 1 1-1-1m10 0 1 1-1-1m13 0 1 1-1-1m10 0 1 1-1-1z"
        style="fill: #737d87; stroke: none"
    />
    <path d="m433 396 1 1-1-1z" style="fill: #69c3ff; stroke: none" />
    <path d="m56 397 1 1-1-1z" style="fill: #ff738a; stroke: none" />
    <path
        d="m175 397 1 1-1-1m12 0 1 1-1-1m11 0 1 1-1-1m12 0 1 1-1-1z"
        style="fill: #737d87; stroke: none"
    />
    <path
        d="M386 397v1h7l-7-1m46 0 1 1-1-1z"
        style="fill: #69c3ff; stroke: none"
    />
    <path
        d="m56 398 1 1-1-1m132 0 1 1-1-1m9 0 1 1-1-1m136.667.333.666.334-.666-.334M344 398l1 1-1-1z"
        style="fill: #737d87; stroke: none"
    />
    <path d="m383 398 1 1-1-1z" style="fill: #69c3ff; stroke: none" />
    <path
        d="m384 398 1 1-1-1m11 0 1 1-1-1z"
        style="fill: #737d87; stroke: none"
    />
    <path
        d="m396 398 1 1-1-1m35 0 1 1-1-1z"
        style="fill: #69c3ff; stroke: none"
    />
    <path d="m57 399 1 1-1-1z" style="fill: #ff738a; stroke: none" />
    <path
        d="m174.333 399.667.334.666-.334-.666M189 399l1 1-1-1m7 0 1 1-1-1m15 0 1 1-1-1m120 0 1 1-1-1m16 0 1 1-1-1m34 0 1 1-1-1m16 0 1 1-1-1z"
        style="fill: #737d87; stroke: none"
    />
    <path
        d="m398 399 1 1-1-1m32 0 1 1-1-1z"
        style="fill: #69c3ff; stroke: none"
    />
    <path
        d="m57 400 1 1-1-1m134 0v1h4l-4-1m138 0 1 1-1-1m20 0 1 1-1-1m30 0 1 1-1-1m20 0 1 1-1-1z"
        style="fill: #737d87; stroke: none"
    />
    <path
        d="m400 400 1 1-1-1m29 0 1 1-1-1z"
        style="fill: #69c3ff; stroke: none"
    />
    <path d="m58 401 1 1-1-1z" style="fill: #ff738a; stroke: none" />
    <path
        d="M290 401v4h1l-1-4m37 0 1 1-1-1z"
        style="fill: #737d87; stroke: none"
    />
    <path d="m377 401 1 1-1-1z" style="fill: #69c3ff; stroke: none" />
    <path
        d="m401 401 1 1-1-1m27 0 1 1-1-1m-348 1v3h1l-1-3m272 0 1 1-1-1m24 0 1 1-1-1z"
        style="fill: #737d87; stroke: none"
    />
    <path
        d="m403 402 1 1-1-1m23 0 1 1-1-1z"
        style="fill: #69c3ff; stroke: none"
    />
    <path
        d="m59 403 1 1-1-1m295 0 1 1-1-1m20 0 1 1-1-1m30 0 1 1-1-1z"
        style="fill: #737d87; stroke: none"
    />
    <path
        d="m405 403 1 1-1-1m19 0 1 1-1-1z"
        style="fill: #69c3ff; stroke: none"
    />
    <path
        d="m425 403 1 1-1-1m-365 1 1 1-1-1m114 0 1 1-1-1m37 0 1 1-1-1m95 0 1 1-1-1m15 0 1 1-1-1m35 0 1 1-1-1z"
        style="fill: #737d87; stroke: none"
    />
    <path d="m371 404 1 1-1-1z" style="fill: #69c3ff; stroke: none" />
    <path
        d="m372 404 1 1-1-1m35 0 1 1-1-1z"
        style="fill: #737d87; stroke: none"
    />
    <path d="m408 404 1 1-1-1z" style="fill: #69c3ff; stroke: none" />
    <path
        d="m422 404 1 1-1-1m-361 1 1 1-1-1z"
        style="fill: #737d87; stroke: none"
    />
    <path
        d="m80.333 405.667.334.666-.334-.666z"
        style="fill: #ff738a; stroke: none"
    />
    <path
        d="M309 405v1h4l-4-1m5 0v1h4l-4-1m46.667.333.666.334-.666-.334m7 0 .666.334-.666-.334m43 0 .666.334-.666-.334z"
        style="fill: #737d87; stroke: none"
    />
    <path d="M412 405v1h6l-6-1z" style="fill: #69c3ff; stroke: none" />
    <path
        d="m418.667 405.333.666.334-.666-.334M62 406l1 1-1-1z"
        style="fill: #737d87; stroke: none"
    />
    <path d="m63 406 1 1-1-1z" style="fill: #ff738a; stroke: none" />
    <path
        d="m175 406 1 1-1-1m35 0 1 1-1-1m79.333.667.334.666-.334-.666M64 407l1 1-1-1m112 0 1 1-1-1m71.333.667.334.666-.334-.666z"
        style="fill: #737d87; stroke: none"
    />
    <path d="m66 408 1 1-1-1z" style="fill: #ff738a; stroke: none" />
    <path
        d="m81.333 408.667.334.666-.334-.666M152 408l1 1-1-1m81 0 1 1-1-1m-165 1 1 1-1-1z"
        style="fill: #737d87; stroke: none"
    />
    <path d="m69 409 1 1-1-1z" style="fill: #ff738a; stroke: none" />
    <path
        d="m208 409 1 1-1-1m80.333.667.334.666-.334-.666m-216.666.666.666.334-.666-.334z"
        style="fill: #737d87; stroke: none"
    />
    <path
        d="m73.667 410.333.666.334-.666-.334M81 410l1 1-1-1z"
        style="fill: #ff738a; stroke: none"
    />
    <path
        d="m151 410 1 1-1-1m56 0 1 1-1-1m27 0 1 1-1-1m-156 1v1h4l-4-1m72 0 1 1-1-1m30 0 1 1-1-1m55 0 1 1-1-1m52.333.667.334.666-.334-.666M148 412l1 1-1-1m33 0 1 1-1-1m23 0 1 1-1-1m33 0 1 1-1-1m6 0 1 1-1-1m-60 1 1 1-1-1m19 0 1 1-1-1m84 0 1 1-1-1m-101 1 1 1-1-1m15 0 1 1-1-1m-12 1v1h3l-3-1m7 0v1h3l-3-1m90 0 1 1-1-1m-2 3 1 1-1-1m-1 1 1 1-1-1m-1 1 1 1-1-1m-6 6 1 1-1-1m-1 1 1 1-1-1m-1 1 1 1-1-1m-1 1 1 1-1-1m-2 1 1 1-1-1m-1 1 1 1-1-1m-2 1 1 1-1-1m-1 1 1 1-1-1m-2 1 1 1-1-1m-1 1 1 1-1-1m-2 1 1 1-1-1m-2 1 1 1-1-1m-2 1 1 1-1-1m-2 1 1 1-1-1m-2.333 1.333.666.334-.666-.334M250 441l1 1-1-1m-2.333 1.333.666.334-.666-.334M245 443l1 1-1-1m-3 1 1 1-1-1m-3 1 1 1-1-1m-3.333 1.333.666.334-.666-.334m-82 1 .666.334-.666-.334m78 0 .666.334-.666-.334M157 448v1h3l-3-1m69 0v1h3l-3-1m-64 1v1h3l-3-1m59 0v1h3l-3-1m-53 1v1h4l-4-1m46 0v1h4l-4-1m-38 1v1h7l-7-1m27 0v1h7l-7-1z"
        style="fill: #737d87; stroke: none"
    />
</svg>
