<?xml version="1.0" standalone="yes"?><svg
    xmlns="http://www.w3.org/2000/svg"
    width="512"
    height="512"
>
    <path d="M 313 61 l 1 1 l -1 -1 z" style="fill: #737d87; stroke: none" />
    <path d="M 314 61 v 1 h 5 l -5 -1 z" style="fill: #ff738a; stroke: none" />
    <path
        d="M 319.7 61.3 l 0.7 0.3 l -0.7 -0.3 z"
        style="fill: #737d87; stroke: none"
    />
    <path d="M 311 62 l -1 2 l 1 -2 z" style="fill: #ff738a; stroke: none" />
    <path
        d="M 214 182 c 15.1 -7.2 29.1 -18.7 43 -28 c 9.2 -6.1 20.7 -11.7 28.5 -19.5 c 9 -9 15.9 -22 23.2 -32.5 c 5.2 -7.6 28 -31 13.3 -38.8 c -12.9 -6.9 -24.9 15.9 -31.3 23.8 c -25.4 31.3 -53.9 61.8 -76.6 95 z"
        style="fill: #c3cfd9; stroke: none"
    />
    <path d="M 321 62 l 1 1 l -1 -1 z" style="fill: #ff738a; stroke: none" />
    <path
        d="M 322 62 l 1 1 l -1 -1 m -13 1 l 1 1 l -1 -1 m 14 0 l 1 1 l -1 -1 m -15 1 l 1 1 l -1 -1 m 16 0 l 1 1 l -1 -1 m 1 1 l 1 1 l -1 -1 z"
        style="fill: #737d87; stroke: none"
    />
    <path
        d="M 307 66 l 1 1 l -1 -1 m -1 1 l 1 1 l -1 -1 z"
        style="fill: #ff738a; stroke: none"
    />
    <path
        d="M 326 67 l 1 1 l -1 -1 m -21 1 l 1 1 l -1 -1 m -1 1 l 1 1 l -1 -1 m 23 0 v 6 h 1 l -1 -6 m -24 1 l 1 1 l -1 -1 z"
        style="fill: #737d87; stroke: none"
    />
    <path
        d="M 303 71 l 1 1 l -1 -1 m -1 1 l 1 1 l -1 -1 z"
        style="fill: #ff738a; stroke: none"
    />
    <path
        d="M 301 73 l 1 1 l -1 -1 m -1 1 l 1 1 l -1 -1 m -1 1 l 1 1 l -1 -1 z"
        style="fill: #737d87; stroke: none"
    />
    <path
        d="M 326 75 l 1 1 l -1 -1 m -27 1 l 1 1 l -1 -1 z"
        style="fill: #ff738a; stroke: none"
    />
    <path d="M 326 76 l 1 1 l -1 -1 z" style="fill: #737d87; stroke: none" />
    <path
        d="M 298 77 l 1 1 l -1 -1 m 27 0 l 1 1 l -1 -1 m -28 1 l 1 1 l -1 -1 z"
        style="fill: #ff738a; stroke: none"
    />
    <path
        d="M 325 78 l 1 1 l -1 -1 m -29 1 l 1 1 l -1 -1 z"
        style="fill: #737d87; stroke: none"
    />
    <path d="M 324 79 l 1 1 l -1 -1 z" style="fill: #ff738a; stroke: none" />
    <path d="M 295 80 l 1 1 l -1 -1 z" style="fill: #737d87; stroke: none" />
    <path
        d="M 323 80 l 1 1 l -1 -1 m -28 1 l 1 1 l -1 -1 z"
        style="fill: #ff738a; stroke: none"
    />
    <path d="M 323 81 l 1 1 l -1 -1 z" style="fill: #737d87; stroke: none" />
    <path d="M 294 82 l 1 1 l -1 -1 z" style="fill: #ff738a; stroke: none" />
    <path d="M 322 82 l 1 1 l -1 -1 z" style="fill: #737d87; stroke: none" />
    <path
        d="M 293 83 l 1 1 l -1 -1 m 28 0 l 1 1 l -1 -1 z"
        style="fill: #ff738a; stroke: none"
    />
    <path
        d="M 292 84 l 1 1 l -1 -1 m 29 0 l 1 1 l -1 -1 m -30 1 l 1 1 l -1 -1 m 29 0 l 1 1 l -1 -1 z"
        style="fill: #737d87; stroke: none"
    />
    <path
        d="M 319 86 l 1 1 l -1 -1 m -29 1 l 1 1 l -1 -1 m -1 1 l 1 1 l -1 -1 z"
        style="fill: #ff738a; stroke: none"
    />
    <path
        d="M 318 88 l 1 1 l -1 -1 m -30 1 l 1 1 l -1 -1 z"
        style="fill: #737d87; stroke: none"
    />
    <path d="M 317 89 l 1 1 l -1 -1 z" style="fill: #ff738a; stroke: none" />
    <path d="M 287 90 l 1 1 l -1 -1 z" style="fill: #737d87; stroke: none" />
    <path d="M 316 90 l 1 1 l -1 -1 z" style="fill: #ff738a; stroke: none" />
    <path
        d="M 286 91 l 1 1 l -1 -1 m 30 0 l 1 1 l -1 -1 z"
        style="fill: #737d87; stroke: none"
    />
    <path d="M 286 92 l 1 1 l -1 -1 z" style="fill: #ff738a; stroke: none" />
    <path d="M 315 92 l 1 1 l -1 -1 z" style="fill: #737d87; stroke: none" />
    <path
        d="M 285 93 l 1 1 l -1 -1 m 29 0 l 1 1 l -1 -1 z"
        style="fill: #ff738a; stroke: none"
    />
    <path
        d="M 284 94 l 1 1 l -1 -1 m -1 1 l 1 1 l -1 -1 m 30 0 l 1 1 l -1 -1 m -31 1 l 1 1 l -1 -1 z"
        style="fill: #737d87; stroke: none"
    />
    <path
        d="M 312 96 l 1 1 l -1 -1 m -30 1 l 1 1 l -1 -1 m 29 0 l 1 1 l -1 -1 m -30 1 l 1 1 l -1 -1 z"
        style="fill: #ff738a; stroke: none"
    />
    <path d="M 311 98 l 1 1 l -1 -1 z" style="fill: #737d87; stroke: none" />
    <path
        d="M 280 99 l 1 1 l -1 -1 m 30 0 l 1 1 l -1 -1 z"
        style="fill: #ff738a; stroke: none"
    />
    <path d="M 279 100 l 1 1 l -1 -1 z" style="fill: #737d87; stroke: none" />
    <path d="M 309 100 l 1 1 l -1 -1 z" style="fill: #ff738a; stroke: none" />
    <path
        d="M 278 101 l 1 1 l -1 -1 m 31 0 l 1 1 l -1 -1 z"
        style="fill: #737d87; stroke: none"
    />
    <path d="M 278 102 l 1 1 l -1 -1 z" style="fill: #ff738a; stroke: none" />
    <path d="M 308 102 l 1 1 l -1 -1 z" style="fill: #737d87; stroke: none" />
    <path
        d="M 277 103 l 1 1 l -1 -1 m 30 0 l 1 1 l -1 -1 m -31 1 l 1 1 l -1 -1 z"
        style="fill: #ff738a; stroke: none"
    />
    <path
        d="M 275 105 l 1 1 l -1 -1 m 31 0 l 1 1 l -1 -1 m 52 0 v 1 h 4 l -4 -1 m -84 1 l 1 1 l -1 -1 z"
        style="fill: #737d87; stroke: none"
    />
    <path d="M 305 106 l 1 1 l -1 -1 z" style="fill: #ff738a; stroke: none" />
    <path d="M 355 106 l 1 1 l -1 -1 z" style="fill: #737d87; stroke: none" />
    <path
        d="M 177 225 v 1 c 16.1 -1.3 32 -1 48 2 c 18.7 -27.7 45 -33.5 72 -49.2 c 13.5 -7.8 25.6 -19.5 38 -28.9 c 9.1 -6.9 18.1 -13.8 27 -20.9 c 3.9 -3.1 8.4 -6.6 8.7 -12 c 0.4 -7.9 -7.7 -12.6 -14.7 -10.3 c -11.8 3.9 -23.7 15.1 -34 22 c -47.8 31.9 -94.8 68.4 -145 96.3 z"
        style="fill: #c3cfd9; stroke: none"
    />
    <path
        d="M 364 106 l 1 1 l -1 -1 m -91 1 l 1 1 l -1 -1 z"
        style="fill: #737d87; stroke: none"
    />
    <path d="M 304 107 l 1 1 l -1 -1 z" style="fill: #ff738a; stroke: none" />
    <path
        d="M 353 107 l 1 1 l -1 -1 m 13 0 l 1 1 l -1 -1 z"
        style="fill: #737d87; stroke: none"
    />
    <path d="M 273 108 l 1 1 l -1 -1 z" style="fill: #ff738a; stroke: none" />
    <path
        d="M 304 108 l 1 1 l -1 -1 m 48 0 l 1 1 l -1 -1 m 15 0 l 1 1 l -1 -1 z"
        style="fill: #737d87; stroke: none"
    />
    <path
        d="M 272 109 l 1 1 l -1 -1 m 31 0 l 1 1 l -1 -1 z"
        style="fill: #ff738a; stroke: none"
    />
    <path
        d="M 368 109 l 1 1 l -1 -1 m -97 1 l 1 1 l -1 -1 z"
        style="fill: #737d87; stroke: none"
    />
    <path d="M 302 110 l 1 1 l -1 -1 z" style="fill: #ff738a; stroke: none" />
    <path
        d="M 349 110 l 1 1 l -1 -1 m 20 0 l 1 1 l -1 -1 m -99 1 l 1 1 l -1 -1 m 32 0 l 1 1 l -1 -1 m 45 0 l 1 1 l -1 -1 m -78 1 l 1 1 l -1 -1 m 32 0 l 1 1 l -1 -1 m 45 0 l 1 1 l -1 -1 m 24 0 l 1 1 l -1 -1 z"
        style="fill: #737d87; stroke: none"
    />
    <path
        d="M 269 113 l 1 1 l -1 -1 m 31 0 l 1 1 l -1 -1 z"
        style="fill: #ff738a; stroke: none"
    />
    <path d="M 370 113 l 1 1 l -1 -1 z" style="fill: #69c3ff; stroke: none" />
    <path d="M 268 114 l 1 1 l -1 -1 z" style="fill: #ff738a; stroke: none" />
    <path d="M 343 114 l 1 1 l -1 -1 z" style="fill: #737d87; stroke: none" />
    <path d="M 267 115 l 1 1 l -1 -1 z" style="fill: #ff738a; stroke: none" />
    <path
        d="M 299 115 l 1 1 l -1 -1 m 42 0 l 1 1 l -1 -1 m -75 1 l 1 1 l -1 -1 z"
        style="fill: #737d87; stroke: none"
    />
    <path d="M 298 116 l 1 1 l -1 -1 z" style="fill: #ff738a; stroke: none" />
    <path
        d="M 340 116 l 1 1 l -1 -1 m -75 1 l 1 1 l -1 -1 z"
        style="fill: #737d87; stroke: none"
    />
    <path d="M 297 117 l 1 1 l -1 -1 z" style="fill: #ff738a; stroke: none" />
    <path d="M 338 117 l 1 1 l -1 -1 z" style="fill: #737d87; stroke: none" />
    <path d="M 265 118 l 1 1 l -1 -1 z" style="fill: #ff738a; stroke: none" />
    <path
        d="M 297 118 l 1 1 l -1 -1 m 40 0 l 1 1 l -1 -1 z"
        style="fill: #737d87; stroke: none"
    />
    <path d="M 264 119 l 1 1 l -1 -1 z" style="fill: #ff738a; stroke: none" />
    <path d="M 296 119 l 1 1 l -1 -1 z" style="fill: #737d87; stroke: none" />
    <path d="M 370 119 l 1 1 l -1 -1 z" style="fill: #69c3ff; stroke: none" />
    <path
        d="M 263 120 l 1 1 l -1 -1 m 32 0 l 1 1 l -1 -1 z"
        style="fill: #ff738a; stroke: none"
    />
    <path
        d="M 334 120 l 1 1 l -1 -1 m 36 0 l 1 1 l -1 -1 m -108 1 l 1 1 l -1 -1 m 33 0 l 1 1 l -1 -1 m 37 0 l 1 1 l -1 -1 m -71 1 l 1 1 l -1 -1 m 33 0 l 1 1 l -1 -1 m 37 0 l 1 1 l -1 -1 m 38 0 l 1 1 l -1 -1 z"
        style="fill: #737d87; stroke: none"
    />
    <path d="M 293 123 l 1 1 l -1 -1 z" style="fill: #ff738a; stroke: none" />
    <path
        d="M 329 123 l 1 1 l -1 -1 m 39 0 l 1 1 l -1 -1 z"
        style="fill: #737d87; stroke: none"
    />
    <path d="M 260 124 l 1 1 l -1 -1 z" style="fill: #ff738a; stroke: none" />
    <path
        d="M 328 124 l 1 1 l -1 -1 m 39 0 l 1 1 l -1 -1 z"
        style="fill: #737d87; stroke: none"
    />
    <path d="M 259 125 l 1 1 l -1 -1 z" style="fill: #ff738a; stroke: none" />
    <path
        d="M 292 125 l 1 1 l -1 -1 m 34 0 l 1 1 l -1 -1 m 40 0 l 1 1 l -1 -1 m -108 1 l 1 1 l -1 -1 z"
        style="fill: #737d87; stroke: none"
    />
    <path d="M 291 126 l 1 1 l -1 -1 z" style="fill: #ff738a; stroke: none" />
    <path
        d="M 325 126 l 1 1 l -1 -1 m -68 1 l 1 1 l -1 -1 z"
        style="fill: #737d87; stroke: none"
    />
    <path d="M 290 127 l 1 1 l -1 -1 z" style="fill: #ff738a; stroke: none" />
    <path d="M 323 127 l 1 1 l -1 -1 z" style="fill: #737d87; stroke: none" />
    <path d="M 363 127 l 1 1 l -1 -1 z" style="fill: #ff738a; stroke: none" />
    <path
        d="M 256 128 l 1 1 l -1 -1 m 34 0 l 1 1 l -1 -1 m 32 0 l 1 1 l -1 -1 m 40 0 l 1 1 l -1 -1 z"
        style="fill: #737d87; stroke: none"
    />
    <path d="M 256 129 l 1 1 l -1 -1 z" style="fill: #ff738a; stroke: none" />
    <path
        d="M 289 129 l 1 1 l -1 -1 m 31 0 l 1 1 l -1 -1 m 41 0 l 1 1 l -1 -1 z"
        style="fill: #737d87; stroke: none"
    />
    <path
        d="M 255 130 l 1 1 l -1 -1 m 33 0 l 1 1 l -1 -1 z"
        style="fill: #ff738a; stroke: none"
    />
    <path
        d="M 319 130 l 1 1 l -1 -1 m -65 1 l 1 1 l -1 -1 m 34 0 l 1 1 l -1 -1 m 29 0 l 1 1 l -1 -1 m 41 0 l 1 1 l -1 -1 m -105 1 l 1 1 l -1 -1 m 34 0 l 1 1 l -1 -1 m 29 0 l 1 1 l -1 -1 m 41 0 l 1 1 l -1 -1 m -105 1 l 1 1 l -1 -1 z"
        style="fill: #737d87; stroke: none"
    />
    <path d="M 286 133 l 1 1 l -1 -1 z" style="fill: #ff738a; stroke: none" />
    <path d="M 314 133 l 1 1 l -1 -1 z" style="fill: #737d87; stroke: none" />
    <path d="M 252 134 l 1 1 l -1 -1 z" style="fill: #ff738a; stroke: none" />
    <path d="M 313 134 l 1 1 l -1 -1 z" style="fill: #737d87; stroke: none" />
    <path d="M 354 134 l 1 1 l -1 -1 z" style="fill: #69c3ff; stroke: none" />
    <path
        d="M 251 135 l 1 1 l -1 -1 m 33 0 l 1 1 l -1 -1 z"
        style="fill: #ff738a; stroke: none"
    />
    <path
        d="M 311 135 l 1 1 l -1 -1 m 42 0 l 1 1 l -1 -1 z"
        style="fill: #737d87; stroke: none"
    />
    <path d="M 250 136 l 1 1 l -1 -1 z" style="fill: #ff738a; stroke: none" />
    <path
        d="M 283 136 l 1 1 l -1 -1 m 27 0 l 1 1 l -1 -1 m 42 0 l 1 1 l -1 -1 m -103 1 l 1 1 l -1 -1 z"
        style="fill: #737d87; stroke: none"
    />
    <path d="M 281 137 l 1 1 l -1 -1 z" style="fill: #ff738a; stroke: none" />
    <path d="M 308 137 l 1 1 l -1 -1 z" style="fill: #737d87; stroke: none" />
    <path d="M 350 137 l 1 1 l -1 -1 z" style="fill: #ff738a; stroke: none" />
    <path
        d="M 248 138 l 1 1 l -1 -1 m 32 0 l 1 1 l -1 -1 m 27 0 l 1 1 l -1 -1 m 42 0 l 1 1 l -1 -1 z"
        style="fill: #737d87; stroke: none"
    />
    <path
        d="M 248 139 l 1 1 l -1 -1 m 30 0 l 1 1 l -1 -1 z"
        style="fill: #ff738a; stroke: none"
    />
    <path
        d="M 305 139 l 1 1 l -1 -1 m 43 0 l 1 1 l -1 -1 z"
        style="fill: #737d87; stroke: none"
    />
    <path d="M 247 140 l 1 1 l -1 -1 z" style="fill: #ff738a; stroke: none" />
    <path
        d="M 277 140 l 1 1 l -1 -1 m 27 0 l 1 1 l -1 -1 z"
        style="fill: #737d87; stroke: none"
    />
    <path
        d="M 246 141 l 1 1 l -1 -1 m 29 0 l 1 1 l -1 -1 z"
        style="fill: #ff738a; stroke: none"
    />
    <path
        d="M 302 141 l 1 1 l -1 -1 m 43 0 l 1 1 l -1 -1 m -100 1 l 1 1 l -1 -1 m 29 0 l 1 1 l -1 -1 m 27 0 l 1 1 l -1 -1 m 43 0 l 1 1 l -1 -1 m -100 1 l 1 1 l -1 -1 z"
        style="fill: #737d87; stroke: none"
    />
    <path d="M 272 143 l 1 1 l -1 -1 z" style="fill: #ff738a; stroke: none" />
    <path
        d="M 299 143 l 1 1 l -1 -1 m -28 1 l 1 1 l -1 -1 m 27 0 l 1 1 l -1 -1 z"
        style="fill: #737d87; stroke: none"
    />
    <path d="M 341 144 l 1 1 l -1 -1 z" style="fill: #69c3ff; stroke: none" />
    <path
        d="M 243 145 l 1 1 l -1 -1 m 26 0 l 1 1 l -1 -1 z"
        style="fill: #ff738a; stroke: none"
    />
    <path
        d="M 296 145 l 1 1 l -1 -1 m 44 0 l 1 1 l -1 -1 z"
        style="fill: #737d87; stroke: none"
    />
    <path d="M 242 146 l 1 1 l -1 -1 z" style="fill: #ff738a; stroke: none" />
    <path
        d="M 268 146 l 1 1 l -1 -1 m 27 0 l 1 1 l -1 -1 m 44 0 l 1 1 l -1 -1 m -98 1 l 1 1 l -1 -1 z"
        style="fill: #737d87; stroke: none"
    />
    <path d="M 266 147 l 1 1 l -1 -1 z" style="fill: #ff738a; stroke: none" />
    <path
        d="M 293 147 l 1 1 l -1 -1 m -53 1 l 1 1 l -1 -1 m 25 0 l 1 1 l -1 -1 m 27 0 l 1 1 l -1 -1 m 44 0 l 1 1 l -1 -1 m -97 1 l 1 1 l -1 -1 z"
        style="fill: #737d87; stroke: none"
    />
    <path d="M 263 149 l 1 1 l -1 -1 z" style="fill: #ff738a; stroke: none" />
    <path
        d="M 290 149 l 1 1 l -1 -1 m 45 0 l 1 1 l -1 -1 z"
        style="fill: #737d87; stroke: none"
    />
    <path d="M 239 150 l 1 1 l -1 -1 z" style="fill: #ff738a; stroke: none" />
    <path
        d="M 262 150 l 1 1 l -1 -1 m 27 0 l 1 1 l -1 -1 z"
        style="fill: #737d87; stroke: none"
    />
    <path
        d="M 238 151 l 1 1 l -1 -1 m 22 0 l 1 1 l -1 -1 z"
        style="fill: #ff738a; stroke: none"
    />
    <path d="M 287 151 l 1 1 l -1 -1 z" style="fill: #737d87; stroke: none" />
    <path d="M 332 151 l 1 1 l -1 -1 z" style="fill: #69c3ff; stroke: none" />
    <path
        d="M 237 152 l 1 1 l -1 -1 m 22 0 l 1 1 l -1 -1 m 27 0 l 1 1 l -1 -1 m 45 0 l 1 1 l -1 -1 m -95 1 l 1 1 l -1 -1 z"
        style="fill: #737d87; stroke: none"
    />
    <path d="M 257 153 l 1 1 l -1 -1 z" style="fill: #ff738a; stroke: none" />
    <path
        d="M 284 153 l 1 1 l -1 -1 m -49 1 l 1 1 l -1 -1 m 21 0 l 1 1 l -1 -1 m 27 0 l 1 1 l -1 -1 z"
        style="fill: #737d87; stroke: none"
    />
    <path
        d="M 328 154 l 1 1 l -1 -1 m -93 1 l 1 1 l -1 -1 m 19 0 l 1 1 l -1 -1 z"
        style="fill: #ff738a; stroke: none"
    />
    <path
        d="M 281 155 l 1 1 l -1 -1 m 46 0 l 1 1 l -1 -1 z"
        style="fill: #737d87; stroke: none"
    />
    <path d="M 234 156 l 1 1 l -1 -1 z" style="fill: #ff738a; stroke: none" />
    <path
        d="M 253 156 l 1 1 l -1 -1 m 27 0 l 1 1 l -1 -1 m 46 0 l 1 1 l -1 -1 z"
        style="fill: #737d87; stroke: none"
    />
    <path
        d="M 233 157 l 1 1 l -1 -1 m 18 0 l 1 1 l -1 -1 z"
        style="fill: #ff738a; stroke: none"
    />
    <path
        d="M 278 157 l 1 1 l -1 -1 m -46 1 l 1 1 l -1 -1 m 18 0 l 1 1 l -1 -1 m 27 0 l 1 1 l -1 -1 m 46 0 l 1 1 l -1 -1 m -92 1 l 1 1 l -1 -1 z"
        style="fill: #737d87; stroke: none"
    />
    <path d="M 248 159 l 1 1 l -1 -1 z" style="fill: #ff738a; stroke: none" />
    <path
        d="M 275 159 l 1 1 l -1 -1 m 47 0 l 1 1 l -1 -1 m -75 1 l 1 1 l -1 -1 m 27 0 l 1 1 l -1 -1 z"
        style="fill: #737d87; stroke: none"
    />
    <path
        d="M 230 161 l 1 1 l -1 -1 m 15 0 l 1 1 l -1 -1 z"
        style="fill: #ff738a; stroke: none"
    />
    <path d="M 272 161 l 1 1 l -1 -1 z" style="fill: #737d87; stroke: none" />
    <path d="M 319 161 l 1 1 l -1 -1 z" style="fill: #69c3ff; stroke: none" />
    <path d="M 229 162 l 1 1 l -1 -1 z" style="fill: #ff738a; stroke: none" />
    <path
        d="M 244 162 l 1 1 l -1 -1 m 27 0 l 1 1 l -1 -1 m 47 0 l 1 1 l -1 -1 m -90 1 l 1 1 l -1 -1 z"
        style="fill: #737d87; stroke: none"
    />
    <path d="M 242 163 l 1 1 l -1 -1 z" style="fill: #ff738a; stroke: none" />
    <path
        d="M 269 163 l 1 1 l -1 -1 m -42 1 l 1 1 l -1 -1 m 14 0 l 1 1 l -1 -1 m 27 0 l 1 1 l -1 -1 z"
        style="fill: #737d87; stroke: none"
    />
    <path d="M 315 164 l 1 1 l -1 -1 z" style="fill: #ff738a; stroke: none" />
    <path d="M 226 165 l 1 1 l -1 -1 z" style="fill: #737d87; stroke: none" />
    <path d="M 239 165 l 1 1 l -1 -1 z" style="fill: #ff738a; stroke: none" />
    <path
        d="M 266 165 l 1 1 l -1 -1 m 48 0 l 1 1 l -1 -1 z"
        style="fill: #737d87; stroke: none"
    />
    <path d="M 226 166 l 1 1 l -1 -1 z" style="fill: #ff738a; stroke: none" />
    <path
        d="M 238 166 l 1 1 l -1 -1 m 27 0 l 1 1 l -1 -1 m 48 0 l 1 1 l -1 -1 z"
        style="fill: #737d87; stroke: none"
    />
    <path
        d="M 225 167 l 1 1 l -1 -1 m 11 0 l 1 1 l -1 -1 z"
        style="fill: #ff738a; stroke: none"
    />
    <path
        d="M 263 167 l 1 1 l -1 -1 m -39 1 l 1 1 l -1 -1 m 11 0 l 1 1 l -1 -1 m 27 0 l 1 1 l -1 -1 m 48 0 l 1 1 l -1 -1 m -87 1 l 1 1 l -1 -1 z"
        style="fill: #737d87; stroke: none"
    />
    <path d="M 233 169 l 1 1 l -1 -1 z" style="fill: #ff738a; stroke: none" />
    <path
        d="M 260 169 l 1 1 l -1 -1 m 49 0 l 1 1 l -1 -1 m -87 1 l 1 1 l -1 -1 m 10 0 l 1 1 l -1 -1 m 27 0 l 1 1 l -1 -1 z"
        style="fill: #737d87; stroke: none"
    />
    <path
        d="M 222 171 l 1 1 l -1 -1 m 8 0 l 1 1 l -1 -1 z"
        style="fill: #ff738a; stroke: none"
    />
    <path d="M 257 171 l 1 1 l -1 -1 z" style="fill: #737d87; stroke: none" />
    <path d="M 306 171 l 1 1 l -1 -1 z" style="fill: #69c3ff; stroke: none" />
    <path d="M 221 172 l 1 1 l -1 -1 z" style="fill: #ff738a; stroke: none" />
    <path
        d="M 229 172 l 1 1 l -1 -1 m 27 0 l 1 1 l -1 -1 m 49 0 l 1 1 l -1 -1 z"
        style="fill: #737d87; stroke: none"
    />
    <path
        d="M 220 173 l 1 1 l -1 -1 m 7 0 l 1 1 l -1 -1 z"
        style="fill: #ff738a; stroke: none"
    />
    <path
        d="M 254 173 l 1 1 l -1 -1 m 50 0 l 1 1 l -1 -1 m -85 1 l 1 1 l -1 -1 m 7 0 l 1 1 l -1 -1 m 27 0 l 1 1 l -1 -1 z"
        style="fill: #737d87; stroke: none"
    />
    <path d="M 302 174 l 1 1 l -1 -1 z" style="fill: #ff738a; stroke: none" />
    <path d="M 218 175 l 1 1 l -1 -1 z" style="fill: #737d87; stroke: none" />
    <path d="M 224 175 l 1 1 l -1 -1 z" style="fill: #ff738a; stroke: none" />
    <path
        d="M 251 175 l 1 1 l -1 -1 m 50 0 l 1 1 l -1 -1 z"
        style="fill: #737d87; stroke: none"
    />
    <path d="M 218 176 l 1 1 l -1 -1 z" style="fill: #ff738a; stroke: none" />
    <path
        d="M 223 176 l 1 1 l -1 -1 m 27 0 l 1 1 l -1 -1 m 50 0 l 1 1 l -1 -1 z"
        style="fill: #737d87; stroke: none"
    />
    <path
        d="M 217 177 l 1 1 l -1 -1 m 4 0 l 1 1 l -1 -1 z"
        style="fill: #ff738a; stroke: none"
    />
    <path d="M 248 177 l 1 1 l -1 -1 z" style="fill: #737d87; stroke: none" />
    <path d="M 216 178 l 1 1 l -1 -1 z" style="fill: #ff738a; stroke: none" />
    <path
        d="M 220 178 l 1 1 l -1 -1 m 27 0 l 1 1 l -1 -1 z"
        style="fill: #737d87; stroke: none"
    />
    <path d="M 297 178 l 1 1 l -1 -1 z" style="fill: #69c3ff; stroke: none" />
    <path d="M 215 179 l 1 1 l -1 -1 z" style="fill: #737d87; stroke: none" />
    <path d="M 218 179 l 1 1 l -1 -1 z" style="fill: #ff738a; stroke: none" />
    <path
        d="M 245 179 l 1 1 l -1 -1 m 51 0 l 1 1 l -1 -1 m -82 1 l 1 1 l -1 -1 m 3 0 l 1 1 l -1 -1 m 27 0 l 1 1 l -1 -1 m 49 0 l 1 1 l -1 -1 z"
        style="fill: #737d87; stroke: none"
    />
    <path d="M 215 181 l 1 1 l -1 -1 z" style="fill: #ff738a; stroke: none" />
    <path
        d="M 242 181 l 1 1 l -1 -1 m 48 0 l 1 1 l -1 -1 z"
        style="fill: #737d87; stroke: none"
    />
    <path d="M 213 182 l 1 1 l -1 -1 z" style="fill: #ff738a; stroke: none" />
    <path
        d="M 214 182 l 1 1 l -1 -1 m 27 0 l 1 1 l -1 -1 z"
        style="fill: #737d87; stroke: none"
    />
    <path d="M 287 182 l 1 1 l -1 -1 z" style="fill: #ff738a; stroke: none" />
    <path
        d="M 288 182 l 1 1 l -1 -1 m -76 1 l 1 1 l -1 -1 m 27 0 l 1 1 l -1 -1 m 46 0 l 1 1 l -1 -1 m 63 0 v 1 h 9 l -9 -1 z"
        style="fill: #737d87; stroke: none"
    />
    <path d="M 357 183 v 1 l 11 1 l -11 -2 z" style="fill: #ff738a; stroke: none" />
    <path
        d="M 367 183 l 1 1 l -1 -1 m -129 1 l 1 1 l -1 -1 m 45 0 l 1 1 l -1 -1 z"
        style="fill: #737d87; stroke: none"
    />
    <path d="M 344 184 l 1 1 l -1 -1 z" style="fill: #ff738a; stroke: none" />
    <path
        d="M 345 184 c 2 9.3 7.1 17.4 8.6 27 c 1.1 6.9 -1.2 15.4 1.3 22 c 1.7 4.5 6.2 7.5 11.1 6.8 c 15.5 -2.4 8 -33.1 5.6 -42.8 c -0.9 -3.6 -1.7 -8.7 -4.4 -11.4 C 363.1 181.6 350.4 184 345 184 z"
        style="fill: #c3cfd9; stroke: none"
    />
    <path
        d="M 384 184 c 3.7 16.2 10.5 36.3 4.9 53 c -6.1 18.1 -30.1 25.3 -43.7 10.9 c -14.4 -15.2 1 -44.7 -16.9 -59.3 c -5.3 -4.3 -22.8 4.8 -28.2 7.4 c 9.8 17.6 29 45.8 12.7 65 c -3.5 4.1 -8.1 6.3 -12.7 9 l 6 38 c 7.6 -2.2 13.8 -7.9 21 -11.1 c 15.2 -6.9 32.4 -9.7 49 -7.6 c 31 4 53 31.5 86 19.6 c 30.2 -10.9 43.7 -45.5 28.5 -73.9 c -6.1 -11.5 -16.3 -19 -27.5 -25 l -1 20 c 9.8 4.8 4.5 17.2 -0.6 24 c -7.8 10.5 -22.4 13.1 -33.4 5.9 c -26.9 -17.6 4.8 -47.6 -12.1 -68.4 c -5.5 -6.8 -23.9 -6 -31.9 -7.5 z"
        style="fill: #ff738a; stroke: none"
    />
    <path
        d="M 386 184 v 1 h 4 l -4 -1 m -150 1 l 1 1 l -1 -1 z"
        style="fill: #737d87; stroke: none"
    />
    <path d="M 280 185 l 1 1 l -1 -1 z" style="fill: #69c3ff; stroke: none" />
    <path
        d="M 281 185 l 1 1 l -1 -1 m 63 0 l 1 1 l -1 -1 m 50 0 v 1 h 3 l -3 -1 m -159 1 l 1 1 l -1 -1 m 43 0 l 1 1 l -1 -1 m 90 0 l 1 1 l -1 -1 m 16 0 l 1 1 l -1 -1 m 16.7 0.3 l 0.7 0.3 l -0.7 -0.3 M 233 187 l 1 1 l -1 -1 m 43 0 l 1 1 l -1 -1 m 47 0 l 1 1 l -1 -1 m 22 0 l 1 1 l -1 -1 z"
        style="fill: #737d87; stroke: none"
    />
    <path d="M 368 187 l 1 1 l -1 -1 z" style="fill: #ff738a; stroke: none" />
    <path
        d="M 405.7 187.3 l 0.7 0.3 l -0.7 -0.3 M 232 188 l 1 1 l -1 -1 m 42 0 l 1 1 l -1 -1 m 45.7 0.3 l 0.7 0.3 l -0.7 -0.3 M 328 188 l 1 1 l -1 -1 z"
        style="fill: #737d87; stroke: none"
    />
    <path d="M 346 188 l 1 1 l -1 -1 z" style="fill: #ff738a; stroke: none" />
    <path
        d="M 369 188 l 1 1 l -1 -1 m 40.7 0.3 l 0.7 0.3 l -0.7 -0.3 M 230 189 l 1 1 l -1 -1 m 42 0 l 1 1 l -1 -1 m 44.7 0.3 l 0.7 0.3 l -0.7 -0.3 M 329 189 l 1 1 l -1 -1 m 17 0 l 1 1 l -1 -1 z"
        style="fill: #737d87; stroke: none"
    />
    <path d="M 369 189 l 1 1 l -1 -1 z" style="fill: #ff738a; stroke: none" />
    <path
        d="M 385.3 189.7 l 0.3 0.7 l -0.3 -0.7 m 28.3 -0.3 l 0.7 0.3 l -0.7 -0.3 M 229 190 l 1 1 l -1 -1 m 41 0 l 1 1 l -1 -1 m 44 0 l 1 1 l -1 -1 m 102.3 0.7 l 0.3 0.7 l -0.3 -0.7 M 227 191 l 1 1 l -1 -1 m 41 0 l 1 1 l -1 -1 m 43 0 l 1 1 l -1 -1 m 19 0 l 1 1 l -1 -1 m 17 0 l 1 1 l -1 -1 m 23 0 l 1 1 l -1 -1 z"
        style="fill: #737d87; stroke: none"
    />
    <path d="M 226 192 l 1 1 l -1 -1 z" style="fill: #69c3ff; stroke: none" />
    <path
        d="M 266 192 l 1 1 l -1 -1 m 42 0 l 1 1 l -1 -1 z"
        style="fill: #737d87; stroke: none"
    />
    <path d="M 370 192 l 1 1 l -1 -1 z" style="fill: #ff738a; stroke: none" />
    <path
        d="M 224 193 l 1 1 l -1 -1 m 40 0 l 1 1 l -1 -1 m 41 0 l 1 1 l -1 -1 z"
        style="fill: #737d87; stroke: none"
    />
    <path d="M 348 193 l 1 1 l -1 -1 z" style="fill: #ff738a; stroke: none" />
    <path
        d="M 386 193 l 1 1 l -1 -1 m 31.3 0.7 l 0.3 0.7 l -0.3 -0.7 z"
        style="fill: #737d87; stroke: none"
    />
    <path d="M 223 194 l 1 1 l -1 -1 z" style="fill: #69c3ff; stroke: none" />
    <path
        d="M 262 194 l 1 1 l -1 -1 m 40.7 0.3 l 0.7 0.3 l -0.7 -0.3 M 332 194 l 1 1 l -1 -1 m 16 0 l 1 1 l -1 -1 m 23.3 0.7 l 0.3 0.7 l -0.3 -0.7 M 221 195 l 1 1 l -1 -1 z"
        style="fill: #737d87; stroke: none"
    />
    <path d="M 260 195 l 1 1 l -1 -1 z" style="fill: #ff738a; stroke: none" />
    <path d="M 300 195 l 1 1 l -1 -1 z" style="fill: #737d87; stroke: none" />
    <path d="M 349 195 l 1 1 l -1 -1 z" style="fill: #ff738a; stroke: none" />
    <path d="M 220 196 l 1 1 l -1 -1 z" style="fill: #69c3ff; stroke: none" />
    <path
        d="M 259 196 l 1 1 l -1 -1 m 74 0 l 1 1 l -1 -1 m 16 0 l 1 1 l -1 -1 z"
        style="fill: #737d87; stroke: none"
    />
    <path d="M 371 196 l 1 1 l -1 -1 z" style="fill: #ff738a; stroke: none" />
    <path
        d="M 387 196 v 3 h 1 l -1 -3 m 46.3 0.7 l 0.3 0.7 l -0.3 -0.7 z"
        style="fill: #737d87; stroke: none"
    />
    <path d="M 434 196 l 1 1 l -1 -1 z" style="fill: #ff738a; stroke: none" />
    <path
        d="M 435 196 l 1 1 l -1 -1 m -217 1 l 1 1 l -1 -1 m 39 0 l 1 1 l -1 -1 m 161.3 0.7 l 0.3 0.7 l -0.3 -0.7 z"
        style="fill: #737d87; stroke: none"
    />
    <path
        d="M 434 197 c 1 8.1 1.8 16.8 0.6 25 c -0.9 5.6 -4.2 12.3 -3.1 18 c 1.1 6.1 7.8 9.6 13.6 7.4 c 9.2 -3.5 6.1 -16.2 17 -18.4 c 0.7 -5.2 2.6 -12.8 0.4 -17.8 c -3 -6.8 -21.5 -13 -28.4 -14.2 z"
        style="fill: #c3cfd9; stroke: none"
    />
    <path d="M 437 197 l 1 1 l -1 -1 z" style="fill: #ff738a; stroke: none" />
    <path
        d="M 438 197 l 1 1 l -1 -1 m -221 1 l 1 1 l -1 -1 z"
        style="fill: #737d87; stroke: none"
    />
    <path d="M 255 198 l 1 1 l -1 -1 z" style="fill: #ff738a; stroke: none" />
    <path d="M 301 198 l 1 1 l -1 -1 z" style="fill: #737d87; stroke: none" />
    <path d="M 350 198 l 1 1 l -1 -1 z" style="fill: #ff738a; stroke: none" />
    <path
        d="M 372.3 198.7 l 0.3 0.7 l -0.3 -0.7 z"
        style="fill: #737d87; stroke: none"
    />
    <path d="M 439 198 l 1 1 l -1 -1 z" style="fill: #ff738a; stroke: none" />
    <path
        d="M 440 198 l 1 1 l -1 -1 m -225 1 l 1 1 l -1 -1 m 39 0 l 1 1 l -1 -1 m 80 0 l 1 1 l -1 -1 m 16 0 l 1 1 l -1 -1 z"
        style="fill: #737d87; stroke: none"
    />
    <path d="M 442 199 l 1 1 l -1 -1 z" style="fill: #ff738a; stroke: none" />
    <path d="M 443 199 l 1 1 l -1 -1 z" style="fill: #737d87; stroke: none" />
    <path d="M 214 200 l 1 1 l -1 -1 z" style="fill: #69c3ff; stroke: none" />
    <path
        d="M 252 200 l 1 1 l -1 -1 m 31.7 0.3 l 0.7 0.3 l -0.7 -0.3 z"
        style="fill: #737d87; stroke: none"
    />
    <path
        d="M 372 200 l 1 1 l -1 -1 m 62.3 0.7 l 0.3 0.7 l -0.3 -0.7 M 444 200 l 1 1 l -1 -1 z"
        style="fill: #ff738a; stroke: none"
    />
    <path
        d="M 445 200 l 1 1 l -1 -1 m -233 1 l 1 1 l -1 -1 m 69 0 l 1 1 l -1 -1 z"
        style="fill: #737d87; stroke: none"
    />
    <path d="M 282 201 l 1 1 l -1 -1 z" style="fill: #ff738a; stroke: none" />
    <path
        d="M 266 210 c 5.6 12.5 13 22.6 17.2 36 c 1.2 4 3.6 7.3 7.8 8.4 c 8.5 2.2 13.3 -6.1 12 -13.4 c -2.6 -15 -10.1 -27.3 -18 -40 l -19 9 z"
        style="fill: #c3cfd9; stroke: none"
    />
    <path
        d="M 303 201 l 1 1 l -1 -1 m 32.3 0.7 l 0.3 0.7 l -0.3 -0.7 z"
        style="fill: #737d87; stroke: none"
    />
    <path
        d="M 351.3 201.7 l 0.3 0.7 l -0.3 -0.7 z"
        style="fill: #ff738a; stroke: none"
    />
    <path d="M 388 201 v 3 h 1 l -1 -3 z" style="fill: #737d87; stroke: none" />
    <path d="M 446 201 l 1 1 l -1 -1 z" style="fill: #ff738a; stroke: none" />
    <path d="M 447 201 l 1 1 l -1 -1 z" style="fill: #737d87; stroke: none" />
    <path d="M 211 202 l 1 1 l -1 -1 z" style="fill: #69c3ff; stroke: none" />
    <path
        d="M 249 202 l 1 1 l -1 -1 m 30 0 l 1 1 l -1 -1 z"
        style="fill: #737d87; stroke: none"
    />
    <path
        d="M 280 202 l 1 1 l -1 -1 m 5 0 l 1 1 l -1 -1 z"
        style="fill: #ff738a; stroke: none"
    />
    <path
        d="M 373.3 202.7 l 0.3 0.7 l -0.3 -0.7 M 419 202 v 4 h 1 l -1 -4 m 15 0 v 5 h 1 l -1 -5 z"
        style="fill: #737d87; stroke: none"
    />
    <path d="M 448 202 l 1 1 l -1 -1 z" style="fill: #ff738a; stroke: none" />
    <path
        d="M 449 202 l 1 1 l -1 -1 m -240 1 l 1 1 l -1 -1 m 68 0 l 1 1 l -1 -1 z"
        style="fill: #737d87; stroke: none"
    />
    <path
        d="M 278 203 l 1 1 l -1 -1 m 8 0 l 1 1 l -1 -1 z"
        style="fill: #ff738a; stroke: none"
    />
    <path
        d="M 304 203 l 1 1 l -1 -1 m 47 0 l 1 1 l -1 -1 z"
        style="fill: #737d87; stroke: none"
    />
    <path d="M 450 203 l 1 1 l -1 -1 z" style="fill: #ff738a; stroke: none" />
    <path d="M 451 203 l 1 1 l -1 -1 z" style="fill: #737d87; stroke: none" />
    <path d="M 208 204 l 1 1 l -1 -1 z" style="fill: #69c3ff; stroke: none" />
    <path
        d="M 246 204 l 1 1 l -1 -1 m 29 0 l 1 1 l -1 -1 z"
        style="fill: #737d87; stroke: none"
    />
    <path d="M 276 204 l 1 1 l -1 -1 z" style="fill: #ff738a; stroke: none" />
    <path
        d="M 287 204 l 1 1 l -1 -1 m 49.3 0.7 l 0.3 0.7 l -0.3 -0.7 z"
        style="fill: #737d87; stroke: none"
    />
    <path
        d="M 373.3 204.7 l 0.3 0.7 l -0.3 -0.7 M 452 204 l 1 1 l -1 -1 z"
        style="fill: #ff738a; stroke: none"
    />
    <path
        d="M 453 204 l 1 1 l -1 -1 m -247 1 l 1 1 l -1 -1 m 67 0 l 1 1 l -1 -1 z"
        style="fill: #737d87; stroke: none"
    />
    <path
        d="M 274 205 l 1 1 l -1 -1 m 78.3 0.7 l 0.3 0.7 l -0.3 -0.7 M 454 205 l 1 1 l -1 -1 z"
        style="fill: #ff738a; stroke: none"
    />
    <path d="M 455 205 l 1 1 l -1 -1 z" style="fill: #737d87; stroke: none" />
    <path
        d="M 205 206 l 1 1 l -1 -1 m 38 0 l 1 1 l -1 -1 z"
        style="fill: #69c3ff; stroke: none"
    />
    <path d="M 271 206 l 1 1 l -1 -1 z" style="fill: #737d87; stroke: none" />
    <path
        d="M 272 206 l 1 1 l -1 -1 m 16 0 l 1 1 l -1 -1 z"
        style="fill: #ff738a; stroke: none"
    />
    <path d="M 306 206 l 1 1 l -1 -1 z" style="fill: #737d87; stroke: none" />
    <path d="M 456 206 l 1 1 l -1 -1 z" style="fill: #ff738a; stroke: none" />
    <path
        d="M 457 206 l 1 1 l -1 -1 m -254 1 l 1 1 l -1 -1 m 39 0 l 1 1 l -1 -1 m 27 0 l 1 1 l -1 -1 z"
        style="fill: #737d87; stroke: none"
    />
    <path d="M 270 207 l 1 1 l -1 -1 z" style="fill: #ff738a; stroke: none" />
    <path
        d="M 289 207 l 1 1 l -1 -1 m 63.3 0.7 l 0.3 0.7 l -0.3 -0.7 M 389 207 v 5 h 1 l -1 -5 z"
        style="fill: #737d87; stroke: none"
    />
    <path d="M 458 207 l 1 1 l -1 -1 z" style="fill: #ff738a; stroke: none" />
    <path d="M 459 207 l 1 1 l -1 -1 z" style="fill: #737d87; stroke: none" />
    <path d="M 202 208 l 1 1 l -1 -1 z" style="fill: #69c3ff; stroke: none" />
    <path
        d="M 241 208 l 1 1 l -1 -1 m 27 0 l 1 1 l -1 -1 m 39 0 l 1 1 l -1 -1 m 30.3 0.7 l 0.3 0.7 l -0.3 -0.7 M 374 208 v 3 h 1 l -1 -3 z"
        style="fill: #737d87; stroke: none"
    />
    <path d="M 460 208 l 1 1 l -1 -1 z" style="fill: #ff738a; stroke: none" />
    <path
        d="M 200 209 l 1 1 l -1 -1 m 66 0 l 1 1 l -1 -1 z"
        style="fill: #737d87; stroke: none"
    />
    <path d="M 290 209 l 1 1 l -1 -1 z" style="fill: #ff738a; stroke: none" />
    <path d="M 462 209 l 1 1 l -1 -1 z" style="fill: #737d87; stroke: none" />
    <path d="M 199 210 l 1 1 l -1 -1 z" style="fill: #69c3ff; stroke: none" />
    <path d="M 265 210 l 1 1 l -1 -1 z" style="fill: #ff738a; stroke: none" />
    <path
        d="M 291 210 l 1 1 l -1 -1 m 17 0 l 1 1 l -1 -1 z"
        style="fill: #737d87; stroke: none"
    />
    <path
        d="M 353.3 210.7 l 0.3 0.7 l -0.3 -0.7 z"
        style="fill: #ff738a; stroke: none"
    />
    <path
        d="M 464 210 l 1 1 l -1 -1 m -267 1 l 1 1 l -1 -1 m 68 0 l 1 1 l -1 -1 z"
        style="fill: #737d87; stroke: none"
    />
    <path
        d="M 291 211 l 1 1 l -1 -1 m 83 0 v 3 h 1 l -1 -3 z"
        style="fill: #ff738a; stroke: none"
    />
    <path d="M 465 211 l 1 1 l -1 -1 z" style="fill: #737d87; stroke: none" />
    <path d="M 196 212 l 1 1 l -1 -1 z" style="fill: #69c3ff; stroke: none" />
    <path
        d="M 266 212 l 1 1 l -1 -1 m 26 0 l 1 1 l -1 -1 m 17 0 l 1 1 l -1 -1 m 44 0 v 4 h 1 l -1 -4 m 114 0 l 1 1 l -1 -1 m -273 1 l 1 1 l -1 -1 m 73 0 l 1 1 l -1 -1 m 71 0 v 3 h 1 l -1 -3 z"
        style="fill: #737d87; stroke: none"
    />
    <path d="M 193 214 l 1 1 l -1 -1 z" style="fill: #69c3ff; stroke: none" />
    <path
        d="M 268 214 l 1 1 l -1 -1 m 25 0 l 1 1 l -1 -1 z"
        style="fill: #ff738a; stroke: none"
    />
    <path
        d="M 310 214 l 1 1 l -1 -1 m 160 0 l 1 1 l -1 -1 m -279 1 l 1 1 l -1 -1 z"
        style="fill: #737d87; stroke: none"
    />
    <path d="M 269 215 l 1 1 l -1 -1 z" style="fill: #ff738a; stroke: none" />
    <path
        d="M 294 215 l 1 1 l -1 -1 m 178 0 l 1 1 l -1 -1 z"
        style="fill: #737d87; stroke: none"
    />
    <path d="M 190 216 l 1 1 l -1 -1 z" style="fill: #69c3ff; stroke: none" />
    <path d="M 269 216 l 1 1 l -1 -1 z" style="fill: #737d87; stroke: none" />
    <path d="M 294 216 l 1 1 l -1 -1 z" style="fill: #ff738a; stroke: none" />
    <path
        d="M 311.3 216.7 l 0.3 0.7 l -0.3 -0.7 M 419 216 v 5 h 1 l -1 -5 m 15 0 v 5 h 1 l -1 -5 m 39 0 l 1 1 l -1 -1 m -285 1 l 1 1 l -1 -1 m 44 0 l 1 1 l -1 -1 m 38 0 l 1 1 l -1 -1 m 25 0 l 1 1 l -1 -1 z"
        style="fill: #737d87; stroke: none"
    />
    <path d="M 187 218 l 1 1 l -1 -1 z" style="fill: #69c3ff; stroke: none" />
    <path d="M 231 218 l 1 1 l -1 -1 z" style="fill: #737d87; stroke: none" />
    <path
        d="M 271 218 l 1 1 l -1 -1 m 24 0 l 1 1 l -1 -1 z"
        style="fill: #ff738a; stroke: none"
    />
    <path
        d="M 375 218 v 8 h 1 l -1 -8 m 101 0 l 1 1 l -1 -1 m -291 1 l 1 1 l -1 -1 z"
        style="fill: #737d87; stroke: none"
    />
    <path d="M 230 219 l 1 1 l -1 -1 z" style="fill: #ff738a; stroke: none" />
    <path d="M 251 219 l 1 1 l -1 -1 z" style="fill: #737d87; stroke: none" />
    <path
        d="M 252 219 l -11 13 l 24 8 c -2.3 -8 -6.9 -15.3 -13 -21 z"
        style="fill: #ff738a; stroke: none"
    />
    <path
        d="M 271 219 l 1 1 l -1 -1 m 25 0 l 1 1 l -1 -1 m 16 0 l 1 1 l -1 -1 m 165 0 l 1 1 l -1 -1 z"
        style="fill: #737d87; stroke: none"
    />
    <path d="M 184 220 l 1 1 l -1 -1 z" style="fill: #69c3ff; stroke: none" />
    <path
        d="M 253 220 l 1 1 l -1 -1 m 19 0 l 1 1 l -1 -1 z"
        style="fill: #737d87; stroke: none"
    />
    <path d="M 296 220 l 1 1 l -1 -1 z" style="fill: #ff738a; stroke: none" />
    <path
        d="M 182 221 l 1 1 l -1 -1 m 47 0 l 1 1 l -1 -1 m 25 0 l 1 1 l -1 -1 z"
        style="fill: #737d87; stroke: none"
    />
    <path d="M 273 221 l 1 1 l -1 -1 z" style="fill: #ff738a; stroke: none" />
    <path
        d="M 313.3 221.7 l 0.3 0.7 l -0.3 -0.7 z"
        style="fill: #737d87; stroke: none"
    />
    <path
        d="M 434.3 221.7 l 0.3 0.7 l -0.3 -0.7 z"
        style="fill: #ff738a; stroke: none"
    />
    <path d="M 181 222 l 1 1 l -1 -1 z" style="fill: #69c3ff; stroke: none" />
    <path
        d="M 228 222 l 1 1 l -1 -1 m 27 0 l 1 1 l -1 -1 m 18 0 l 1 1 l -1 -1 m 24 0 l 1 1 l -1 -1 z"
        style="fill: #737d87; stroke: none"
    />
    <path d="M 354 222 l 1 1 l -1 -1 z" style="fill: #ff738a; stroke: none" />
    <path
        d="M 179 223 l 1 1 l -1 -1 m 77 0 l 1 1 l -1 -1 z"
        style="fill: #737d87; stroke: none"
    />
    <path d="M 274 223 l 1 1 l -1 -1 z" style="fill: #ff738a; stroke: none" />
    <path d="M 178 224 l 1 1 l -1 -1 z" style="fill: #69c3ff; stroke: none" />
    <path
        d="M 227 224 l 1 1 l -1 -1 m 71 0 l 1 1 l -1 -1 m 16.3 0.7 l 0.3 0.7 l -0.3 -0.7 m 104 0 l 0.3 0.7 l -0.3 -0.7 M 176 225 l 1 1 l -1 -1 z"
        style="fill: #737d87; stroke: none"
    />
    <path d="M 181 225 l 1 1 l -1 -1 z" style="fill: #ff738a; stroke: none" />
    <path d="M 182 225 l 1 1 l -1 -1 z" style="fill: #69c3ff; stroke: none" />
    <path d="M 183 225 v 1 h 16 l -16 -1 z" style="fill: #737d87; stroke: none" />
    <path
        d="M 199.7 225.3 l 0.7 0.3 l -0.7 -0.3 z"
        style="fill: #69c3ff; stroke: none"
    />
    <path
        d="M 201.7 225.3 l 0.7 0.3 l -0.7 -0.3 M 226 225 l 1 1 l -1 -1 m 49 0 l 1 1 l -1 -1 m 23 0 l 1 1 l -1 -1 z"
        style="fill: #ff738a; stroke: none"
    />
    <path
        d="M 433.3 225.7 l 0.3 0.7 l -0.3 -0.7 M 211 226 v 1 h 3 l -3 -1 z"
        style="fill: #737d87; stroke: none"
    />
    <path d="M 214 226 l 1 1 l -1 -1 z" style="fill: #69c3ff; stroke: none" />
    <path d="M 215 226 l 1 1 l -1 -1 z" style="fill: #ff738a; stroke: none" />
    <path
        d="M 244 226 l 1 1 l -1 -1 m 14 0 l 1 1 l -1 -1 m 41.3 0.7 l 0.3 0.7 l -0.3 -0.7 M 484 226 l 1 1 l -1 -1 m -263.3 1.3 l 0.7 0.3 l -0.7 -0.3 z"
        style="fill: #737d87; stroke: none"
    />
    <path d="M 222 227 l 1 1 l -1 -1 z" style="fill: #69c3ff; stroke: none" />
    <path
        d="M 225 227 l 1 1 l -1 -1 m 18 0 l 1 1 l -1 -1 m 33 0 l 1 1 l -1 -1 m 39.3 0.7 l 0.3 0.7 l -0.3 -0.7 z"
        style="fill: #737d87; stroke: none"
    />
    <path d="M 433 227 l 1 1 l -1 -1 z" style="fill: #ff738a; stroke: none" />
    <path
        d="M 485 227 l 1 1 l -1 -1 m -243 1 l 1 1 l -1 -1 z"
        style="fill: #737d87; stroke: none"
    />
    <path d="M 299 228 l 1 1 l -1 -1 z" style="fill: #ff738a; stroke: none" />
    <path
        d="M 417.3 228.7 l 0.3 0.7 l -0.3 -0.7 M 486 228 l 1 1 l -1 -1 m -226 1 l 1 1 l -1 -1 z"
        style="fill: #737d87; stroke: none"
    />
    <path d="M 277 229 l 1 1 l -1 -1 z" style="fill: #ff738a; stroke: none" />
    <path
        d="M 300 229 l 1 1 l -1 -1 m 132.3 0.7 l 0.3 0.7 l -0.3 -0.7 z"
        style="fill: #737d87; stroke: none"
    />
    <path d="M 458 229 l 1 1 l -1 -1 z" style="fill: #ff738a; stroke: none" />
    <path d="M 459 229 v 1 h 3 l -3 -1 z" style="fill: #737d87; stroke: none" />
    <path
        d="M 300 230 l 1 1 l -1 -1 m 74.3 0.7 l 0.3 0.7 l -0.3 -0.7 M 456 230 l 1 1 l -1 -1 z"
        style="fill: #ff738a; stroke: none"
    />
    <path
        d="M 464 230 l 1 1 l -1 -1 m -203 1 l 1 1 l -1 -1 z"
        style="fill: #737d87; stroke: none"
    />
    <path d="M 278 231 l 1 1 l -1 -1 z" style="fill: #ff738a; stroke: none" />
    <path d="M 316 231 l 1 1 l -1 -1 z" style="fill: #737d87; stroke: none" />
    <path d="M 432 231 l 1 1 l -1 -1 z" style="fill: #ff738a; stroke: none" />
    <path
        d="M 455 231 l 1 1 l -1 -1 m 10 0 l 1 1 l -1 -1 m 23 0 l 1 1 l -1 -1 m -244.3 1.3 l 0.7 0.3 l -0.7 -0.3 M 278 232 l 1 1 l -1 -1 m 23.3 0.7 l 0.3 0.7 l -0.3 -0.7 z"
        style="fill: #737d87; stroke: none"
    />
    <path
        d="M 354.3 232.7 l 0.3 0.7 l -0.3 -0.7 z"
        style="fill: #ff738a; stroke: none"
    />
    <path
        d="M 374.3 232.7 l 0.3 0.7 l -0.3 -0.7 M 416 232 l 1 1 l -1 -1 m 38 0 l 1 1 l -1 -1 m 12 0 l 1 1 l -1 -1 m -219.3 1.3 l 0.7 0.3 l -0.7 -0.3 M 262 233 l 1 1 l -1 -1 z"
        style="fill: #737d87; stroke: none"
    />
    <path d="M 279 233 l 1 1 l -1 -1 z" style="fill: #ff738a; stroke: none" />
    <path
        d="M 389 233 v 3 h 1 l -1 -3 m 42.3 0.7 l 0.3 0.7 l -0.3 -0.7 z"
        style="fill: #737d87; stroke: none"
    />
    <path d="M 453 233 l 1 1 l -1 -1 z" style="fill: #ff738a; stroke: none" />
    <path
        d="M 489 233 l 1 1 l -1 -1 m -239.3 1.3 l 0.7 0.3 l -0.7 -0.3 M 279 234 l 1 1 l -1 -1 z"
        style="fill: #737d87; stroke: none"
    />
    <path d="M 301 234 l 1 1 l -1 -1 z" style="fill: #ff738a; stroke: none" />
    <path
        d="M 317.3 234.7 l 0.3 0.7 l -0.3 -0.7 M 354 234 l 1 1 l -1 -1 z"
        style="fill: #737d87; stroke: none"
    />
    <path d="M 373 234 l 1 1 l -1 -1 z" style="fill: #ff738a; stroke: none" />
    <path
        d="M 453 234 l 1 1 l -1 -1 m 14 0 l 1 1 l -1 -1 m -215 1 l 1 1 l -1 -1 m 11 0 l 1 1 l -1 -1 z"
        style="fill: #737d87; stroke: none"
    />
    <path d="M 355 235 l 1 1 l -1 -1 z" style="fill: #ff738a; stroke: none" />
    <path d="M 373 235 l 1 1 l -1 -1 z" style="fill: #737d87; stroke: none" />
    <path d="M 431 235 l 1 1 l -1 -1 z" style="fill: #ff738a; stroke: none" />
    <path d="M 255 236 l 1 1 l -1 -1 z" style="fill: #737d87; stroke: none" />
    <path d="M 280 236 l 1 1 l -1 -1 z" style="fill: #ff738a; stroke: none" />
    <path
        d="M 302 236 l 1 1 l -1 -1 m 37.3 0.7 l 0.3 0.7 l -0.3 -0.7 z"
        style="fill: #737d87; stroke: none"
    />
    <path
        d="M 356 236 l 1 1 l -1 -1 m 16 0 l 1 1 l -1 -1 m 80 0 l 1 1 l -1 -1 z"
        style="fill: #ff738a; stroke: none"
    />
    <path
        d="M 491 236 l 1 1 l -1 -1 m -234 1 l 1 1 l -1 -1 m 7 0 l 1 1 l -1 -1 m 16 0 l 1 1 l -1 -1 z"
        style="fill: #737d87; stroke: none"
    />
    <path
        d="M 302.3 237.7 l 0.3 0.7 l -0.3 -0.7 M 357 237 l 1 1 l -1 -1 m 14 0 l 1 1 l -1 -1 z"
        style="fill: #ff738a; stroke: none"
    />
    <path
        d="M 430 237 v 3 h 1 l -1 -3 m 22.3 0.7 l 0.3 0.7 l -0.3 -0.7 m -192.7 0.7 l 0.7 0.3 l -0.7 -0.3 z"
        style="fill: #737d87; stroke: none"
    />
    <path d="M 358 238 l 1 1 l -1 -1 z" style="fill: #ff738a; stroke: none" />
    <path
        d="M 370 238 l 1 1 l -1 -1 m 18 0 l 1 1 l -1 -1 m 27.3 0.7 l 0.3 0.7 l -0.3 -0.7 M 262 239 l 1 1 l -1 -1 m 3 0 l -1 2 h 2 l -1 -2 z"
        style="fill: #737d87; stroke: none"
    />
    <path d="M 281 239 l 1 1 l -1 -1 z" style="fill: #ff738a; stroke: none" />
    <path
        d="M 318.3 239.7 l 0.3 0.7 l -0.3 -0.7 M 359 239 l 1 1 l -1 -1 z"
        style="fill: #737d87; stroke: none"
    />
    <path
        d="M 360 239 l 1 1 l -1 -1 m 8 0 l 1 1 l -1 -1 z"
        style="fill: #ff738a; stroke: none"
    />
    <path
        d="M 369 239 l 1 1 l -1 -1 m 98.3 0.7 l 0.3 0.7 l -0.3 -0.7 M 492 239 l 1 1 l -1 -1 m -313 1 v 1 h 5 l -5 -1 z"
        style="fill: #737d87; stroke: none"
    />
    <path d="M 184 240 v 1 h 18 l -18 -1 z" style="fill: #69c3ff; stroke: none" />
    <path
        d="M 202 240 v 1 h 5 l -5 -1 m 79.3 0.7 l 0.3 0.7 l -0.3 -0.7 m 22 0 l 0.3 0.7 l -0.3 -0.7 M 340 240 l 1 1 l -1 -1 m 22 0 v 1 h 5 l -5 -1 m 25 0 l 1 1 l -1 -1 z"
        style="fill: #737d87; stroke: none"
    />
    <path d="M 451 240 l 1 1 l -1 -1 z" style="fill: #ff738a; stroke: none" />
    <path
        d="M 170.7 241.3 l 0.7 0.3 l -0.7 -0.3 z"
        style="fill: #737d87; stroke: none"
    />
    <path d="M 172 241 v 1 h 3 l -3 -1 z" style="fill: #69c3ff; stroke: none" />
    <path
        d="M 175 241.4 c -22.7 3 -47.6 8.6 -65 24.7 c -14.2 13 -19.7 31.2 -8 47.9 c 23.2 33.1 77.5 37.5 114 32.7 c 21.5 -2.8 44.8 -9.6 61 -24.8 c 13.2 -12.4 18.5 -30 7.9 -45.9 c -21.3 -32 -74.8 -39.2 -109.9 -34.6 z"
        style="fill: #c3cfd9; stroke: none"
    />
    <path d="M 211 241 v 1 h 3 l -3 -1 z" style="fill: #69c3ff; stroke: none" />
    <path
        d="M 214.7 241.3 l 0.7 0.3 l -0.7 -0.3 z"
        style="fill: #737d87; stroke: none"
    />
    <path d="M 431 241 l 1 1 l -1 -1 z" style="fill: #ff738a; stroke: none" />
    <path
        d="M 451 241 l 1 1 l -1 -1 m 42 0 l 1 1 l -1 -1 m -329.3 1.3 l 0.7 0.3 l -0.7 -0.3 z"
        style="fill: #737d87; stroke: none"
    />
    <path
        d="M 165.7 242.3 l 0.7 0.3 l -0.7 -0.3 m 54 0 l 0.7 0.3 l -0.7 -0.3 z"
        style="fill: #69c3ff; stroke: none"
    />
    <path
        d="M 221.7 242.3 l 0.7 0.3 l -0.7 -0.3 z"
        style="fill: #737d87; stroke: none"
    />
    <path
        d="M 303.3 242.7 l 0.3 0.7 l -0.3 -0.7 z"
        style="fill: #ff738a; stroke: none"
    />
    <path
        d="M 386 242 l 1 1 l -1 -1 m 45 0 l 1 1 l -1 -1 z"
        style="fill: #737d87; stroke: none"
    />
    <path d="M 450 242 l 1 1 l -1 -1 z" style="fill: #ff738a; stroke: none" />
    <path
        d="M 466.3 242.7 l 0.3 0.7 l -0.3 -0.7 m -307.7 0.7 l 0.7 0.3 l -0.7 -0.3 z"
        style="fill: #737d87; stroke: none"
    />
    <path
        d="M 160.7 243.3 l 0.7 0.3 l -0.7 -0.3 M 225 243 l 1 1 l -1 -1 z"
        style="fill: #69c3ff; stroke: none"
    />
    <path
        d="M 226.7 243.3 l 0.7 0.3 l -0.7 -0.3 z"
        style="fill: #737d87; stroke: none"
    />
    <path d="M 282 243 l 1 1 l -1 -1 z" style="fill: #ff738a; stroke: none" />
    <path d="M 341 243 l 1 1 l -1 -1 z" style="fill: #737d87; stroke: none" />
    <path d="M 432 243 l 1 1 l -1 -1 z" style="fill: #ff738a; stroke: none" />
    <path
        d="M 450 243 l 1 1 l -1 -1 m -296 1 l 1 1 l -1 -1 z"
        style="fill: #737d87; stroke: none"
    />
    <path
        d="M 155.7 244.3 l 0.7 0.3 l -0.7 -0.3 m 74 0 l 0.7 0.3 l -0.7 -0.3 z"
        style="fill: #69c3ff; stroke: none"
    />
    <path
        d="M 231 244 l 1 1 l -1 -1 m 51.3 0.7 l 0.3 0.7 l -0.3 -0.7 M 342 244 l 1 1 l -1 -1 m 43 0 l 1 1 l -1 -1 m 31.3 0.7 l 0.3 0.7 l -0.3 -0.7 z"
        style="fill: #737d87; stroke: none"
    />
    <path d="M 449 244 l 1 1 l -1 -1 z" style="fill: #ff738a; stroke: none" />
    <path
        d="M 494 244 l 1 1 l -1 -1 m -344 1 l 1 1 l -1 -1 z"
        style="fill: #737d87; stroke: none"
    />
    <path
        d="M 151.7 245.3 l 0.7 0.3 l -0.7 -0.3 M 234 245 l 1 1 l -1 -1 z"
        style="fill: #69c3ff; stroke: none"
    />
    <path
        d="M 235 245 l 1 1 l -1 -1 m 149 0 l 1 1 l -1 -1 m 49 0 l 1 1 l -1 -1 z"
        style="fill: #737d87; stroke: none"
    />
    <path d="M 448 245 l 1 1 l -1 -1 z" style="fill: #ff738a; stroke: none" />
    <path d="M 147 246 l 1 1 l -1 -1 z" style="fill: #737d87; stroke: none" />
    <path
        d="M 148 246 l 1 1 l -1 -1 m 89 0 l 1 1 l -1 -1 z"
        style="fill: #69c3ff; stroke: none"
    />
    <path
        d="M 238.7 246.3 l 0.7 0.3 l -0.7 -0.3 z"
        style="fill: #737d87; stroke: none"
    />
    <path d="M 303 246 l 1 1 l -1 -1 z" style="fill: #ff738a; stroke: none" />
    <path
        d="M 343 246 l 1 1 l -1 -1 m 91 0 l 1 1 l -1 -1 z"
        style="fill: #737d87; stroke: none"
    />
    <path
        d="M 435 246 l 1 1 l -1 -1 m 12 0 l 1 1 l -1 -1 z"
        style="fill: #ff738a; stroke: none"
    />
    <path
        d="M 465 246 l 1 1 l -1 -1 m -322 1 l 1 1 l -1 -1 z"
        style="fill: #737d87; stroke: none"
    />
    <path
        d="M 144 247 l 1 1 l -1 -1 m 97 0 l 1 1 l -1 -1 z"
        style="fill: #69c3ff; stroke: none"
    />
    <path d="M 242 247 l 1 1 l -1 -1 z" style="fill: #737d87; stroke: none" />
    <path d="M 283 247 l 1 1 l -1 -1 z" style="fill: #ff738a; stroke: none" />
    <path
        d="M 303.3 247.7 l 0.3 0.7 l -0.3 -0.7 M 344 247 l 1 1 l -1 -1 m 73 0 l 1 1 l -1 -1 m 19 0 l 1 1 l -1 -1 m 10 0 l 1 1 l -1 -1 m 49.3 0.7 l 0.3 0.7 l -0.3 -0.7 M 140 248 l 1 1 l -1 -1 z"
        style="fill: #737d87; stroke: none"
    />
    <path
        d="M 141 248 l 1 1 l -1 -1 m 103 0 l 1 1 l -1 -1 z"
        style="fill: #69c3ff; stroke: none"
    />
    <path
        d="M 245 248 l 1 1 l -1 -1 m 38 0 l 1 1 l -1 -1 m 35 0 v 3 h 1 l -1 -3 m 27 0 l 1 1 l -1 -1 m 93 0 l 1 1 l -1 -1 z"
        style="fill: #737d87; stroke: none"
    />
    <path d="M 439 248 v 1 h 4 l -4 -1 z" style="fill: #ff738a; stroke: none" />
    <path
        d="M 443.7 248.3 l 0.7 0.3 l -0.7 -0.3 m 20.7 0.3 l 0.3 0.7 l -0.3 -0.7 M 138 249 l 1 1 l -1 -1 z"
        style="fill: #737d87; stroke: none"
    />
    <path d="M 139 249 l 1 1 l -1 -1 z" style="fill: #69c3ff; stroke: none" />
    <path d="M 247 249 l 1 1 l -1 -1 z" style="fill: #737d87; stroke: none" />
    <path d="M 302 249 l 1 1 l -1 -1 z" style="fill: #ff738a; stroke: none" />
    <path
        d="M 346 249 l 1 1 l -1 -1 m 34 0 l 1 1 l -1 -1 m -245 1 l 1 1 l -1 -1 z"
        style="fill: #737d87; stroke: none"
    />
    <path
        d="M 136 250 l 1 1 l -1 -1 m 113 0 l 1 1 l -1 -1 z"
        style="fill: #69c3ff; stroke: none"
    />
    <path
        d="M 250 250 l 1 1 l -1 -1 m 34 0 l 1 1 l -1 -1 m 18 0 l 1 1 l -1 -1 m 45 0 l 1 1 l -1 -1 m 32 0 l 1 1 l -1 -1 m -246 1 l 1 1 l -1 -1 m 119 0 l 1 1 l -1 -1 z"
        style="fill: #737d87; stroke: none"
    />
    <path d="M 285 251 l 1 1 l -1 -1 z" style="fill: #ff738a; stroke: none" />
    <path
        d="M 301 251 l 1 1 l -1 -1 m 118 0 l 1 1 l -1 -1 m -288 1 l 1 1 l -1 -1 z"
        style="fill: #737d87; stroke: none"
    />
    <path d="M 254 252 l 1 1 l -1 -1 z" style="fill: #69c3ff; stroke: none" />
    <path d="M 286 252 l 1 1 l -1 -1 z" style="fill: #ff738a; stroke: none" />
    <path
        d="M 300 252 l 1 1 l -1 -1 m 50 0 l 1 1 l -1 -1 m 26 0 l 1 1 l -1 -1 m 86 0 l 1 1 l -1 -1 m 34 0 v 3 h 1 l -1 -3 z"
        style="fill: #737d87; stroke: none"
    />
    <path
        d="M 129 253 l 1 1 l -1 -1 m 127 0 l 1 1 l -1 -1 z"
        style="fill: #69c3ff; stroke: none"
    />
    <path d="M 287 253 l 1 1 l -1 -1 z" style="fill: #737d87; stroke: none" />
    <path d="M 298 253 l 1 1 l -1 -1 z" style="fill: #ff738a; stroke: none" />
    <path
        d="M 299 253 l 1 1 l -1 -1 m 18 0 l 1 1 l -1 -1 m 35.7 0.3 l 0.7 0.3 l -0.7 -0.3 M 374 253 l 1 1 l -1 -1 m 46 0 l 1 1 l -1 -1 z"
        style="fill: #737d87; stroke: none"
    />
    <path
        d="M 127 254 l 1 1 l -1 -1 m 131 0 l 1 1 l -1 -1 z"
        style="fill: #69c3ff; stroke: none"
    />
    <path d="M 289 254 l 1 1 l -1 -1 z" style="fill: #737d87; stroke: none" />
    <path
        d="M 290 254 l 1 1 l -1 -1 m 6 0 l 1 1 l -1 -1 z"
        style="fill: #ff738a; stroke: none"
    />
    <path
        d="M 297 254 l 1 1 l -1 -1 m 58.7 0.3 l 0.7 0.3 l -0.7 -0.3 M 371 254 l 1 1 l -1 -1 m 50 0 l 1 1 l -1 -1 m 40 0 l 1 1 l -1 -1 z"
        style="fill: #737d87; stroke: none"
    />
    <path
        d="M 125 255 l 1 1 l -1 -1 m 135 0 l 1 1 l -1 -1 z"
        style="fill: #69c3ff; stroke: none"
    />
    <path
        d="M 293 255 l 1 1 l -1 -1 m 23 0 l 1 1 l -1 -1 m 44 0 v 1 h 8 l -8 -1 m 62 0 l 1 1 l -1 -1 m 38 0 l 1 1 l -1 -1 m -337 1 l 1 1 l -1 -1 m 139 0 l 1 1 l -1 -1 m 161 0 l 1 1 l -1 -1 m 36 0 l 1 1 l -1 -1 m -338 1 l 1 1 l -1 -1 m 143 0 l 1 1 l -1 -1 m 51 0 l 1 1 l -1 -1 m 109 0 l 1 1 l -1 -1 m 34 0 l 1 1 l -1 -1 z"
        style="fill: #737d87; stroke: none"
    />
    <path
        d="M 120 258 l 1 1 l -1 -1 m 145 0 l 1 1 l -1 -1 z"
        style="fill: #69c3ff; stroke: none"
    />
    <path
        d="M 425 258 l 1 1 l -1 -1 m 32 0 l 1 1 l -1 -1 m -339 1 l 1 1 l -1 -1 m 149 0 l 1 1 l -1 -1 m 189 0 l 1 1 l -1 -1 z"
        style="fill: #737d87; stroke: none"
    />
    <path
        d="M 117 260 l 1 1 l -1 -1 m 151 0 l 1 1 l -1 -1 z"
        style="fill: #69c3ff; stroke: none"
    />
    <path
        d="M 313 260 l 1 1 l -1 -1 m 115 0 l 1 1 l -1 -1 m 26 0 l 1 1 l -1 -1 m -339 1 l 1 1 l -1 -1 m 155 0 l 1 1 l -1 -1 m 42 0 l 1 1 l -1 -1 m 118 0 l 1 1 l -1 -1 m 23 0 l 1 1 l -1 -1 z"
        style="fill: #737d87; stroke: none"
    />
    <path
        d="M 114 262 l 1 1 l -1 -1 m 157 0 l 1 1 l -1 -1 z"
        style="fill: #69c3ff; stroke: none"
    />
    <path
        d="M 432.7 262.3 l 0.7 0.3 l -0.7 -0.3 M 450 262 l 1 1 l -1 -1 z"
        style="fill: #737d87; stroke: none"
    />
    <path d="M 188 263 v 1 h 10 l -10 -1 z" style="fill: #69c3ff; stroke: none" />
    <path
        d="M 273 263 l 1 1 l -1 -1 m 37 0 l 1 1 l -1 -1 m 126 0 v 1 h 3 l -3 -1 m 10.7 0.3 l 0.7 0.3 l -0.7 -0.3 M 111 264 l 1 1 l -1 -1 z"
        style="fill: #737d87; stroke: none"
    />
    <path
        d="M 179.7 264.3 l 0.7 0.3 l -0.7 -0.3 z"
        style="fill: #69c3ff; stroke: none"
    />
    <path
        d="M 181.7 264.3 l 0.7 0.3 l -0.7 -0.3 z"
        style="fill: #737d87; stroke: none"
    />
    <path
        d="M 183 264.4 c -14 2 -30.7 6.2 -38.1 19.6 c -6.6 11.9 1.4 33.9 17.1 33.8 c 18.1 -0.1 -6.2 -21 -3.9 -25.8 c 8.6 -18.6 47.6 -15.8 62 -7.5 c 21.2 12.3 -5.1 23.5 -18 25.2 c -3.6 0.5 -7.5 -0.2 -11 1.2 c -6.8 2.8 -5.9 11.8 1 13.7 c 19.2 5.4 58 -11.5 51.2 -35.6 c -6.4 -22.7 -40.4 -27.4 -60.2 -24.6 z"
        style="fill: #1c2433; stroke: none"
    />
    <path
        d="M 203.7 264.3 l 0.7 0.3 l -0.7 -0.3 z"
        style="fill: #737d87; stroke: none"
    />
    <path
        d="M 205.7 264.3 l 0.7 0.3 l -0.7 -0.3 z"
        style="fill: #69c3ff; stroke: none"
    />
    <path
        d="M 274 264 l 1 1 l -1 -1 m 35 0 l 1 1 l -1 -1 m -199 1 l 1 1 l -1 -1 z"
        style="fill: #737d87; stroke: none"
    />
    <path d="M 174 265 l 1 1 l -1 -1 z" style="fill: #69c3ff; stroke: none" />
    <path
        d="M 175.7 265.3 l 0.7 0.3 l -0.7 -0.3 M 210 265 l 1 1 l -1 -1 z"
        style="fill: #737d87; stroke: none"
    />
    <path
        d="M 211.7 265.3 l 0.7 0.3 l -0.7 -0.3 M 275 265 l 1 1 l -1 -1 z"
        style="fill: #69c3ff; stroke: none"
    />
    <path d="M 308 265 l 1 1 l -1 -1 z" style="fill: #737d87; stroke: none" />
    <path
        d="M 109 266 l 1 1 l -1 -1 m 61 0 l 1 1 l -1 -1 z"
        style="fill: #69c3ff; stroke: none"
    />
    <path
        d="M 171 266 l 1 1 l -1 -1 m 43 0 l 1 1 l -1 -1 z"
        style="fill: #737d87; stroke: none"
    />
    <path
        d="M 215 266 l 1 1 l -1 -1 m 61 0 l 1 1 l -1 -1 z"
        style="fill: #69c3ff; stroke: none"
    />
    <path
        d="M 306 266 l 1 1 l -1 -1 m 190 0 v 3 h 1 l -1 -3 z"
        style="fill: #737d87; stroke: none"
    />
    <path d="M 108 267 l 1 1 l -1 -1 z" style="fill: #69c3ff; stroke: none" />
    <path
        d="M 167 267 l 1 1 l -1 -1 m 51 0 l 1 1 l -1 -1 z"
        style="fill: #737d87; stroke: none"
    />
    <path
        d="M 277 267 l 1 1 l -1 -1 m -170 1 l 1 1 l -1 -1 m 57 0 l 1 1 l -1 -1 z"
        style="fill: #69c3ff; stroke: none"
    />
    <path
        d="M 165 268 l 1 1 l -1 -1 m 55 0 l 1 1 l -1 -1 z"
        style="fill: #737d87; stroke: none"
    />
    <path
        d="M 221 268 l 1 1 l -1 -1 m 57 0 l 1 1 l -1 -1 z"
        style="fill: #69c3ff; stroke: none"
    />
    <path d="M 302 268 l 1 1 l -1 -1 z" style="fill: #737d87; stroke: none" />
    <path d="M 106 269 l 1 1 l -1 -1 z" style="fill: #69c3ff; stroke: none" />
    <path
        d="M 162 269 l 1 1 l -1 -1 m 61 0 l 1 1 l -1 -1 z"
        style="fill: #737d87; stroke: none"
    />
    <path
        d="M 224 269 l 1 1 l -1 -1 m 55 0 l 1 1 l -1 -1 z"
        style="fill: #69c3ff; stroke: none"
    />
    <path d="M 299 269 v 2 l 2 -2 h -2 z" style="fill: #737d87; stroke: none" />
    <path
        d="M 105 270 l 1 1 l -1 -1 m 54 0 l 1 1 l -1 -1 z"
        style="fill: #69c3ff; stroke: none"
    />
    <path
        d="M 160 270 l 1 1 l -1 -1 m 65 0 l 1 1 l -1 -1 z"
        style="fill: #737d87; stroke: none"
    />
    <path
        d="M 226 270 l 1 1 l -1 -1 m 54 0 l 1 1 l -1 -1 z"
        style="fill: #69c3ff; stroke: none"
    />
    <path
        d="M 104 271 l 1 1 l -1 -1 m 54 0 l 1 1 l -1 -1 m 69 0 l 1 1 l -1 -1 z"
        style="fill: #737d87; stroke: none"
    />
    <path
        d="M 228 271 l 1 1 l -1 -1 m 53 0 l 1 1 l -1 -1 z"
        style="fill: #69c3ff; stroke: none"
    />
    <path
        d="M 103 272 l 1 1 l -1 -1 m 53 0 l 1 1 l -1 -1 m 73 0 l 1 1 l -1 -1 m 53 0 l 1 1 l -1 -1 m 18 0 l 1 1 l -1 -1 m 195.3 0.7 l 0.3 0.7 l -0.3 -0.7 z"
        style="fill: #737d87; stroke: none"
    />
    <path
        d="M 154 273 l 1 1 l -1 -1 m 77 0 l 1 1 l -1 -1 z"
        style="fill: #69c3ff; stroke: none"
    />
    <path
        d="M 283 273 l 1 1 l -1 -1 m -130 1 l 1 1 l -1 -1 m 79 0 l 1 1 l -1 -1 m 69 0 l 1 1 l -1 -1 z"
        style="fill: #737d87; stroke: none"
    />
    <path d="M 101 275 l 1 1 l -1 -1 z" style="fill: #69c3ff; stroke: none" />
    <path d="M 152 275 l 1 1 l -1 -1 z" style="fill: #737d87; stroke: none" />
    <path
        d="M 234 275 l 1 1 l -1 -1 m 50 0 l 1 1 l -1 -1 z"
        style="fill: #69c3ff; stroke: none"
    />
    <path d="M 100 276 l 1 1 l -1 -1 z" style="fill: #737d87; stroke: none" />
    <path
        d="M 150 276 l 1 1 l -1 -1 m 85 0 l 1 1 l -1 -1 z"
        style="fill: #69c3ff; stroke: none"
    />
    <path
        d="M 285 276 l 1 1 l -1 -1 m 17.3 0.7 l 0.3 0.7 l -0.3 -0.7 M 494 276 l 1 1 l -1 -1 z"
        style="fill: #737d87; stroke: none"
    />
    <path
        d="M 149 277 l 1 1 l -1 -1 m 87 0 l 1 1 l -1 -1 z"
        style="fill: #69c3ff; stroke: none"
    />
    <path d="M 99 278 l 1 1 l -1 -1 z" style="fill: #737d87; stroke: none" />
    <path d="M 148 278 l 1 1 l -1 -1 z" style="fill: #69c3ff; stroke: none" />
    <path d="M 190 278 v 1 h 6 l -6 -1 z" style="fill: #737d87; stroke: none" />
    <path
        d="M 237 278 l 1 1 l -1 -1 m 49 0 l 1 1 l -1 -1 m -139 1 l 1 1 l -1 -1 z"
        style="fill: #69c3ff; stroke: none"
    />
    <path d="M 181 279 v 1 h 3 l -3 -1 z" style="fill: #737d87; stroke: none" />
    <path
        d="M 169 314 c 4.1 1.1 10.6 3.9 14.8 2.4 c 3.3 -1.2 4.6 -4.9 8.2 -5.9 c 6.7 -1.9 14.1 -1.1 21 -3.2 c 12.2 -3.8 22.8 -14.8 7 -22.8 c -13.8 -7 -32.4 -7 -47 -2.7 c -5.4 1.6 -13.2 4.4 -15.2 10.3 C 154.4 301.5 170.4 303.9 169 314 z"
        style="fill: #ff738a; stroke: none"
    />
    <path d="M 202 279 v 1 h 3 l -3 -1 z" style="fill: #737d87; stroke: none" />
    <path d="M 238 279 l 1 1 l -1 -1 z" style="fill: #69c3ff; stroke: none" />
    <path
        d="M 303 279 l 1 1 l -1 -1 m 190 0 l 1 1 l -1 -1 z"
        style="fill: #737d87; stroke: none"
    />
    <path d="M 98 280 l 1 1 l -1 -1 z" style="fill: #69c3ff; stroke: none" />
    <path
        d="M 176.7 280.3 l 0.7 0.3 l -0.7 -0.3 m 32 0 l 0.7 0.3 l -0.7 -0.3 z"
        style="fill: #737d87; stroke: none"
    />
    <path d="M 287 280 l 1 1 l -1 -1 z" style="fill: #69c3ff; stroke: none" />
    <path
        d="M 146 281 l 1 1 l -1 -1 m 26.7 0.3 l 0.7 0.3 l -0.7 -0.3 m 40 0 l 0.7 0.3 l -0.7 -0.3 M 492 281 l 1 1 l -1 -1 m -395 1 l 1 1 l -1 -1 m 48 0 l 1 1 l -1 -1 m 25 0 l 1 1 l -1 -1 m 45 0 l 1 1 l -1 -1 m 25 0 l 1 1 l -1 -1 z"
        style="fill: #737d87; stroke: none"
    />
    <path d="M 288 282 l 1 1 l -1 -1 z" style="fill: #69c3ff; stroke: none" />
    <path
        d="M 304.3 282.7 l 0.3 0.7 l -0.3 -0.7 M 167 283 l 1 1 l -1 -1 m 51 0 l 1 1 l -1 -1 z"
        style="fill: #737d87; stroke: none"
    />
    <path d="M 241 283 l 1 1 l -1 -1 z" style="fill: #69c3ff; stroke: none" />
    <path
        d="M 491 283 l 1 1 l -1 -1 m -395 1 l 1 1 l -1 -1 m 48 0 l 1 1 l -1 -1 m 21 0 l 1 1 l -1 -1 m 55 0 l 1 1 l -1 -1 m 21 0 l 1 1 l -1 -1 m 48 0 l 1 1 l -1 -1 z"
        style="fill: #737d87; stroke: none"
    />
    <path
        d="M 96 285 l 1 1 l -1 -1 m 47 0 l 1 1 l -1 -1 m 99 0 l 1 1 l -1 -1 m 47 0 l 1 1 l -1 -1 z"
        style="fill: #69c3ff; stroke: none"
    />
    <path
        d="M 490 285 l 1 1 l -1 -1 m -347 1 l 1 1 l -1 -1 m 19 0 l 1 1 l -1 -1 m 61 0 l 1 1 l -1 -1 m 19 0 l 1 1 l -1 -1 m 63 0 v 3 h 1 l -1 -3 m -14.7 1.7 l 0.3 0.7 l -0.3 -0.7 M 489 287 l 1 1 l -1 -1 m -394 1 l 1 1 l -1 -1 z"
        style="fill: #737d87; stroke: none"
    />
    <path
        d="M 142 288 l 1 1 l -1 -1 m 101 0 l 1 1 l -1 -1 z"
        style="fill: #69c3ff; stroke: none"
    />
    <path d="M 364 288 l 1 1 l -1 -1 z" style="fill: #737d87; stroke: none" />
    <path d="M 95 289 v 3 h 1 l -1 -3 z" style="fill: #69c3ff; stroke: none" />
    <path
        d="M 142 289 l 1 1 l -1 -1 m 101 0 l 1 1 l -1 -1 z"
        style="fill: #737d87; stroke: none"
    />
    <path
        d="M 290.3 289.7 l 0.3 0.7 l -0.3 -0.7 z"
        style="fill: #69c3ff; stroke: none"
    />
    <path
        d="M 351 289 v 1 h 4 l -4 -1 m 23 0 v 1 h 4 l -4 -1 z"
        style="fill: #737d87; stroke: none"
    />
    <path d="M 79 290 l 1 1 l -1 -1 z" style="fill: #ff738a; stroke: none" />
    <path
        d="M 80 290 v 10 h 1 l -1 -10 m 265 0 v 1 h 3 l -3 -1 m 35 0 v 1 h 3 l -3 -1 m 107 0 l 1 1 l -1 -1 m -410 1 l 1 1 l -1 -1 z"
        style="fill: #737d87; stroke: none"
    />
    <path
        d="M 80 291 c -7.6 2.9 -14.3 8.5 -21 13 c -16.7 11.2 -51 25.3 -42 51 C 26 380.8 51.2 368.3 66 357.1 c 4.3 -3.2 11.4 -6.9 13.4 -12.2 C 81.2 340.2 80 333.1 80 328 v -37 z"
        style="fill: #c3cfd9; stroke: none"
    />
    <path
        d="M 157 291 l 1 1 l -1 -1 m 71 0 l 1 1 l -1 -1 m 113.7 0.3 l 0.7 0.3 l -0.7 -0.3 m 44 0 l 0.7 0.3 l -0.7 -0.3 z"
        style="fill: #737d87; stroke: none"
    />
    <path d="M 76 292 l 1 1 l -1 -1 z" style="fill: #ff738a; stroke: none" />
    <path d="M 244 292 v 5 h 1 l -1 -5 z" style="fill: #69c3ff; stroke: none" />
    <path
        d="M 338 292 l 1 1 l -1 -1 m 51.7 0.3 l 0.7 0.3 l -0.7 -0.3 M 74 293 l 1 1 l -1 -1 z"
        style="fill: #737d87; stroke: none"
    />
    <path d="M 141 293 v 3 h 1 l -1 -3 z" style="fill: #69c3ff; stroke: none" />
    <path
        d="M 335 293 l 1 1 l -1 -1 m 57.7 0.3 l 0.7 0.3 l -0.7 -0.3 z"
        style="fill: #737d87; stroke: none"
    />
    <path d="M 73 294 l 1 1 l -1 -1 z" style="fill: #ff738a; stroke: none" />
    <path
        d="M 229 294 l 1 1 l -1 -1 m 103 0 l 1 1 l -1 -1 m 63.7 0.3 l 0.7 0.3 l -0.7 -0.3 M 71 295 l 1 1 l -1 -1 m 259 0 l 1 1 l -1 -1 m 68 0 l 1 1 l -1 -1 m 85 0 l 1 1 l -1 -1 z"
        style="fill: #737d87; stroke: none"
    />
    <path d="M 70 296 l 1 1 l -1 -1 z" style="fill: #ff738a; stroke: none" />
    <path
        d="M 327 296 l 1 1 l -1 -1 m 73 0 l 1 1 l -1 -1 m -332 1 l 1 1 l -1 -1 z"
        style="fill: #737d87; stroke: none"
    />
    <path
        d="M 95.3 297.7 l 0.3 0.7 l -0.3 -0.7 z"
        style="fill: #69c3ff; stroke: none"
    />
    <path
        d="M 157 297 l 1 1 l -1 -1 m 71 0 l 1 1 l -1 -1 m 97 0 l 1 1 l -1 -1 m 78 0 l 1 1 l -1 -1 z"
        style="fill: #737d87; stroke: none"
    />
    <path d="M 67 298 l 1 1 l -1 -1 z" style="fill: #ff738a; stroke: none" />
    <path d="M 158 298 l 1 1 l -1 -1 z" style="fill: #737d87; stroke: none" />
    <path
        d="M 290.3 298.7 l 0.3 0.7 l -0.3 -0.7 z"
        style="fill: #69c3ff; stroke: none"
    />
    <path
        d="M 323 298 l 1 1 l -1 -1 m -258 1 l 1 1 l -1 -1 m 30.3 0.7 l 0.3 0.7 l -0.3 -0.7 M 142 299 l 1 1 l -1 -1 m 101 0 l 1 1 l -1 -1 m 78 0 l 1 1 l -1 -1 m 157 0 l 1 1 l -1 -1 z"
        style="fill: #737d87; stroke: none"
    />
    <path d="M 64 300 l 1 1 l -1 -1 z" style="fill: #ff738a; stroke: none" />
    <path
        d="M 142 300 l 1 1 l -1 -1 m 101 0 l 1 1 l -1 -1 z"
        style="fill: #69c3ff; stroke: none"
    />
    <path
        d="M 290 300 l 1 1 l -1 -1 m 118 0 l 1 1 l -1 -1 m 69 0 l 1 1 l -1 -1 m -415 1 l 1 1 l -1 -1 m 99 0 l 1 1 l -1 -1 m 63 0 l 1 1 l -1 -1 m 94 0 l 1 1 l -1 -1 m 92 0 l 1 1 l -1 -1 z"
        style="fill: #737d87; stroke: none"
    />
    <path d="M 61 302 l 1 1 l -1 -1 z" style="fill: #ff738a; stroke: none" />
    <path
        d="M 143 302 l 1 1 l -1 -1 m 19 0 l 1 1 l -1 -1 m 61 0 l 1 1 l -1 -1 m 19 0 l 1 1 l -1 -1 m 74 0 l 1 1 l -1 -1 m 96 0 l 1 1 l -1 -1 m 62 0 l 1 1 l -1 -1 m -415 1 l 1 1 l -1 -1 m 37.3 0.7 l 0.3 0.7 l -0.3 -0.7 M 164 303 l 1 1 l -1 -1 m 57 0 l 1 1 l -1 -1 z"
        style="fill: #737d87; stroke: none"
    />
    <path
        d="M 242 303 l 1 1 l -1 -1 m 47 0 l 1 1 l -1 -1 z"
        style="fill: #69c3ff; stroke: none"
    />
    <path
        d="M 315 303 l 1 1 l -1 -1 m 47 0 v 1 h 4 l -4 -1 m 51 0 l 1 1 l -1 -1 z"
        style="fill: #737d87; stroke: none"
    />
    <path d="M 58 304 l 1 1 l -1 -1 z" style="fill: #ff738a; stroke: none" />
    <path
        d="M 144 304 l 1 1 l -1 -1 m 75 0 l 1 1 l -1 -1 m 22 0 l 1 1 l -1 -1 m 48 0 l 1 1 l -1 -1 m 24 0 l 1 1 l -1 -1 m 39.7 0.3 l 0.7 0.3 l -0.7 -0.3 z"
        style="fill: #737d87; stroke: none"
    />
    <path
        d="M 369 405 c -3.2 -10.1 -10.5 -19.1 -11 -30 c -1.4 -31.2 29.5 -30 51 -34.7 c 11.8 -2.6 22.8 -7 34 -11.3 c -7.5 -3.6 -17 -3.3 -25 -6.6 c -9 -3.7 -16.8 -9.8 -26 -13.3 c -23.7 -9.1 -48.7 -5.7 -70 7.6 c -4.2 2.6 -11.1 4.5 -14.4 8 C 304.4 328.1 306 336.6 306 341 v 45 c 0 4.2 -1.9 15.1 1.6 18 c 8.6 7.1 21.9 -5.6 30.4 -5.9 c 11.4 -0.5 19.2 9.7 31 7 z"
        style="fill: #69c3ff; stroke: none"
    />
    <path
        d="M 374 304 v 1 h 3 l -3 -1 m 41 0 l 1 1 l -1 -1 m 56 0 l 1 1 l -1 -1 m -415 1 l 1 1 l -1 -1 z"
        style="fill: #737d87; stroke: none"
    />
    <path d="M 97 305 l 1 1 l -1 -1 z" style="fill: #69c3ff; stroke: none" />
    <path
        d="M 167 305 l 1 1 l -1 -1 m 50 0 l 1 1 l -1 -1 m 130 0 l 1 1 l -1 -1 m 33.7 0.3 l 0.7 0.3 l -0.7 -0.3 M 417 305 l 1 1 l -1 -1 m 52 0 l 1 1 l -1 -1 z"
        style="fill: #737d87; stroke: none"
    />
    <path d="M 55 306 l 1 1 l -1 -1 z" style="fill: #ff738a; stroke: none" />
    <path d="M 97 306 l 1 1 l -1 -1 z" style="fill: #737d87; stroke: none" />
    <path d="M 145 306 l 1 1 l -1 -1 z" style="fill: #69c3ff; stroke: none" />
    <path
        d="M 215 306 l 1 1 l -1 -1 m 25 0 l 1 1 l -1 -1 m 48 0 l 1 1 l -1 -1 m 22 0 l 1 1 l -1 -1 m 33 0 l 1 1 l -1 -1 m 41 0 l 1 1 l -1 -1 m 34 0 l 1 1 l -1 -1 m 49 0 l 1 1 l -1 -1 m -414 1 l 1 1 l -1 -1 m 93 0 l 1 1 l -1 -1 m 22 0 l 1 1 l -1 -1 m 44 0 l 1 1 l -1 -1 m 27 0 l 1 1 l -1 -1 m 69 0 l 1 1 l -1 -1 m 32 0 l 1 1 l -1 -1 m 47 0 l 1 1 l -1 -1 m 33 0 l 1 1 l -1 -1 m 45 0 l 1 1 l -1 -1 z"
        style="fill: #737d87; stroke: none"
    />
    <path d="M 52 308 l 1 1 l -1 -1 z" style="fill: #ff738a; stroke: none" />
    <path
        d="M 98 308 l 1 1 l -1 -1 m 109.7 0.3 l 0.7 0.3 l -0.7 -0.3 z"
        style="fill: #737d87; stroke: none"
    />
    <path d="M 287 308 l 1 1 l -1 -1 z" style="fill: #69c3ff; stroke: none" />
    <path
        d="M 306 308 l 1 1 l -1 -1 m 31 0 l 1 1 l -1 -1 m 53 0 l 1 1 l -1 -1 m 33 0 l 1 1 l -1 -1 m 40 0 l 1 1 l -1 -1 m -413 1 l 1 1 l -1 -1 m 119 0 v 4 h 1 l -1 -4 m 32 0 v 1 h 3 l -3 -1 z"
        style="fill: #737d87; stroke: none"
    />
    <path d="M 238 309 l 1 1 l -1 -1 z" style="fill: #69c3ff; stroke: none" />
    <path
        d="M 335 309 l 1 1 l -1 -1 m 58 0 l 1 1 l -1 -1 m 32 0 l 1 1 l -1 -1 m 35 0 l 1 1 l -1 -1 z"
        style="fill: #737d87; stroke: none"
    />
    <path d="M 489 311 l 3 -1 l -3 1 z" style="fill: #69c3ff; stroke: none" />
    <path d="M 49 310 l 1 1 l -1 -1 z" style="fill: #ff738a; stroke: none" />
    <path d="M 99 310 l 1 1 l -1 -1 z" style="fill: #737d87; stroke: none" />
    <path d="M 148 310 l 1 1 l -1 -1 z" style="fill: #69c3ff; stroke: none" />
    <path
        d="M 190.7 310.3 l 0.7 0.3 l -0.7 -0.3 z"
        style="fill: #737d87; stroke: none"
    />
    <path d="M 237 310 l 1 1 l -1 -1 z" style="fill: #69c3ff; stroke: none" />
    <path
        d="M 286 310 l 1 1 l -1 -1 m 109 0 l 1 1 l -1 -1 m 33 0 l 1 1 l -1 -1 m 28.7 0.3 l 0.7 0.3 l -0.7 -0.3 z"
        style="fill: #737d87; stroke: none"
    />
    <path
        d="M 369 405 c 7.4 -1.8 14.1 -8.4 22 -7.7 c 11.3 1.1 18.6 10.6 31 7 c 10.5 -3 13.1 -13.8 21 -20 c 7.8 -6.1 18.3 -3.7 25.8 -10.7 c 8.8 -8.3 4.3 -17.8 7.4 -27.7 c 2.5 -8 9.8 -12 13.7 -19 c 3.1 -5.6 2.5 -10.9 2.1 -17 c -7.7 2.6 -13.4 9.2 -21 12.4 c -9.2 3.9 -18.6 3.6 -28 6.2 c -11.9 3.3 -22.8 9.1 -35 11.7 c -14.9 3.2 -32.9 0.3 -43.5 13.7 c -13.2 16.7 -3.1 34.6 4.5 51 z"
        style="fill: #c3cfd9; stroke: none"
    />
    <path d="M 47 311 l 1 1 l -1 -1 z" style="fill: #737d87; stroke: none" />
    <path d="M 100 311 l 1 1 l -1 -1 z" style="fill: #69c3ff; stroke: none" />
    <path d="M 188 311 l 1 1 l -1 -1 z" style="fill: #737d87; stroke: none" />
    <path d="M 236 311 l 1 1 l -1 -1 z" style="fill: #69c3ff; stroke: none" />
    <path
        d="M 397 311 l 1 1 l -1 -1 m 34 0 v 1 h 3 l -3 -1 m 21.7 0.3 l 0.7 0.3 l -0.7 -0.3 m 39.7 0.3 l 0.3 0.7 l -0.3 -0.7 z"
        style="fill: #737d87; stroke: none"
    />
    <path d="M 46 312 l 1 1 l -1 -1 z" style="fill: #ff738a; stroke: none" />
    <path
        d="M 100 312 l 1 1 l -1 -1 m 51 0 l 1 1 l -1 -1 m 36 0 l 1 1 l -1 -1 z"
        style="fill: #737d87; stroke: none"
    />
    <path d="M 235 312 l 1 1 l -1 -1 z" style="fill: #69c3ff; stroke: none" />
    <path
        d="M 285 312 l 1 1 l -1 -1 m 114 0 l 1 1 l -1 -1 m 38 0 v 1 h 11 l -11 -1 m 49 0 l 1 1 l -1 -1 m -442 1 l 1 1 l -1 -1 m 57 0 l 1 1 l -1 -1 m 51 0 l 1 1 l -1 -1 m 81 0 l 1 1 l -1 -1 z"
        style="fill: #737d87; stroke: none"
    />
    <path d="M 284 313 l 1 1 l -1 -1 z" style="fill: #69c3ff; stroke: none" />
    <path
        d="M 327 313 l 1 1 l -1 -1 m 74 0 l 1 1 l -1 -1 m 84 0 l 1 1 l -1 -1 z"
        style="fill: #737d87; stroke: none"
    />
    <path
        d="M 492.3 313.7 l 0.3 0.7 l -0.3 -0.7 z"
        style="fill: #69c3ff; stroke: none"
    />
    <path d="M 43 314 l 1 1 l -1 -1 z" style="fill: #ff738a; stroke: none" />
    <path
        d="M 102 314 l 1 1 l -1 -1 m 51 0 l 1 1 l -1 -1 z"
        style="fill: #69c3ff; stroke: none"
    />
    <path
        d="M 168 314 l 1 1 l -1 -1 m 18 0 l 1 1 l -1 -1 m 46 0 l 1 1 l -1 -1 z"
        style="fill: #737d87; stroke: none"
    />
    <path d="M 283 314 l 1 1 l -1 -1 z" style="fill: #69c3ff; stroke: none" />
    <path
        d="M 325 314 l 1 1 l -1 -1 m 78 0 l 1 1 l -1 -1 z"
        style="fill: #737d87; stroke: none"
    />
    <path d="M 484 314 l 1 1 l -1 -1 z" style="fill: #69c3ff; stroke: none" />
    <path
        d="M 41 315 l 1 1 l -1 -1 m 114 0 l 1 1 l -1 -1 m 75 0 l 1 1 l -1 -1 z"
        style="fill: #737d87; stroke: none"
    />
    <path d="M 231 315 l 1 1 l -1 -1 z" style="fill: #69c3ff; stroke: none" />
    <path d="M 482 315 l 1 1 l -1 -1 z" style="fill: #737d87; stroke: none" />
    <path d="M 40 316 l 1 1 l -1 -1 z" style="fill: #ff738a; stroke: none" />
    <path d="M 103 316 l 1 1 l -1 -1 z" style="fill: #737d87; stroke: none" />
    <path d="M 156 316 l 1 1 l -1 -1 z" style="fill: #69c3ff; stroke: none" />
    <path
        d="M 185.3 316.7 l 0.3 0.7 l -0.3 -0.7 z"
        style="fill: #737d87; stroke: none"
    />
    <path d="M 229 316 l 1 1 l -1 -1 z" style="fill: #69c3ff; stroke: none" />
    <path
        d="M 282 316 l 1 1 l -1 -1 m 40 0 l 1 1 l -1 -1 m 84 0 l 1 1 l -1 -1 m 75 0 l 1 1 l -1 -1 m -443 1 l 1 1 l -1 -1 m 66 0 l 1 1 l -1 -1 z"
        style="fill: #737d87; stroke: none"
    />
    <path d="M 158 317 l 1 1 l -1 -1 z" style="fill: #69c3ff; stroke: none" />
    <path
        d="M 165 317 l 1 1 l -1 -1 m 62 0 l 1 1 l -1 -1 m 54 0 l 1 1 l -1 -1 m 127 0 l 1 1 l -1 -1 z"
        style="fill: #737d87; stroke: none"
    />
    <path d="M 480 317 l 1 1 l -1 -1 z" style="fill: #69c3ff; stroke: none" />
    <path d="M 37 318 l 1 1 l -1 -1 z" style="fill: #ff738a; stroke: none" />
    <path d="M 105 318 l 1 1 l -1 -1 z" style="fill: #737d87; stroke: none" />
    <path
        d="M 161 318 v 1 h 3 l -3 -1 m 24.3 0.7 l 0.3 0.7 l -0.3 -0.7 z"
        style="fill: #69c3ff; stroke: none"
    />
    <path d="M 225 318 l 1 1 l -1 -1 z" style="fill: #737d87; stroke: none" />
    <path d="M 280 318 l 1 1 l -1 -1 z" style="fill: #69c3ff; stroke: none" />
    <path
        d="M 319 318 l 1 1 l -1 -1 m 159 0 l 1 1 l -1 -1 m -443 1 l 1 1 l -1 -1 z"
        style="fill: #737d87; stroke: none"
    />
    <path
        d="M 106 319 l 1 1 l -1 -1 m 117 0 l 1 1 l -1 -1 m 56 0 l 1 1 l -1 -1 z"
        style="fill: #69c3ff; stroke: none"
    />
    <path
        d="M 317 319 l 1 1 l -1 -1 m 94 0 l 1 1 l -1 -1 m 65 0 l 1 1 l -1 -1 z"
        style="fill: #737d87; stroke: none"
    />
    <path
        d="M 492.3 319.7 l 0.3 0.7 l -0.3 -0.7 z"
        style="fill: #69c3ff; stroke: none"
    />
    <path d="M 34 320 l 1 1 l -1 -1 z" style="fill: #ff738a; stroke: none" />
    <path d="M 107 320 l 1 1 l -1 -1 z" style="fill: #69c3ff; stroke: none" />
    <path d="M 220 320 l 1 1 l -1 -1 z" style="fill: #737d87; stroke: none" />
    <path
        d="M 221 320 l 1 1 l -1 -1 m 57 0 l 1 1 l -1 -1 z"
        style="fill: #69c3ff; stroke: none"
    />
    <path
        d="M 315 320 l 1 1 l -1 -1 m 98 0 l 1 1 l -1 -1 m 61 0 l 1 1 l -1 -1 z"
        style="fill: #737d87; stroke: none"
    />
    <path d="M 475 320 l 1 1 l -1 -1 z" style="fill: #69c3ff; stroke: none" />
    <path
        d="M 32 321 l 1 1 l -1 -1 m 76 0 l 1 1 l -1 -1 z"
        style="fill: #737d87; stroke: none"
    />
    <path d="M 186 321 l 1 1 l -1 -1 z" style="fill: #69c3ff; stroke: none" />
    <path d="M 217 321 l 1 1 l -1 -1 z" style="fill: #737d87; stroke: none" />
    <path
        d="M 218 321 l 1 1 l -1 -1 m 59 0 l 1 1 l -1 -1 z"
        style="fill: #69c3ff; stroke: none"
    />
    <path
        d="M 313 321 l 1 1 l -1 -1 m 102 0 l 1 1 l -1 -1 m 57 0 l 1 1 l -1 -1 z"
        style="fill: #737d87; stroke: none"
    />
    <path d="M 473 321 l 1 1 l -1 -1 z" style="fill: #69c3ff; stroke: none" />
    <path d="M 492 321 l 1 1 l -1 -1 z" style="fill: #737d87; stroke: none" />
    <path d="M 31 322 l 1 1 l -1 -1 z" style="fill: #ff738a; stroke: none" />
    <path
        d="M 109 322 l 1 1 l -1 -1 m 78 0 l 1 1 l -1 -1 m 26.7 0.3 l 0.7 0.3 l -0.7 -0.3 z"
        style="fill: #737d87; stroke: none"
    />
    <path d="M 215 322 l 1 1 l -1 -1 z" style="fill: #69c3ff; stroke: none" />
    <path
        d="M 276 322 l 1 1 l -1 -1 m 35 0 l 1 1 l -1 -1 m 159 0 l 1 1 l -1 -1 m -441 1 l 1 1 l -1 -1 m 81 0 l 1 1 l -1 -1 m 78 0 l 1 1 l -1 -1 m 21 0 l 1 1 l -1 -1 z"
        style="fill: #737d87; stroke: none"
    />
    <path
        d="M 210.7 323.3 l 0.7 0.3 l -0.7 -0.3 z"
        style="fill: #69c3ff; stroke: none"
    />
    <path
        d="M 275 323 l 1 1 l -1 -1 m 33 0 l 1 1 l -1 -1 m 112 0 l 1 1 l -1 -1 m 47 0 l 1 1 l -1 -1 z"
        style="fill: #737d87; stroke: none"
    />
    <path
        d="M 468 323 l 1 1 l -1 -1 m 23 0 l 1 1 l -1 -1 z"
        style="fill: #69c3ff; stroke: none"
    />
    <path d="M 28 324 l 1 1 l -1 -1 z" style="fill: #ff738a; stroke: none" />
    <path d="M 189 324 l 1 1 l -1 -1 z" style="fill: #69c3ff; stroke: none" />
    <path
        d="M 190 324 l 1 1 l -1 -1 m 11 0 v 1 h 3 l -3 -1 z"
        style="fill: #737d87; stroke: none"
    />
    <path
        d="M 204.7 324.3 l 0.7 0.3 l -0.7 -0.3 z"
        style="fill: #69c3ff; stroke: none"
    />
    <path
        d="M 274 324 l 1 1 l -1 -1 m 32 0 l 1 1 l -1 -1 m 117 0 l 1 1 l -1 -1 m 41 0 l 1 1 l -1 -1 z"
        style="fill: #737d87; stroke: none"
    />
    <path d="M 465 324 l 1 1 l -1 -1 z" style="fill: #69c3ff; stroke: none" />
    <path
        d="M 491 324 l 1 1 l -1 -1 m -465 1 l 1 1 l -1 -1 z"
        style="fill: #737d87; stroke: none"
    />
    <path
        d="M 113 325 l 1 1 l -1 -1 m 159 0 l 1 1 l -1 -1 z"
        style="fill: #69c3ff; stroke: none"
    />
    <path
        d="M 426.7 325.3 l 0.7 0.3 l -0.7 -0.3 M 460 325 l 1 1 l -1 -1 z"
        style="fill: #737d87; stroke: none"
    />
    <path
        d="M 461.7 325.3 l 0.7 0.3 l -0.7 -0.3 M 25 326 l 1 1 l -1 -1 z"
        style="fill: #69c3ff; stroke: none"
    />
    <path d="M 114 326 l 1 1 l -1 -1 z" style="fill: #737d87; stroke: none" />
    <path d="M 271 326 l 1 1 l -1 -1 z" style="fill: #69c3ff; stroke: none" />
    <path
        d="M 430 326 v 1 h 3 l -3 -1 m 24 0 v 1 h 3 l -3 -1 z"
        style="fill: #737d87; stroke: none"
    />
    <path d="M 457 326 l 1 1 l -1 -1 z" style="fill: #69c3ff; stroke: none" />
    <path
        d="M 490 326 l 1 1 l -1 -1 m -375 1 l 1 1 l -1 -1 m 155 0 l 1 1 l -1 -1 m 168 0 v 1 h 10 l -10 -1 z"
        style="fill: #737d87; stroke: none"
    />
    <path
        d="M 448 327 v 1 h 3 l -3 -1 m -331 1 l 1 1 l -1 -1 m 151 0 l 1 1 l -1 -1 z"
        style="fill: #69c3ff; stroke: none"
    />
    <path
        d="M 489 328 l 1 1 l -1 -1 m -371 1 l 1 1 l -1 -1 m 149 0 l 1 1 l -1 -1 m 221 0 l 1 1 l -1 -1 z"
        style="fill: #737d87; stroke: none"
    />
    <path d="M 21 330 l 1 1 l -1 -1 z" style="fill: #ff738a; stroke: none" />
    <path
        d="M 95 330 v 51 c 0 8.7 -1.4 18.7 1.5 27 c 7.6 21.6 33.5 34.2 54.5 39 v -1 c -5.7 -7.4 -4 -23.9 -4 -33 c -17.9 -3.6 -6.4 -36.9 5 -22 h 1 c 7.9 -18.6 36 -24.3 54 -27 v -1 c -29.2 0 -57.1 -1.5 -84 -14.3 c -10.3 -4.9 -18.4 -12.7 -28 -18.7 z"
        style="fill: #737d87; stroke: none"
    />
    <path
        d="M 120 330 l 1 1 l -1 -1 m 145 0 l 1 1 l -1 -1 m 25 0 c -17 16.9 -39.7 26.4 -63 30.7 c -19.6 3.7 -44.9 4.7 -62 15.8 c -14.2 9.2 -8.7 17.1 -12.4 30.4 c -0.9 3.1 -3.7 4.6 -5 7.4 c -1.9 4.4 -0.4 11.1 0.1 15.6 c 0.5 4.4 -0.8 13.7 3.6 16.3 c 13.5 8.1 39.8 6.3 54.7 4.8 c 29 -2.8 70.6 -11.2 82.5 -42.2 c 5.2 -13.5 2.5 -30.8 2.5 -45 c 0 -9.8 2.8 -24.9 -1 -34 m 197 0 l 1 1 l -1 -1 z"
        style="fill: #69c3ff; stroke: none"
    />
    <path d="M 20 331 l 1 1 l -1 -1 z" style="fill: #737d87; stroke: none" />
    <path
        d="M 122 331 l 1 1 l -1 -1 m 141 0 l 1 1 l -1 -1 z"
        style="fill: #69c3ff; stroke: none"
    />
    <path d="M 264 331 l 1 1 l -1 -1 z" style="fill: #737d87; stroke: none" />
    <path d="M 486 331 l 1 1 l -1 -1 z" style="fill: #69c3ff; stroke: none" />
    <path
        d="M 123 332 l 1 1 l -1 -1 m 139 0 l 1 1 l -1 -1 m -137 1 l 1 1 l -1 -1 m 135 0 l 1 1 l -1 -1 m 26 0 l 1 1 l -1 -1 m -268 1 l 1 1 l -1 -1 m 109 0 l 1 1 l -1 -1 m 131 0 l 1 1 l -1 -1 m 27 0 l 1 1 l -1 -1 z"
        style="fill: #737d87; stroke: none"
    />
    <path d="M 483 334 l 1 1 l -1 -1 z" style="fill: #69c3ff; stroke: none" />
    <path
        d="M 129 335 l 1 1 l -1 -1 m 127 0 l 1 1 l -1 -1 m 28 0 l 1 1 l -1 -1 z"
        style="fill: #737d87; stroke: none"
    />
    <path d="M 482 335 l 1 1 l -1 -1 z" style="fill: #69c3ff; stroke: none" />
    <path
        d="M 17 336 l 1 1 l -1 -1 m 114 0 l 1 1 l -1 -1 z"
        style="fill: #737d87; stroke: none"
    />
    <path d="M 132 336 l 1 1 l -1 -1 z" style="fill: #69c3ff; stroke: none" />
    <path
        d="M 254 336 l 1 1 l -1 -1 m 29 0 l 1 1 l -1 -1 z"
        style="fill: #737d87; stroke: none"
    />
    <path d="M 481 336 l 1 1 l -1 -1 z" style="fill: #69c3ff; stroke: none" />
    <path d="M 133 337 l 1 1 l -1 -1 z" style="fill: #737d87; stroke: none" />
    <path
        d="M 134 337 l 1 1 l -1 -1 m 117 0 l 1 1 l -1 -1 z"
        style="fill: #69c3ff; stroke: none"
    />
    <path d="M 252 337 l 1 1 l -1 -1 z" style="fill: #737d87; stroke: none" />
    <path d="M 480 337 l 1 1 l -1 -1 z" style="fill: #69c3ff; stroke: none" />
    <path
        d="M 136 338 l 1 1 l -1 -1 m 113 0 l 1 1 l -1 -1 m 31 0 l 1 1 l -1 -1 m -264 1 l 1 1 l -1 -1 m 122 0 l 1 1 l -1 -1 z"
        style="fill: #737d87; stroke: none"
    />
    <path
        d="M 139 339 l 1 1 l -1 -1 m 107 0 l 1 1 l -1 -1 z"
        style="fill: #69c3ff; stroke: none"
    />
    <path
        d="M 247 339 l 1 1 l -1 -1 m 32 0 l 1 1 l -1 -1 m 200 0 l 1 1 l -1 -1 m -338 1 l 1 1 l -1 -1 z"
        style="fill: #737d87; stroke: none"
    />
    <path
        d="M 142 340 l 1 1 l -1 -1 m 101 0 l 1 1 l -1 -1 z"
        style="fill: #69c3ff; stroke: none"
    />
    <path
        d="M 244 340 l 1 1 l -1 -1 m 33 0 l 1 1 l -1 -1 z"
        style="fill: #737d87; stroke: none"
    />
    <path d="M 478 340 l 1 1 l -1 -1 z" style="fill: #69c3ff; stroke: none" />
    <path d="M 144 341 l 1 1 l -1 -1 z" style="fill: #737d87; stroke: none" />
    <path
        d="M 145 341 l 1 1 l -1 -1 m 95 0 l 1 1 l -1 -1 z"
        style="fill: #69c3ff; stroke: none"
    />
    <path
        d="M 241 341 l 1 1 l -1 -1 m 35 0 l 1 1 l -1 -1 m -261 1 v 3 h 1 l -1 -3 m 132 0 l 1 1 l -1 -1 z"
        style="fill: #737d87; stroke: none"
    />
    <path
        d="M 148 342 l 1 1 l -1 -1 m 89 0 l 1 1 l -1 -1 z"
        style="fill: #69c3ff; stroke: none"
    />
    <path
        d="M 238 342 l 1 1 l -1 -1 m 36 0 l 1 1 l -1 -1 m 203 0 l 1 1 l -1 -1 m -326 1 l 1 1 l -1 -1 z"
        style="fill: #737d87; stroke: none"
    />
    <path
        d="M 152 343 l 1 1 l -1 -1 m 81 0 l 1 1 l -1 -1 z"
        style="fill: #69c3ff; stroke: none"
    />
    <path
        d="M 234 343 l 1 1 l -1 -1 m 39 0 l 1 1 l -1 -1 m -118.3 1.3 l 0.7 0.3 l -0.7 -0.3 z"
        style="fill: #737d87; stroke: none"
    />
    <path
        d="M 156.7 344.3 l 0.7 0.3 l -0.7 -0.3 M 229 344 l 1 1 l -1 -1 z"
        style="fill: #69c3ff; stroke: none"
    />
    <path
        d="M 230.7 344.3 l 0.7 0.3 l -0.7 -0.3 M 271 344 l 1 1 l -1 -1 z"
        style="fill: #737d87; stroke: none"
    />
    <path
        d="M 476 344 l 1 1 l -1 -1 m -461 1 l 1 1 l -1 -1 z"
        style="fill: #69c3ff; stroke: none"
    />
    <path
        d="M 159.7 345.3 l 0.7 0.3 l -0.7 -0.3 z"
        style="fill: #737d87; stroke: none"
    />
    <path
        d="M 161 345 l 1 1 l -1 -1 m 63 0 l 1 1 l -1 -1 z"
        style="fill: #69c3ff; stroke: none"
    />
    <path
        d="M 225.7 345.3 l 0.7 0.3 l -0.7 -0.3 M 269 345 l 1 1 l -1 -1 m 207 0 l 1 1 l -1 -1 z"
        style="fill: #737d87; stroke: none"
    />
    <path d="M 15 346 l 1 1 l -1 -1 z" style="fill: #ff738a; stroke: none" />
    <path d="M 79 346 l 1 1 l -1 -1 z" style="fill: #69c3ff; stroke: none" />
    <path d="M 164 346 v 1 h 3 l -3 -1 z" style="fill: #737d87; stroke: none" />
    <path
        d="M 167.7 346.3 l 0.7 0.3 l -0.7 -0.3 m 50 0 l 0.7 0.3 l -0.7 -0.3 z"
        style="fill: #69c3ff; stroke: none"
    />
    <path
        d="M 219 346 v 1 h 3 l -3 -1 m 49 0 l 1 1 l -1 -1 z"
        style="fill: #737d87; stroke: none"
    />
    <path
        d="M 15.3 347.7 l 0.3 0.7 l -0.3 -0.7 z"
        style="fill: #69c3ff; stroke: none"
    />
    <path
        d="M 78 347 l 1 1 l -1 -1 m 93 0 v 1 h 3 l -3 -1 z"
        style="fill: #737d87; stroke: none"
    />
    <path
        d="M 174 347 v 1 h 3 l -3 -1 m 35 0 v 1 h 3 l -3 -1 z"
        style="fill: #69c3ff; stroke: none"
    />
    <path
        d="M 212 347 v 1 h 3 l -3 -1 m 54 0 l 1 1 l -1 -1 m -189 1 l 1 1 l -1 -1 m 104 0 v 1 h 9 l -9 -1 z"
        style="fill: #737d87; stroke: none"
    />
    <path d="M 190 348 v 1 h 6 l -6 -1 z" style="fill: #69c3ff; stroke: none" />
    <path
        d="M 196 348 v 1 h 9 l -9 -1 m 68 0 l 1 1 l -1 -1 z"
        style="fill: #737d87; stroke: none"
    />
    <path
        d="M 475.3 348.7 l 0.3 0.7 l -0.3 -0.7 z"
        style="fill: #69c3ff; stroke: none"
    />
    <path d="M 15 349 v 3 h 1 l -1 -3 z" style="fill: #737d87; stroke: none" />
    <path d="M 75 349 l 1 1 l -1 -1 z" style="fill: #ff738a; stroke: none" />
    <path
        d="M 261.7 349.3 l 0.7 0.3 l -0.7 -0.3 M 74 350 l 1 1 l -1 -1 m 185 0 l 1 1 l -1 -1 m 216 0 l 1 1 l -1 -1 m -402 1 l 1 1 l -1 -1 m 184 0 l 1 1 l -1 -1 z"
        style="fill: #737d87; stroke: none"
    />
    <path d="M 475 351 v 4 h 1 l -1 -4 z" style="fill: #69c3ff; stroke: none" />
    <path
        d="M 254.7 352.3 l 0.7 0.3 l -0.7 -0.3 M 70 353 l 1 1 l -1 -1 m 182 0 l 1 1 l -1 -1 m -236 1 l 1 1 l -1 -1 m 53 0 l 1 1 l -1 -1 m 180.7 0.3 l 0.7 0.3 l -0.7 -0.3 m -3 1 l 0.7 0.3 l -0.7 -0.3 z"
        style="fill: #737d87; stroke: none"
    />
    <path d="M 17 356 l 1 1 l -1 -1 z" style="fill: #ff738a; stroke: none" />
    <path d="M 66 356 l 1 1 l -1 -1 z" style="fill: #69c3ff; stroke: none" />
    <path
        d="M 243.7 356.3 l 0.7 0.3 l -0.7 -0.3 M 17 357 l 1 1 l -1 -1 m 48 0 l 1 1 l -1 -1 m 174.7 0.3 l 0.7 0.3 l -0.7 -0.3 z"
        style="fill: #737d87; stroke: none"
    />
    <path d="M 18 358 l 1 1 l -1 -1 z" style="fill: #ff738a; stroke: none" />
    <path
        d="M 64 358 l 1 1 l -1 -1 m 171 0 v 1 h 3 l -3 -1 z"
        style="fill: #737d87; stroke: none"
    />
    <path d="M 62 359 l 1 1 l -1 -1 z" style="fill: #ff738a; stroke: none" />
    <path
        d="M 231.7 359.3 l 0.7 0.3 l -0.7 -0.3 z"
        style="fill: #737d87; stroke: none"
    />
    <path
        d="M 475.3 359.7 l 0.3 0.7 l -0.3 -0.7 z"
        style="fill: #69c3ff; stroke: none"
    />
    <path
        d="M 19 360 l 1 1 l -1 -1 m 42 0 l 1 1 l -1 -1 m 165 0 v 1 h 3 l -3 -1 m -166 1 l 1 1 l -1 -1 m 160 0 v 1 h 3 l -3 -1 m 255.3 0.7 l 0.3 0.7 l -0.3 -0.7 M 212 362 v 1 h 5 l -5 -1 m -191 1 l 1 1 l -1 -1 z"
        style="fill: #737d87; stroke: none"
    />
    <path d="M 57 363 l 1 1 l -1 -1 z" style="fill: #69c3ff; stroke: none" />
    <path
        d="M 22 364 l 1 1 l -1 -1 m 34 0 l 1 1 l -1 -1 z"
        style="fill: #737d87; stroke: none"
    />
    <path d="M 474 364 l 1 1 l -1 -1 z" style="fill: #69c3ff; stroke: none" />
    <path
        d="M 23 365 l 1 1 l -1 -1 m 56 0 l 1 1 l -1 -1 m 395 0 l 1 1 l -1 -1 m -450 1 l 1 1 l -1 -1 m 29 0 l 1 1 l -1 -1 z"
        style="fill: #737d87; stroke: none"
    />
    <path d="M 78 366 l -1 2 l 1 -2 z" style="fill: #ff738a; stroke: none" />
    <path
        d="M 79 366 c -6.5 5.2 -18.6 10.3 -23 17.4 C 46.3 399.1 69.1 410.8 81 411 l -2 -45 z"
        style="fill: #c3cfd9; stroke: none"
    />
    <path
        d="M 26 367 l 1 1 l -1 -1 m 25 0 l 1 1 l -1 -1 z"
        style="fill: #ff738a; stroke: none"
    />
    <path
        d="M 76 367 l 1 1 l -1 -1 m 397 0 l 1 1 l -1 -1 m -446 1 l 1 1 l -1 -1 m 22 0 l 1 1 l -1 -1 m 26 0 l 1 1 l -1 -1 m -45 1 l 1 1 l -1 -1 z"
        style="fill: #737d87; stroke: none"
    />
    <path d="M 46 369 l 1 1 l -1 -1 z" style="fill: #69c3ff; stroke: none" />
    <path d="M 47 369 l 1 1 l -1 -1 z" style="fill: #737d87; stroke: none" />
    <path d="M 74 369 l 1 1 l -1 -1 z" style="fill: #ff738a; stroke: none" />
    <path
        d="M 472 369 l 1 1 l -1 -1 m -438.3 1.3 l 0.7 0.3 l -0.7 -0.3 z"
        style="fill: #737d87; stroke: none"
    />
    <path
        d="M 35 370 l 1 1 l -1 -1 m 6 0 l 1 1 l -1 -1 z"
        style="fill: #ff738a; stroke: none"
    />
    <path
        d="M 42.7 370.3 l 0.7 0.3 l -0.7 -0.3 M 72 370 l 1 1 l -1 -1 z"
        style="fill: #737d87; stroke: none"
    />
    <path d="M 73 370 l 1 1 l -1 -1 z" style="fill: #ff738a; stroke: none" />
    <path d="M 471 370 l 1 1 l -1 -1 z" style="fill: #69c3ff; stroke: none" />
    <path d="M 71 371 l 1 1 l -1 -1 z" style="fill: #737d87; stroke: none" />
    <path d="M 70 372 l 1 1 l -1 -1 z" style="fill: #ff738a; stroke: none" />
    <path d="M 68 373 l 1 1 l -1 -1 z" style="fill: #737d87; stroke: none" />
    <path d="M 67 374 l 1 1 l -1 -1 z" style="fill: #ff738a; stroke: none" />
    <path d="M 65 375 l 1 1 l -1 -1 z" style="fill: #737d87; stroke: none" />
    <path d="M 66 375 l 1 1 l -1 -1 z" style="fill: #ff738a; stroke: none" />
    <path d="M 466 375 l 1 1 l -1 -1 z" style="fill: #69c3ff; stroke: none" />
    <path
        d="M 64 376 l 1 1 l -1 -1 m 401 0 l 1 1 l -1 -1 z"
        style="fill: #737d87; stroke: none"
    />
    <path d="M 63 377 l 1 1 l -1 -1 z" style="fill: #ff738a; stroke: none" />
    <path d="M 463 377 l 1 1 l -1 -1 z" style="fill: #69c3ff; stroke: none" />
    <path d="M 61 378 l 1 1 l -1 -1 z" style="fill: #737d87; stroke: none" />
    <path d="M 461 378 l 1 1 l -1 -1 z" style="fill: #69c3ff; stroke: none" />
    <path d="M 60 379 l 1 1 l -1 -1 z" style="fill: #ff738a; stroke: none" />
    <path
        d="M 457.7 379.3 l 0.7 0.3 l -0.7 -0.3 z"
        style="fill: #69c3ff; stroke: none"
    />
    <path
        d="M 459 379 l 1 1 l -1 -1 m -401 1 l 1 1 l -1 -1 z"
        style="fill: #737d87; stroke: none"
    />
    <path d="M 59 380 l 1 1 l -1 -1 z" style="fill: #ff738a; stroke: none" />
    <path
        d="M 450.7 380.3 l 0.7 0.3 l -0.7 -0.3 z"
        style="fill: #69c3ff; stroke: none"
    />
    <path d="M 452 380 v 1 h 3 l -3 -1 z" style="fill: #737d87; stroke: none" />
    <path d="M 57 381 l 1 1 l -1 -1 z" style="fill: #ff738a; stroke: none" />
    <path
        d="M 447.7 381.3 l 0.7 0.3 l -0.7 -0.3 M 55 382 l 1 1 l -1 -1 m 390 0 l 1 1 l -1 -1 m -391 1 v 9 h 1 l -1 -9 m 389 0 l 1 1 l -1 -1 m -1 1 l 1 1 l -1 -1 m -203 1 v 1 h 3 l -3 -1 z"
        style="fill: #737d87; stroke: none"
    />
    <path
        d="M 142.1 387 c -8.1 4.5 -5.4 31.4 6.8 24.8 c 8.1 -4.5 5.4 -31.5 -6.8 -24.8 z"
        style="fill: #010101; stroke: none"
    />
    <path d="M 236 386 l -2 3 l 2 -3 z" style="fill: #737d87; stroke: none" />
    <path
        d="M 237.1 387 c -8.1 4.5 -5.4 31.6 6.8 24.8 c 8.1 -4.5 5.4 -31.6 -6.8 -24.8 z"
        style="fill: #010101; stroke: none"
    />
    <path
        d="M 244 386 l 1 1 l -1 -1 m 1 1 l 1 1 l -1 -1 m 1 1 l 1 1 l -1 -1 m 192 0 l 1 1 l -1 -1 z"
        style="fill: #737d87; stroke: none"
    />
    <path d="M 437 389 l 1 1 l -1 -1 z" style="fill: #69c3ff; stroke: none" />
    <path
        d="M 233 390 l 1 1 l -1 -1 m 14 0 l 1 1 l -1 -1 z"
        style="fill: #737d87; stroke: none"
    />
    <path d="M 436 391 l 1 1 l -1 -1 z" style="fill: #69c3ff; stroke: none" />
    <path d="M 435 393 l 1 1 l -1 -1 z" style="fill: #737d87; stroke: none" />
    <path d="M 55 394 l 1 1 l -1 -1 z" style="fill: #ff738a; stroke: none" />
    <path
        d="M 180 394 v 1 h 3 l -3 -1 m 23.7 0.3 l 0.7 0.3 l -0.7 -0.3 M 305 394 v 10 h 1 l -1 -10 m -249.7 1.7 l 0.3 0.7 l -0.3 -0.7 M 178 395 l 1 1 l -1 -1 z"
        style="fill: #737d87; stroke: none"
    />
    <path
        d="M 179.1 395.7 c -7.2 2.8 -4.2 10.9 0.1 14.7 c 6.2 5.5 15.3 6.5 22.8 3.2 c 6.1 -2.7 15.8 -15.6 4 -18.2 c -5.5 -1.2 -8.8 5.6 -14 4.6 c -4.8 -0.9 -7.4 -6.5 -12.9 -4.3 z"
        style="fill: #010101; stroke: none"
    />
    <path
        d="M 185 395 l 1 1 l -1 -1 m 15.7 0.3 l 0.7 0.3 l -0.7 -0.3 M 207 395 l 1 1 l -1 -1 m 227 0 l 1 1 l -1 -1 m -258 1 l 1 1 l -1 -1 m 10 0 l 1 1 l -1 -1 m 13 0 l 1 1 l -1 -1 m 10 0 l 1 1 l -1 -1 z"
        style="fill: #737d87; stroke: none"
    />
    <path d="M 433 396 l 1 1 l -1 -1 z" style="fill: #69c3ff; stroke: none" />
    <path d="M 56 397 l 1 1 l -1 -1 z" style="fill: #ff738a; stroke: none" />
    <path
        d="M 175 397 l 1 1 l -1 -1 m 12 0 l 1 1 l -1 -1 m 11 0 l 1 1 l -1 -1 m 12 0 l 1 1 l -1 -1 z"
        style="fill: #737d87; stroke: none"
    />
    <path
        d="M 386 397 v 1 h 7 l -7 -1 m 46 0 l 1 1 l -1 -1 z"
        style="fill: #69c3ff; stroke: none"
    />
    <path
        d="M 56 398 l 1 1 l -1 -1 m 132 0 l 1 1 l -1 -1 m 9 0 l 1 1 l -1 -1 m 136.7 0.3 l 0.7 0.3 l -0.7 -0.3 M 344 398 l 1 1 l -1 -1 z"
        style="fill: #737d87; stroke: none"
    />
    <path d="M 383 398 l 1 1 l -1 -1 z" style="fill: #69c3ff; stroke: none" />
    <path
        d="M 384 398 l 1 1 l -1 -1 m 11 0 l 1 1 l -1 -1 z"
        style="fill: #737d87; stroke: none"
    />
    <path
        d="M 396 398 l 1 1 l -1 -1 m 35 0 l 1 1 l -1 -1 z"
        style="fill: #69c3ff; stroke: none"
    />
    <path d="M 57 399 l 1 1 l -1 -1 z" style="fill: #ff738a; stroke: none" />
    <path
        d="M 174.3 399.7 l 0.3 0.7 l -0.3 -0.7 M 189 399 l 1 1 l -1 -1 m 7 0 l 1 1 l -1 -1 m 15 0 l 1 1 l -1 -1 m 120 0 l 1 1 l -1 -1 m 16 0 l 1 1 l -1 -1 m 34 0 l 1 1 l -1 -1 m 16 0 l 1 1 l -1 -1 z"
        style="fill: #737d87; stroke: none"
    />
    <path
        d="M 398 399 l 1 1 l -1 -1 m 32 0 l 1 1 l -1 -1 z"
        style="fill: #69c3ff; stroke: none"
    />
    <path
        d="M 57 400 l 1 1 l -1 -1 m 134 0 v 1 h 4 l -4 -1 m 138 0 l 1 1 l -1 -1 m 20 0 l 1 1 l -1 -1 m 30 0 l 1 1 l -1 -1 m 20 0 l 1 1 l -1 -1 z"
        style="fill: #737d87; stroke: none"
    />
    <path
        d="M 400 400 l 1 1 l -1 -1 m 29 0 l 1 1 l -1 -1 z"
        style="fill: #69c3ff; stroke: none"
    />
    <path d="M 58 401 l 1 1 l -1 -1 z" style="fill: #ff738a; stroke: none" />
    <path
        d="M 290 401 v 4 h 1 l -1 -4 m 37 0 l 1 1 l -1 -1 z"
        style="fill: #737d87; stroke: none"
    />
    <path d="M 377 401 l 1 1 l -1 -1 z" style="fill: #69c3ff; stroke: none" />
    <path
        d="M 401 401 l 1 1 l -1 -1 m 27 0 l 1 1 l -1 -1 m -348 1 v 3 h 1 l -1 -3 m 272 0 l 1 1 l -1 -1 m 24 0 l 1 1 l -1 -1 z"
        style="fill: #737d87; stroke: none"
    />
    <path
        d="M 403 402 l 1 1 l -1 -1 m 23 0 l 1 1 l -1 -1 z"
        style="fill: #69c3ff; stroke: none"
    />
    <path
        d="M 59 403 l 1 1 l -1 -1 m 295 0 l 1 1 l -1 -1 m 20 0 l 1 1 l -1 -1 m 30 0 l 1 1 l -1 -1 z"
        style="fill: #737d87; stroke: none"
    />
    <path
        d="M 405 403 l 1 1 l -1 -1 m 19 0 l 1 1 l -1 -1 z"
        style="fill: #69c3ff; stroke: none"
    />
    <path
        d="M 425 403 l 1 1 l -1 -1 m -365 1 l 1 1 l -1 -1 m 114 0 l 1 1 l -1 -1 m 37 0 l 1 1 l -1 -1 m 95 0 l 1 1 l -1 -1 m 15 0 l 1 1 l -1 -1 m 35 0 l 1 1 l -1 -1 z"
        style="fill: #737d87; stroke: none"
    />
    <path d="M 371 404 l 1 1 l -1 -1 z" style="fill: #69c3ff; stroke: none" />
    <path
        d="M 372 404 l 1 1 l -1 -1 m 35 0 l 1 1 l -1 -1 z"
        style="fill: #737d87; stroke: none"
    />
    <path d="M 408 404 l 1 1 l -1 -1 z" style="fill: #69c3ff; stroke: none" />
    <path
        d="M 422 404 l 1 1 l -1 -1 m -361 1 l 1 1 l -1 -1 z"
        style="fill: #737d87; stroke: none"
    />
    <path
        d="M 80.3 405.7 l 0.3 0.7 l -0.3 -0.7 z"
        style="fill: #ff738a; stroke: none"
    />
    <path
        d="M 309 405 v 1 h 4 l -4 -1 m 5 0 v 1 h 4 l -4 -1 m 46.7 0.3 l 0.7 0.3 l -0.7 -0.3 m 7 0 l 0.7 0.3 l -0.7 -0.3 m 43 0 l 0.7 0.3 l -0.7 -0.3 z"
        style="fill: #737d87; stroke: none"
    />
    <path d="M 412 405 v 1 h 6 l -6 -1 z" style="fill: #69c3ff; stroke: none" />
    <path
        d="M 418.7 405.3 l 0.7 0.3 l -0.7 -0.3 M 62 406 l 1 1 l -1 -1 z"
        style="fill: #737d87; stroke: none"
    />
    <path d="M 63 406 l 1 1 l -1 -1 z" style="fill: #ff738a; stroke: none" />
    <path
        d="M 175 406 l 1 1 l -1 -1 m 35 0 l 1 1 l -1 -1 m 79.3 0.7 l 0.3 0.7 l -0.3 -0.7 M 64 407 l 1 1 l -1 -1 m 112 0 l 1 1 l -1 -1 m 71.3 0.7 l 0.3 0.7 l -0.3 -0.7 z"
        style="fill: #737d87; stroke: none"
    />
    <path d="M 66 408 l 1 1 l -1 -1 z" style="fill: #ff738a; stroke: none" />
    <path
        d="M 81.3 408.7 l 0.3 0.7 l -0.3 -0.7 M 152 408 l 1 1 l -1 -1 m 81 0 l 1 1 l -1 -1 m -165 1 l 1 1 l -1 -1 z"
        style="fill: #737d87; stroke: none"
    />
    <path d="M 69 409 l 1 1 l -1 -1 z" style="fill: #ff738a; stroke: none" />
    <path
        d="M 208 409 l 1 1 l -1 -1 m 80.3 0.7 l 0.3 0.7 l -0.3 -0.7 m -216.7 0.7 l 0.7 0.3 l -0.7 -0.3 z"
        style="fill: #737d87; stroke: none"
    />
    <path
        d="M 73.7 410.3 l 0.7 0.3 l -0.7 -0.3 M 81 410 l 1 1 l -1 -1 z"
        style="fill: #ff738a; stroke: none"
    />
    <path
        d="M 151 410 l 1 1 l -1 -1 m 56 0 l 1 1 l -1 -1 m 27 0 l 1 1 l -1 -1 m -156 1 v 1 h 4 l -4 -1 m 72 0 l 1 1 l -1 -1 m 30 0 l 1 1 l -1 -1 m 55 0 l 1 1 l -1 -1 m 52.3 0.7 l 0.3 0.7 l -0.3 -0.7 M 148 412 l 1 1 l -1 -1 m 33 0 l 1 1 l -1 -1 m 23 0 l 1 1 l -1 -1 m 33 0 l 1 1 l -1 -1 m 6 0 l 1 1 l -1 -1 m -60 1 l 1 1 l -1 -1 m 19 0 l 1 1 l -1 -1 m 84 0 l 1 1 l -1 -1 m -101 1 l 1 1 l -1 -1 m 15 0 l 1 1 l -1 -1 m -12 1 v 1 h 3 l -3 -1 m 7 0 v 1 h 3 l -3 -1 m 90 0 l 1 1 l -1 -1 m -2 3 l 1 1 l -1 -1 m -1 1 l 1 1 l -1 -1 m -1 1 l 1 1 l -1 -1 m -6 6 l 1 1 l -1 -1 m -1 1 l 1 1 l -1 -1 m -1 1 l 1 1 l -1 -1 m -1 1 l 1 1 l -1 -1 m -2 1 l 1 1 l -1 -1 m -1 1 l 1 1 l -1 -1 m -2 1 l 1 1 l -1 -1 m -1 1 l 1 1 l -1 -1 m -2 1 l 1 1 l -1 -1 m -1 1 l 1 1 l -1 -1 m -2 1 l 1 1 l -1 -1 m -2 1 l 1 1 l -1 -1 m -2 1 l 1 1 l -1 -1 m -2 1 l 1 1 l -1 -1 m -2.3 1.3 l 0.7 0.3 l -0.7 -0.3 M 250 441 l 1 1 l -1 -1 m -2.3 1.3 l 0.7 0.3 l -0.7 -0.3 M 245 443 l 1 1 l -1 -1 m -3 1 l 1 1 l -1 -1 m -3 1 l 1 1 l -1 -1 m -3.3 1.3 l 0.7 0.3 l -0.7 -0.3 m -82 1 l 0.7 0.3 l -0.7 -0.3 m 78 0 l 0.7 0.3 l -0.7 -0.3 M 157 448 v 1 h 3 l -3 -1 m 69 0 v 1 h 3 l -3 -1 m -64 1 v 1 h 3 l -3 -1 m 59 0 v 1 h 3 l -3 -1 m -53 1 v 1 h 4 l -4 -1 m 46 0 v 1 h 4 l -4 -1 m -38 1 v 1 h 7 l -7 -1 m 27 0 v 1 h 7 l -7 -1 z"
        style="fill: #737d87; stroke: none"
    />
</svg>
